<svg version="1.1" xmlns="http://www.w3.org/2000/svg" viewBox="0 0 361.2961165181405 277.3026993231433" width="361.2961165181405" height="277.3026993231433">
  <!-- svg-source:excalidraw -->
  
  <defs>
    <style class="style-fonts">
      @font-face {
        font-family: "Virgil";
        src: url("https://excalidraw.com/Virgil.woff2");
      }
      @font-face {
        font-family: "Cascadia";
        src: url("https://excalidraw.com/Cascadia.woff2");
      }
      @font-face {
        font-family: "Assistant";
        src: url("https://excalidraw.com/Assistant-Regular.woff2");
      }
    </style>
    
  </defs>
  <rect x="0" y="0" width="361.2961165181405" height="277.3026993231433" fill="#ffffff"></rect><g stroke-linecap="round" transform="translate(10 10) rotate(0 75 28.75)"><path d="M14.38 0 C39.1 0, 63.82 0, 135.63 0 M14.38 0 C61 0, 107.63 0, 135.63 0 M135.63 0 C145.21 0, 150 4.79, 150 14.38 M135.63 0 C145.21 0, 150 4.79, 150 14.38 M150 14.38 C150 25.81, 150 37.25, 150 43.13 M150 14.38 C150 24.65, 150 34.93, 150 43.13 M150 43.13 C150 52.71, 145.21 57.5, 135.63 57.5 M150 43.13 C150 52.71, 145.21 57.5, 135.63 57.5 M135.63 57.5 C94.72 57.5, 53.81 57.5, 14.38 57.5 M135.63 57.5 C88.06 57.5, 40.49 57.5, 14.38 57.5 M14.38 57.5 C4.79 57.5, 0 52.71, 0 43.13 M14.38 57.5 C4.79 57.5, 0 52.71, 0 43.13 M0 43.13 C0 33.21, 0 23.3, 0 14.38 M0 43.13 C0 33, 0 22.87, 0 14.38 M0 14.38 C0 4.79, 4.79 0, 14.38 0 M0 14.38 C0 4.79, 4.79 0, 14.38 0" stroke="#1e1e1e" stroke-width="2" fill="none"></path></g><g transform="translate(65.74666595458984 26.25) rotate(0 19.253334045410156 12.5)"><text x="19.253334045410156" y="17.52" font-family="Virgil, Segoe UI Emoji" font-size="20px" fill="#1e1e1e" text-anchor="middle" style="white-space: pre;" direction="ltr" dominant-baseline="alphabetic">Map</text></g><g stroke-linecap="round" transform="translate(74.29121923237835 76.41567336597836) rotate(0 75 28.75)"><path d="M14.38 0 C62.46 0, 110.55 0, 135.63 0 M14.38 0 C58.14 0, 101.91 0, 135.63 0 M135.63 0 C145.21 0, 150 4.79, 150 14.38 M135.63 0 C145.21 0, 150 4.79, 150 14.38 M150 14.38 C150 20.86, 150 27.34, 150 43.13 M150 14.38 C150 22.51, 150 30.64, 150 43.13 M150 43.13 C150 52.71, 145.21 57.5, 135.63 57.5 M150 43.13 C150 52.71, 145.21 57.5, 135.63 57.5 M135.63 57.5 C105.73 57.5, 75.84 57.5, 14.38 57.5 M135.63 57.5 C105.08 57.5, 74.53 57.5, 14.38 57.5 M14.38 57.5 C4.79 57.5, 0 52.71, 0 43.13 M14.38 57.5 C4.79 57.5, 0 52.71, 0 43.13 M0 43.13 C0 36.95, 0 30.78, 0 14.38 M0 43.13 C0 36.61, 0 30.09, 0 14.38 M0 14.38 C0 4.79, 4.79 0, 14.38 0 M0 14.38 C0 4.79, 4.79 0, 14.38 0" stroke="#1e1e1e" stroke-width="2" fill="none"></path></g><g transform="translate(91.04455327778851 92.66567336597836) rotate(0 58.246665954589844 12.5)"><text x="58.246665954589844" y="17.52" font-family="Virgil, Segoe UI Emoji" font-size="20px" fill="#1e1e1e" text-anchor="middle" style="white-space: pre;" direction="ltr" dominant-baseline="alphabetic">VectorLayer</text></g><g stroke-linecap="round" transform="translate(138.64752677642537 142.31900753366972) rotate(0 75 28.75)"><path d="M14.38 0 C48.53 0, 82.69 0, 135.63 0 M14.38 0 C52.06 0, 89.74 0, 135.63 0 M135.63 0 C145.21 0, 150 4.79, 150 14.38 M135.63 0 C145.21 0, 150 4.79, 150 14.38 M150 14.38 C150 23.45, 150 32.53, 150 43.13 M150 14.38 C150 25.65, 150 36.92, 150 43.13 M150 43.13 C150 52.71, 145.21 57.5, 135.63 57.5 M150 43.13 C150 52.71, 145.21 57.5, 135.63 57.5 M135.63 57.5 C93.97 57.5, 52.31 57.5, 14.38 57.5 M135.63 57.5 C107.25 57.5, 78.88 57.5, 14.38 57.5 M14.38 57.5 C4.79 57.5, 0 52.71, 0 43.13 M14.38 57.5 C4.79 57.5, 0 52.71, 0 43.13 M0 43.13 C0 34.24, 0 25.36, 0 14.38 M0 43.13 C0 35.61, 0 28.09, 0 14.38 M0 14.38 C0 4.79, 4.79 0, 14.38 0 M0 14.38 C0 4.79, 4.79 0, 14.38 0" stroke="#1e1e1e" stroke-width="2" fill="none"></path></g><g transform="translate(150.4208612795992 158.56900753366972) rotate(0 63.22666549682617 12.5)"><text x="63.22666549682617" y="17.52" font-family="Virgil, Segoe UI Emoji" font-size="20px" fill="#1e1e1e" text-anchor="middle" style="white-space: pre;" direction="ltr" dominant-baseline="alphabetic">VectorSource</text></g><g stroke-linecap="round"><g transform="translate(35.18959401315442 67.82184250190949) rotate(0 19.562910677434047 19.81697445246482)"><path d="M0 0 C0.8 5.59, -1.69 26.93, 4.83 33.54 C11.35 40.14, 33.41 38.62, 39.13 39.63 M0 0 C0.8 5.59, -1.69 26.93, 4.83 33.54 C11.35 40.14, 33.41 38.62, 39.13 39.63" stroke="#1e1e1e" stroke-width="2" fill="none"></path></g></g><mask></mask><g stroke-linecap="round"><g transform="translate(98.70553777104942 135.148742885287) rotate(0 19.562910677434047 19.81697445246482)"><path d="M0 0 C0.8 5.59, -1.69 26.93, 4.83 33.54 C11.35 40.14, 33.41 38.62, 39.13 39.63 M0 0 C0.8 5.59, -1.69 26.93, 4.83 33.54 C11.35 40.14, 33.41 38.62, 39.13 39.63" stroke="#1e1e1e" stroke-width="2" fill="none"></path></g></g><mask></mask><g stroke-linecap="round"><g transform="translate(162.2214815289517 201.20532439350245) rotate(0 19.562910677434047 19.81697445246482)"><path d="M0 0 C0.8 5.59, -1.69 26.93, 4.83 33.54 C11.35 40.14, 33.41 38.62, 39.13 39.63 M0 0 C0.8 5.59, -1.69 26.93, 4.83 33.54 C11.35 40.14, 33.41 38.62, 39.13 39.63" stroke="#1e1e1e" stroke-width="2" fill="none"></path></g></g><mask></mask><g stroke-linecap="round" transform="translate(201.29611651814048 209.80269932314332) rotate(0 75 28.75)"><path d="M14.38 0 C51.91 0, 89.44 0, 135.63 0 M14.38 0 C49.37 0, 84.37 0, 135.63 0 M135.63 0 C145.21 0, 150 4.79, 150 14.38 M135.63 0 C145.21 0, 150 4.79, 150 14.38 M150 14.38 C150 24.26, 150 34.15, 150 43.13 M150 14.38 C150 20.13, 150 25.89, 150 43.13 M150 43.13 C150 52.71, 145.21 57.5, 135.63 57.5 M150 43.13 C150 52.71, 145.21 57.5, 135.63 57.5 M135.63 57.5 C90.71 57.5, 45.79 57.5, 14.38 57.5 M135.63 57.5 C96 57.5, 56.37 57.5, 14.38 57.5 M14.38 57.5 C4.79 57.5, 0 52.71, 0 43.13 M14.38 57.5 C4.79 57.5, 0 52.71, 0 43.13 M0 43.13 C0 35.02, 0 26.91, 0 14.38 M0 43.13 C0 34.99, 0 26.85, 0 14.38 M0 14.38 C0 4.79, 4.79 0, 14.38 0 M0 14.38 C0 4.79, 4.79 0, 14.38 0" stroke="#1e1e1e" stroke-width="2" fill="none"></path></g><g transform="translate(237.3294493428475 226.05269932314332) rotate(0 38.96666717529297 12.5)"><text x="38.96666717529297" y="17.52" font-family="Virgil, Segoe UI Emoji" font-size="20px" fill="#1e1e1e" text-anchor="middle" style="white-space: pre;" direction="ltr" dominant-baseline="alphabetic">Feature</text></g></svg>