<?xml version="1.0" encoding="UTF-8" standalone="no"?><svg xmlns="http://www.w3.org/2000/svg" xmlns:xlink= "http://www.w3.org/1999/xlink" width="1152" height="576" style="overflow: hidden;" aria-label="A chart."><defs id="_ABSTRACT_RENDERER_ID_15"><clipPath id="_ABSTRACT_RENDERER_ID_16"><rect x="192" y="110" width="768" height="356"></rect></clipPath></defs><rect x="0" y="0" width="1152" height="576" stroke="none" stroke-width="0" fill="#ffffff"></rect><g><text text-anchor="start" x="192" y="82.25" font-family="Arial" font-size="25" font-weight="bold" stroke="none" stroke-width="0" fill="#000000">Memory</text><rect x="192" y="61" width="768" height="25" stroke="none" stroke-width="0" fill-opacity="0" fill="#ffffff"></rect></g><g><rect x="975" y="110" width="162" height="159" stroke="none" stroke-width="0" fill-opacity="0" fill="#ffffff"></rect><g><rect x="975" y="110" width="162" height="15" stroke="none" stroke-width="0" fill-opacity="0" fill="#ffffff"></rect><g><text text-anchor="start" x="1011" y="122.75" font-family="Arial" font-size="15" stroke="none" stroke-width="0" fill="#222222">System.Drawing</text></g><rect x="975" y="110" width="30" height="15" stroke="none" stroke-width="0" fill="#003f5c"></rect></g><g><rect x="975" y="134" width="162" height="15" stroke="none" stroke-width="0" fill-opacity="0" fill="#ffffff"></rect><g><text text-anchor="start" x="1011" y="146.75" font-family="Arial" font-size="15" stroke="none" stroke-width="0" fill="#222222">Magick.Net</text></g><rect x="975" y="134" width="30" height="15" stroke="none" stroke-width="0" fill="#ff7f0e"></rect></g><g><rect x="975" y="158" width="162" height="15" stroke="none" stroke-width="0" fill-opacity="0" fill="#ffffff"></rect><g><text text-anchor="start" x="1011" y="170.75" font-family="Arial" font-size="15" stroke="none" stroke-width="0" fill="#222222">MagicScaler</text></g><rect x="975" y="158" width="30" height="15" stroke="none" stroke-width="0" fill="#2ca02c"></rect></g><g><rect x="975" y="182" width="162" height="15" stroke="none" stroke-width="0" fill-opacity="0" fill="#ffffff"></rect><g><text text-anchor="start" x="1011" y="194.75" font-family="Arial" font-size="15" stroke="none" stroke-width="0" fill="#222222">ImageSharp</text></g><rect x="975" y="182" width="30" height="15" stroke="none" stroke-width="0" fill="#d62728"></rect></g><g><rect x="975" y="206" width="162" height="15" stroke="none" stroke-width="0" fill-opacity="0" fill="#ffffff"></rect><g><text text-anchor="start" x="1011" y="218.75" font-family="Arial" font-size="15" stroke="none" stroke-width="0" fill="#222222">NetVips</text></g><rect x="975" y="206" width="30" height="15" stroke="none" stroke-width="0" fill="#9467bd"></rect></g><g><rect x="975" y="230" width="162" height="15" stroke="none" stroke-width="0" fill-opacity="0" fill="#ffffff"></rect><g><text text-anchor="start" x="1011" y="242.75" font-family="Arial" font-size="15" stroke="none" stroke-width="0" fill="#222222">SkiaSharp</text></g><rect x="975" y="230" width="30" height="15" stroke="none" stroke-width="0" fill="#8c564b"></rect></g><g><rect x="975" y="254" width="162" height="15" stroke="none" stroke-width="0" fill-opacity="0" fill="#ffffff"></rect><g><text text-anchor="start" x="1011" y="266.75" font-family="Arial" font-size="15" stroke="none" stroke-width="0" fill="#222222">FreeImage</text></g><rect x="975" y="254" width="30" height="15" stroke="none" stroke-width="0" fill="#e377c2"></rect></g></g><g><rect x="192" y="110" width="768" height="356" stroke="none" stroke-width="0" fill="#ffffff"></rect><g clip-path="url(https://www.statskingdom.com/chart-maker.html#_ABSTRACT_RENDERER_ID_16)"><g><rect x="192" y="465" width="768" height="1" stroke="none" stroke-width="0" fill="#cccccc"></rect><rect x="192" y="421" width="768" height="1" stroke="none" stroke-width="0" fill="#cccccc"></rect><rect x="192" y="376" width="768" height="1" stroke="none" stroke-width="0" fill="#cccccc"></rect><rect x="192" y="332" width="768" height="1" stroke="none" stroke-width="0" fill="#cccccc"></rect><rect x="192" y="288" width="768" height="1" stroke="none" stroke-width="0" fill="#cccccc"></rect><rect x="192" y="243" width="768" height="1" stroke="none" stroke-width="0" fill="#cccccc"></rect><rect x="192" y="199" width="768" height="1" stroke="none" stroke-width="0" fill="#cccccc"></rect><rect x="192" y="154" width="768" height="1" stroke="none" stroke-width="0" fill="#cccccc"></rect><rect x="192" y="110" width="768" height="1" stroke="none" stroke-width="0" fill="#cccccc"></rect><rect x="192" y="443" width="768" height="1" stroke="none" stroke-width="0" fill="#ebebeb"></rect><rect x="192" y="398" width="768" height="1" stroke="none" stroke-width="0" fill="#ebebeb"></rect><rect x="192" y="354" width="768" height="1" stroke="none" stroke-width="0" fill="#ebebeb"></rect><rect x="192" y="310" width="768" height="1" stroke="none" stroke-width="0" fill="#ebebeb"></rect><rect x="192" y="265" width="768" height="1" stroke="none" stroke-width="0" fill="#ebebeb"></rect><rect x="192" y="221" width="768" height="1" stroke="none" stroke-width="0" fill="#ebebeb"></rect><rect x="192" y="177" width="768" height="1" stroke="none" stroke-width="0" fill="#ebebeb"></rect><rect x="192" y="132" width="768" height="1" stroke="none" stroke-width="0" fill="#ebebeb"></rect></g><g><rect x="384" y="459" width="54" height="6" stroke="none" stroke-width="0" fill="#003f5c"></rect><rect x="439" y="334" width="54" height="131" stroke="none" stroke-width="0" fill="#ff7f0e"></rect><rect x="494" y="431" width="54" height="34" stroke="none" stroke-width="0" fill="#2ca02c"></rect><rect x="549" y="116" width="54" height="349" stroke="none" stroke-width="0" fill="#d62728"></rect><rect x="604" y="417" width="54" height="48" stroke="none" stroke-width="0" fill="#9467bd"></rect><rect x="659" y="452" width="54" height="13" stroke="none" stroke-width="0" fill="#8c564b"></rect><rect x="714" y="454" width="54" height="11" stroke="none" stroke-width="0" fill="#e377c2"></rect></g><g><rect x="192" y="465" width="768" height="1" stroke="none" stroke-width="0" fill="#333333"></rect></g></g><g></g><g><g><text text-anchor="middle" x="576" y="487.75" font-family="Arial" font-size="15" stroke="none" stroke-width="0" fill="#222222">Mem</text></g><g><text text-anchor="end" x="177" y="470.75" font-family="Arial" font-size="15" stroke="none" stroke-width="0" fill="#444444">0</text></g><g><text text-anchor="end" x="177" y="426.375" font-family="Arial" font-size="15" stroke="none" stroke-width="0" fill="#444444">500</text></g><g><text text-anchor="end" x="177" y="382" font-family="Arial" font-size="15" stroke="none" stroke-width="0" fill="#444444">1,000</text></g><g><text text-anchor="end" x="177" y="337.625" font-family="Arial" font-size="15" stroke="none" stroke-width="0" fill="#444444">1,500</text></g><g><text text-anchor="end" x="177" y="293.25" font-family="Arial" font-size="15" stroke="none" stroke-width="0" fill="#444444">2,000</text></g><g><text text-anchor="end" x="177" y="248.875" font-family="Arial" font-size="15" stroke="none" stroke-width="0" fill="#444444">2,500</text></g><g><text text-anchor="end" x="177" y="204.5" font-family="Arial" font-size="15" stroke="none" stroke-width="0" fill="#444444">3,000</text></g><g><text text-anchor="end" x="177" y="160.125" font-family="Arial" font-size="15" stroke="none" stroke-width="0" fill="#444444">3,500</text></g><g><text text-anchor="end" x="177" y="115.75" font-family="Arial" font-size="15" stroke="none" stroke-width="0" fill="#444444">4,000</text></g></g></g><g></g></svg>