<svg version="1.1" xmlns="http://www.w3.org/2000/svg" viewBox="0 0 980.8838147263559 430.24340010014384" width="980.8838147263559" height="430.24340010014384">
  <!-- svg-source:excalidraw -->
  
  <defs>
    <style class="style-fonts">
      @font-face {
        font-family: "Virgil";
        src: url("https://excalidraw.com/Virgil.woff2");
      }
      @font-face {
        font-family: "Cascadia";
        src: url("https://excalidraw.com/Cascadia.woff2");
      }
      @font-face {
        font-family: "Assistant";
        src: url("https://excalidraw.com/Assistant-Regular.woff2");
      }
    </style>
    
  </defs>
  <rect x="0" y="0" width="980.8838147263559" height="430.24340010014384" fill="#ffffff"></rect><g stroke-linecap="round" transform="translate(10 164.28464916184203) rotate(0 64.0835424213492 34.138958584894226)"><path d="M17.07 0 C41.96 0.88, 66.34 0.12, 111.1 0 M17.07 0 C39.96 0.46, 61.86 0.34, 111.1 0 M111.1 0 C122.34 -1.09, 128.72 5.78, 128.17 17.07 M111.1 0 C123.12 -0.09, 128.42 6.15, 128.17 17.07 M128.17 17.07 C128.75 29.5, 127.59 40.37, 128.17 51.21 M128.17 17.07 C127.31 29.15, 127.57 40.54, 128.17 51.21 M128.17 51.21 C126.54 61.41, 123.44 67.48, 111.1 68.28 M128.17 51.21 C127.17 62.93, 124.62 67.34, 111.1 68.28 M111.1 68.28 C84.63 68.6, 62.39 67.66, 17.07 68.28 M111.1 68.28 C75.18 68.75, 39.28 67.88, 17.07 68.28 M17.07 68.28 C5.91 67.13, 0.29 64.52, 0 51.21 M17.07 68.28 C6.28 67.56, 1.34 62.23, 0 51.21 M0 51.21 C-0.93 38.21, -1.84 25.79, 0 17.07 M0 51.21 C-0.68 42.19, 1.1 31.33, 0 17.07 M0 17.07 C0.31 5.37, 4.16 -0.13, 17.07 0 M0 17.07 C1.37 7.02, 6.57 2, 17.07 0" stroke="#1e1e1e" stroke-width="2" fill="none"></path></g><g transform="translate(44.63354165840974 185.9236077467358) rotate(0 29.450000762939453 12.5)"><text x="29.450000762939453" y="0" font-family="Virgil, Segoe UI Emoji" font-size="20px" fill="#1e1e1e" text-anchor="middle" style="white-space: pre;" direction="ltr" dominant-baseline="text-before-edge">New</text></g><g stroke-linecap="round" transform="translate(280.13062819282095 164.28464916184112) rotate(0 64.0835424213492 34.138958584894226)"><path d="M17.07 0 C37.04 -2.04, 57.85 -0.39, 111.1 0 M17.07 0 C38.96 0.32, 61.18 -0.6, 111.1 0 M111.1 0 C121.38 -1.35, 127.24 4.89, 128.17 17.07 M111.1 0 C123.2 0.02, 126.64 3.86, 128.17 17.07 M128.17 17.07 C126.73 27.24, 128.46 36.8, 128.17 51.21 M128.17 17.07 C127.3 25.12, 127.2 30.81, 128.17 51.21 M128.17 51.21 C129.63 60.64, 123.01 67.71, 111.1 68.28 M128.17 51.21 C129.23 63.09, 123.82 69.04, 111.1 68.28 M111.1 68.28 C81.86 67.69, 54.96 67.13, 17.07 68.28 M111.1 68.28 C80.15 68.08, 47.06 68.26, 17.07 68.28 M17.07 68.28 C6.89 68.8, -0.21 61.53, 0 51.21 M17.07 68.28 C4.92 69.62, -2.09 64.68, 0 51.21 M0 51.21 C0.64 36.4, 0.3 25.61, 0 17.07 M0 51.21 C-0.04 42.19, 0.42 30.51, 0 17.07 M0 17.07 C1.98 6.29, 6.69 1.45, 17.07 0 M0 17.07 C2.09 6.52, 6.67 -1.47, 17.07 0" stroke="#1e1e1e" stroke-width="2" fill="none"></path></g><g transform="translate(313.00583664505393 185.9236077467349) rotate(0 31.20833396911621 12.5)"><text x="31.20833396911621" y="0" font-family="Virgil, Segoe UI Emoji" font-size="20px" fill="#1e1e1e" text-anchor="middle" style="white-space: pre;" direction="ltr" dominant-baseline="text-before-edge">Closed</text></g><g stroke-linecap="round" transform="translate(842.7167298836575 157.58719557028417) rotate(0 64.0835424213492 34.138958584894226)"><path d="M17.07 0 C52.33 -1.95, 84.08 0.4, 111.1 0 M17.07 0 C37.31 -0.53, 59.1 0.71, 111.1 0 M111.1 0 C124.1 -0.61, 129.09 4.08, 128.17 17.07 M111.1 0 C123.45 1.71, 129.45 7.21, 128.17 17.07 M128.17 17.07 C129.76 25.07, 127.9 32.21, 128.17 51.21 M128.17 17.07 C128.84 29.62, 129.23 42.74, 128.17 51.21 M128.17 51.21 C128.6 62.73, 123.69 68.01, 111.1 68.28 M128.17 51.21 C130.4 64.61, 124.49 68.47, 111.1 68.28 M111.1 68.28 C84.15 69.48, 61.44 68.24, 17.07 68.28 M111.1 68.28 C76.08 67.97, 41.09 67.56, 17.07 68.28 M17.07 68.28 C6.84 70.17, 1.1 61.81, 0 51.21 M17.07 68.28 C7.45 67.16, 1.97 61.26, 0 51.21 M0 51.21 C-0.22 39.69, -0.28 30.7, 0 17.07 M0 51.21 C-0.32 38.9, -0.98 27.91, 0 17.07 M0 17.07 C-0.69 4.96, 7.13 -0.85, 17.07 0 M0 17.07 C-0.71 4.14, 4.79 -0.89, 17.07 0" stroke="#1e1e1e" stroke-width="2" fill="none"></path></g><g transform="translate(872.4252723050067 179.22615415517885) rotate(0 34.375 12.5)"><text x="34.375" y="0" font-family="Virgil, Segoe UI Emoji" font-size="20px" fill="#1e1e1e" text-anchor="middle" style="white-space: pre;" direction="ltr" dominant-baseline="text-before-edge">Booked</text></g><g transform="translate(464.768335262208 233.24845305192866) rotate(0 24.70833396911621 10)"><text x="0" y="0" font-family="Virgil, Segoe UI Emoji" font-size="16px" fill="#1e1e1e" text-anchor="start" style="white-space: pre;" direction="ltr" dominant-baseline="text-before-edge">Cancel</text></g><g stroke-linecap="round"><g transform="translate(71.85105789083173 236.37584476556276) rotate(0 139.53028315744905 29.022298896749817)"><path d="M-1.07 0.24 C22.97 10.69, 97.23 64.85, 143.99 63.74 C190.74 62.62, 256.8 5.26, 279.45 -6.45 M0.57 -0.68 C24.58 10.41, 97.23 65.47, 143.62 64.75 C190.01 64.02, 256.07 6.68, 278.9 -5.01" stroke="#1e1e1e" stroke-width="1" fill="none"></path></g><g transform="translate(71.85105789083173 236.37584476556276) rotate(0 139.53028315744905 29.022298896749817)"><path d="M263.97 15.05 C268.34 11.47, 270.39 4.72, 278.9 -5.01 M263.97 15.05 C268.34 8.02, 273.97 2.96, 278.9 -5.01" stroke="#1e1e1e" stroke-width="1" fill="none"></path></g><g transform="translate(71.85105789083173 236.37584476556276) rotate(0 139.53028315744905 29.022298896749817)"><path d="M254.57 0.76 C261.66 1.22, 266.33 -1.56, 278.9 -5.01 M254.57 0.76 C262.05 -1.7, 270.69 -2.19, 278.9 -5.01" stroke="#1e1e1e" stroke-width="1" fill="none"></path></g></g><mask></mask><g stroke-linecap="round" transform="translate(599.3759160570653 159.81968010080527) rotate(0 64.0835424213492 34.138958584894226)"><path d="M17.07 0 C47.26 1.28, 73.63 -0.51, 111.1 0 M17.07 0 C38.85 1.1, 59.63 0.09, 111.1 0 M111.1 0 C123.44 1.13, 129.07 3.78, 128.17 17.07 M111.1 0 C124.55 1.75, 127.86 4.76, 128.17 17.07 M128.17 17.07 C126.65 24.7, 127.02 30.43, 128.17 51.21 M128.17 17.07 C127.09 29.58, 128.05 41.03, 128.17 51.21 M128.17 51.21 C126.35 62.87, 122.03 66.35, 111.1 68.28 M128.17 51.21 C127.72 62.2, 121.67 67.98, 111.1 68.28 M111.1 68.28 C84.93 67.49, 57.66 67.61, 17.07 68.28 M111.1 68.28 C88.47 68.35, 65.93 67.55, 17.07 68.28 M17.07 68.28 C5.56 66.76, -0.96 64.04, 0 51.21 M17.07 68.28 C7.43 69.75, 1.58 62.91, 0 51.21 M0 51.21 C-1.71 41.63, -0.59 31.31, 0 17.07 M0 51.21 C-0.6 43.96, -0.63 36.74, 0 17.07 M0 17.07 C-0.7 3.84, 5.04 -0.52, 17.07 0 M0 17.07 C-0.44 5.72, 7.58 0.45, 17.07 0" stroke="#1e1e1e" stroke-width="2" fill="none"></path></g><g transform="translate(629.1594592413539 181.45863868569995) rotate(0 34.29999923706055 12.5)"><text x="34.29999923706055" y="0" font-family="Virgil, Segoe UI Emoji" font-size="20px" fill="#1e1e1e" text-anchor="middle" style="white-space: pre;" direction="ltr" dominant-baseline="text-before-edge">Pending</text></g><g stroke-linecap="round"><g transform="translate(60.68863523823893 236.37584476555367) rotate(0 306.02019783244714 90.4156234860261)"><path d="M0.96 -0.27 C42.99 29.99, 149.18 183.01, 251.19 182.58 C353.2 182.15, 553.01 27.84, 613.01 -2.85 M0.01 -1.46 C42.48 29.48, 151.21 183.93, 253.33 183.87 C355.46 183.8, 553.14 29.42, 612.75 -1.85" stroke="#1e1e1e" stroke-width="1" fill="none"></path></g><g transform="translate(60.68863523823893 236.37584476555367) rotate(0 306.02019783244714 90.4156234860261)"><path d="M597.53 17.98 C600.24 11.71, 603.23 10.78, 612.75 -1.85 M597.53 17.98 C602.06 12.22, 605.88 7.89, 612.75 -1.85" stroke="#1e1e1e" stroke-width="1" fill="none"></path></g><g transform="translate(60.68863523823893 236.37584476555367) rotate(0 306.02019783244714 90.4156234860261)"><path d="M588.34 3.55 C593.19 0.37, 598.19 2.6, 612.75 -1.85 M588.34 3.55 C595.05 1.33, 601.16 0.59, 612.75 -1.85" stroke="#1e1e1e" stroke-width="1" fill="none"></path></g></g><mask></mask><g transform="translate(295.28662420573346 380.41727737137717) rotate(0 24.808332443237305 10)"><text x="0" y="0" font-family="Virgil, Segoe UI Emoji" font-size="16px" fill="#1e1e1e" text-anchor="start" style="white-space: pre;" direction="ltr" dominant-baseline="text-before-edge">Submit</text></g><g stroke-linecap="round"><g transform="translate(728.2015098634756 193.95863868568904) rotate(0 53.57962873246015 0)"><path d="M0.18 0.3 C18.12 0.37, 89.87 1.16, 107.78 0.92 M-1.19 -0.58 C16.64 -0.88, 89.1 -0.74, 107.16 -0.72" stroke="#1e1e1e" stroke-width="1" fill="none"></path></g><g transform="translate(728.2015098634756 193.95863868568904) rotate(0 53.57962873246015 0)"><path d="M83.66 7.8 C91.45 6.15, 99.79 3.31, 107.16 -0.72 M83.66 7.8 C87.39 5.87, 94 5.15, 107.16 -0.72" stroke="#1e1e1e" stroke-width="1" fill="none"></path></g><g transform="translate(728.2015098634756 193.95863868568904) rotate(0 53.57962873246015 0)"><path d="M83.68 -9.3 C91.53 -5.63, 99.87 -3.14, 107.16 -0.72 M83.68 -9.3 C87.57 -7.78, 94.17 -5.05, 107.16 -0.72" stroke="#1e1e1e" stroke-width="1" fill="none"></path></g></g><mask></mask><g stroke-linecap="round"><g transform="translate(606.721065069396 158.23888619738227) rotate(0 -266.31876132402067 -56.92835552823908)"><path d="M0.61 0.59 C-52.1 -19.11, -227.21 -118.98, -316.08 -118.27 C-404.95 -117.56, -496.67 -15.57, -532.62 4.83 M-0.52 -0.15 C-53.42 -19.63, -228.22 -117.17, -317.02 -116.7 C-405.83 -116.23, -497.69 -17.62, -533.37 2.67" stroke="#1e1e1e" stroke-width="1" fill="none"></path></g><g transform="translate(606.721065069396 158.23888619738227) rotate(0 -266.31876132402067 -56.92835552823908)"><path d="M-519.82 -18.34 C-523.16 -11.57, -528.37 -4.85, -533.37 2.67 M-519.82 -18.34 C-525 -10.49, -528.23 -5.31, -533.37 2.67" stroke="#1e1e1e" stroke-width="1" fill="none"></path></g><g transform="translate(606.721065069396 158.23888619738227) rotate(0 -266.31876132402067 -56.92835552823908)"><path d="M-509.49 -4.71 C-516.11 -2.23, -524.61 0.15, -533.37 2.67 M-509.49 -4.71 C-518.17 -1.39, -524.82 -0.71, -533.37 2.67" stroke="#1e1e1e" stroke-width="1" fill="none"></path></g></g><mask></mask><g transform="translate(277.23963469860064 10) rotate(0 22.700000762939453 10)"><text x="0" y="0" font-family="Virgil, Segoe UI Emoji" font-size="16px" fill="#1e1e1e" text-anchor="start" style="white-space: pre;" direction="ltr" dominant-baseline="text-before-edge">Failed</text></g><g stroke-linecap="round"><g transform="translate(91.94341866550803 164.93633978894013) rotate(0 127.25161823959343 -22.324845305191957)"><path d="M0.21 -0.59 C20.14 -8.24, 77.72 -44.95, 120.06 -45.26 C162.39 -45.58, 231.74 -9.62, 254.21 -2.48 M-1.14 1.71 C18.54 -5.84, 76.44 -43.55, 118.85 -44.05 C161.25 -44.55, 230.55 -8.39, 253.29 -1.29" stroke="#1e1e1e" stroke-width="1" fill="none"></path></g><g transform="translate(91.94341866550803 164.93633978894013) rotate(0 127.25161823959343 -22.324845305191957)"><path d="M228.3 -2.1 C235.84 -2.69, 244.33 -2.08, 253.29 -1.29 M228.3 -2.1 C234.69 -1.28, 243.23 -0.88, 253.29 -1.29" stroke="#1e1e1e" stroke-width="1" fill="none"></path></g><g transform="translate(91.94341866550803 164.93633978894013) rotate(0 127.25161823959343 -22.324845305191957)"><path d="M234.68 -17.97 C240.12 -13.14, 246.44 -7.11, 253.29 -1.29 M234.68 -17.97 C239.33 -12.72, 246.09 -7.89, 253.29 -1.29" stroke="#1e1e1e" stroke-width="1" fill="none"></path></g></g><mask></mask><g transform="translate(196.87019159990996 94.83441215972925) rotate(0 52.70000076293945 10)"><text x="0" y="0" font-family="Virgil, Segoe UI Emoji" font-size="16px" fill="#1e1e1e" text-anchor="start" style="white-space: pre;" direction="ltr" dominant-baseline="text-before-edge">Date Passed</text></g><g stroke-linecap="round"><g transform="translate(632.2046750511499 229.67839117399672) rotate(0 -133.9490718311513 17.85987624415293)"><path d="M-1.19 -1.19 C-25.15 5.01, -98.37 35.08, -142.97 36.62 C-187.57 38.16, -248.09 12.47, -268.78 8.04 M0.38 0.79 C-23.81 6.72, -99.51 33.62, -143.96 34.97 C-188.42 36.32, -245.93 13.37, -266.35 8.89" stroke="#1e1e1e" stroke-width="1" fill="none"></path></g><g transform="translate(632.2046750511499 229.67839117399672) rotate(0 -133.9490718311513 17.85987624415293)"><path d="M-241.41 7.24 C-252.52 7.45, -258.14 6.72, -266.35 8.89 M-241.41 7.24 C-246.2 7.04, -252.44 8.75, -266.35 8.89" stroke="#1e1e1e" stroke-width="1" fill="none"></path></g><g transform="translate(632.2046750511499 229.67839117399672) rotate(0 -133.9490718311513 17.85987624415293)"><path d="M-246.18 23.66 C-255.47 17.92, -259.35 11.2, -266.35 8.89 M-246.18 23.66 C-250 19.71, -255.16 17.7, -266.35 8.89" stroke="#1e1e1e" stroke-width="1" fill="none"></path></g></g><mask></mask><g stroke-linecap="round"><g transform="translate(897.8703341829332 156.00640166686298) rotate(0 -273.4793549885999 -26.789814366230075)"><path d="M-1.05 -0.65 C-45.09 -10.77, -173.01 -61.09, -263.96 -59.73 C-354.91 -58.36, -499.41 -3.38, -546.77 7.52 M0.6 1.63 C-43.67 -8.93, -173.85 -62.22, -265.19 -61.56 C-356.53 -60.89, -500.22 -5.69, -547.43 5.61" stroke="#1e1e1e" stroke-width="1" fill="none"></path></g><g transform="translate(897.8703341829332 156.00640166686298) rotate(0 -273.4793549885999 -26.789814366230075)"><path d="M-527.39 -9.33 C-534.87 -5.53, -539.39 0.54, -547.43 5.61 M-527.39 -9.33 C-535.63 -3.81, -543.06 0.84, -547.43 5.61" stroke="#1e1e1e" stroke-width="1" fill="none"></path></g><g transform="translate(897.8703341829332 156.00640166686298) rotate(0 -273.4793549885999 -26.789814366230075)"><path d="M-522.47 7.05 C-531.68 5.48, -537.8 6.22, -547.43 5.61 M-522.47 7.05 C-532.37 6.48, -541.62 5.1, -547.43 5.61" stroke="#1e1e1e" stroke-width="1" fill="none"></path></g></g><mask></mask><g stroke-linecap="round"><g transform="translate(917.962694957605 227.44590664347652) rotate(0 -275.7118395191187 35.71975248830722)"><path d="M0.91 -0.86 C-38.29 10.93, -143.77 67.89, -235.72 70.38 C-327.67 72.87, -498.02 23.51, -550.77 14.06 M-0.07 1.31 C-39.3 13.24, -144.33 69.57, -236.18 71.36 C-328.04 73.16, -498.49 21.47, -551.19 12.07" stroke="#1e1e1e" stroke-width="1" fill="none"></path></g><g transform="translate(917.962694957605 227.44590664347652) rotate(0 -275.7118395191187 35.71975248830722)"><path d="M-526.37 9.09 C-534.23 11.59, -540.99 11.91, -551.19 12.07 M-526.37 9.09 C-534.46 9.65, -544.06 11.86, -551.19 12.07" stroke="#1e1e1e" stroke-width="1" fill="none"></path></g><g transform="translate(917.962694957605 227.44590664347652) rotate(0 -275.7118395191187 35.71975248830722)"><path d="M-530.27 25.74 C-537.07 23.9, -542.82 19.91, -551.19 12.07 M-530.27 25.74 C-536.86 20.38, -545.08 16.67, -551.19 12.07" stroke="#1e1e1e" stroke-width="1" fill="none"></path></g></g><mask></mask><g transform="translate(624.1543648985944 56.70702044609607) rotate(0 52.70000076293945 10)"><text x="0" y="0" font-family="Virgil, Segoe UI Emoji" font-size="16px" fill="#1e1e1e" text-anchor="start" style="white-space: pre;" direction="ltr" dominant-baseline="text-before-edge">Date Passed</text></g><g transform="translate(185.55676481390856 271.0255353759376) rotate(0 24.70833396911621 10)"><text x="0" y="0" font-family="Virgil, Segoe UI Emoji" font-size="16px" fill="#1e1e1e" text-anchor="start" style="white-space: pre;" direction="ltr" dominant-baseline="text-before-edge">Cancel</text></g><g transform="translate(685.633299650206 268.7930508454165) rotate(0 24.70833396911621 10)"><text x="0" y="0" font-family="Virgil, Segoe UI Emoji" font-size="16px" fill="#1e1e1e" text-anchor="start" style="white-space: pre;" direction="ltr" dominant-baseline="text-before-edge">Cancel</text></g></svg>