<svg version="1.1" xmlns="http://www.w3.org/2000/svg" viewBox="0 0 1161.0032705697145 1026.850523264152" width="1161.0032705697145" height="1026.850523264152">
  <!-- svg-source:excalidraw -->
  
  <defs>
    <style class="style-fonts">
      @font-face {
        font-family: "Virgil";
        src: url("https://excalidraw.com/Virgil.woff2");
      }
      @font-face {
        font-family: "Cascadia";
        src: url("https://excalidraw.com/Cascadia.woff2");
      }
      @font-face {
        font-family: "Assistant";
        src: url("https://excalidraw.com/Assistant-Regular.woff2");
      }
    </style>
    
  </defs>
  <rect x="0" y="0" width="1161.0032705697145" height="1026.850523264152" fill="#ffffff"></rect><g stroke-linecap="round" transform="translate(684.4140036912049 577.0510707518733) rotate(0 233.29463343925477 219.89972625613927)"><path d="M32 0 C161.84 -0.25, 292.29 0.3, 434.59 0 M32 0 C128.23 1.77, 224.02 2.62, 434.59 0 M434.59 0 C456.9 -0.84, 465.84 10.84, 466.59 32 M434.59 0 C454.77 1.47, 466.96 8.5, 466.59 32 M466.59 32 C467.17 179.03, 467.35 324.36, 466.59 407.8 M466.59 32 C468.16 120.31, 467.08 208.51, 466.59 407.8 M466.59 407.8 C466.93 430.27, 454.83 437.86, 434.59 439.8 M466.59 407.8 C467.6 430.9, 457.73 441.84, 434.59 439.8 M434.59 439.8 C319.75 436.63, 206.13 436.66, 32 439.8 M434.59 439.8 C322.79 440.38, 209.56 440.09, 32 439.8 M32 439.8 C12.02 440.5, 1.17 430.91, 0 407.8 M32 439.8 C9.84 439.18, -1.65 428.24, 0 407.8 M0 407.8 C-0.54 292.85, 0.88 177.47, 0 32 M0 407.8 C2.5 268.49, 1.92 128.97, 0 32 M0 32 C0.33 10.74, 11.06 0.97, 32 0 M0 32 C0.11 12.65, 10.84 1.97, 32 0" stroke="#1e1e1e" stroke-width="1" fill="none"></path></g><g stroke-linecap="round"><g transform="translate(1106.353579959332 666.3504519726412) rotate(0 22.324845305191047 0)"><path d="M-0.43 0.19 C7.01 0.14, 37.01 -0.22, 44.48 -0.34 M0.35 -0.19 C7.71 -0.17, 36.71 0.19, 43.97 0.18" stroke="#1e1e1e" stroke-width="1" fill="none"></path></g></g><mask></mask><g stroke-linecap="round" transform="translate(10 15.581211326299126) rotate(0 233.29463343925477 219.89972625613927)"><path d="M32 0 C162.14 -1.14, 292.52 0.61, 434.59 0 M32 0 C121.5 -2.54, 210.61 -1.85, 434.59 0 M434.59 0 C456.56 0.81, 467.56 11.95, 466.59 32 M434.59 0 C457.09 1.33, 466.81 11.48, 466.59 32 M466.59 32 C466.19 126.64, 465.96 220.09, 466.59 407.8 M466.59 32 C466.91 158.12, 466.59 284.85, 466.59 407.8 M466.59 407.8 C466.6 429.17, 457.7 438.14, 434.59 439.8 M466.59 407.8 C465.67 429.67, 454.15 438.29, 434.59 439.8 M434.59 439.8 C277.68 438.06, 122.42 437.69, 32 439.8 M434.59 439.8 C279.98 438.95, 124.5 438.95, 32 439.8 M32 439.8 C10.77 438.56, 0.34 430.84, 0 407.8 M32 439.8 C8.75 437.86, 1.57 428.59, 0 407.8 M0 407.8 C-2.73 262.61, -1.84 117.82, 0 32 M0 407.8 C-1.25 302.85, -0.54 197.11, 0 32 M0 32 C1.5 11.81, 9.02 0.93, 32 0 M0 32 C0.81 12.02, 12.07 0.25, 32 0" stroke="#1e1e1e" stroke-width="1" fill="none"></path></g><g stroke-linecap="round"><g transform="translate(14.464969061038573 104.88059254706604) rotate(0 232.1783911739949 0)"><path d="M0.76 0.23 C78.27 0, 387.85 -1.09, 465.26 -1.08 M-0.3 -0.7 C77.12 -0.84, 387.25 -0.51, 464.79 -0.1" stroke="#1e1e1e" stroke-width="1" fill="none"></path></g></g><mask></mask><g transform="translate(177.43633978893922 42.37102569252875) rotate(0 70.2750015258789 22.5)"><text x="0" y="0" font-family="Virgil, Segoe UI Emoji" font-size="36px" fill="#1e1e1e" text-anchor="start" style="white-space: pre;" direction="ltr" dominant-baseline="text-before-edge">Context</text></g><g stroke-linecap="round"><g transform="translate(16.697453591557405 194.17997376783296) rotate(0 226.5971798476969 1.1162422652596433)"><path d="M-0.27 0.2 C75.19 0.51, 377.94 1.69, 453.7 1.93 M1.79 -0.74 C77.05 -0.26, 377.64 2.74, 453.01 3.31" stroke="#1e1e1e" stroke-width="1" fill="none"></path></g></g><mask></mask><g transform="translate(41.254783427268194 131.67040691329566) rotate(0 132.6999969482422 22.5)"><text x="0" y="0" font-family="Virgil, Segoe UI Emoji" font-size="36px" fill="#1e1e1e" text-anchor="start" style="white-space: pre;" direction="ltr" dominant-baseline="text-before-edge">- currentState</text></g><g transform="translate(36.789814366230075 227.66724172562044) rotate(0 169.85833740234375 45)"><text x="0" y="0" font-family="Virgil, Segoe UI Emoji" font-size="36px" fill="#1e1e1e" text-anchor="start" style="white-space: pre;" direction="ltr" dominant-baseline="text-before-edge">+ SetState(state)</text><text x="0" y="45" font-family="Virgil, Segoe UI Emoji" font-size="36px" fill="#1e1e1e" text-anchor="start" style="white-space: pre;" direction="ltr" dominant-baseline="text-before-edge">  ...</text></g><g stroke-linecap="round" transform="translate(630.1778673113349 10) rotate(0 233.29463343925477 219.89972625613927)"><path d="M32 0 C128.82 -0.09, 227.18 0.05, 434.59 0 M32 0 C184.95 1.07, 337.72 0.77, 434.59 0 M434.59 0 C456.21 -1.59, 466.59 9.93, 466.59 32 M434.59 0 C457.34 0.47, 466.77 12.19, 466.59 32 M466.59 32 C463.3 175.31, 463.84 316.95, 466.59 407.8 M466.59 32 C468.33 147.4, 468.71 263.76, 466.59 407.8 M466.59 407.8 C468.11 431.07, 456.21 439.67, 434.59 439.8 M466.59 407.8 C465.27 427.78, 457.47 439.92, 434.59 439.8 M434.59 439.8 C284.27 439.47, 132.65 439.3, 32 439.8 M434.59 439.8 C308.55 440.56, 183.74 440.52, 32 439.8 M32 439.8 C12.47 440.95, 1.68 429.28, 0 407.8 M32 439.8 C11.66 440.1, -0.27 430.6, 0 407.8 M0 407.8 C-1.19 308.69, -1.5 207.75, 0 32 M0 407.8 C0.51 287.29, 0.54 167.05, 0 32 M0 32 C-0.54 12.5, 10 -1.41, 32 0 M0 32 C0.8 12.36, 9.01 -0.64, 32 0" stroke="#1e1e1e" stroke-width="1" fill="none"></path></g><g stroke-linecap="round"><g transform="translate(634.6428363723735 99.29938122076783) rotate(0 232.1783911739949 0)"><path d="M-0.73 0.4 C76.62 0.66, 386.32 1.11, 463.78 0.95 M1.09 -0.44 C78.26 -0.44, 385.53 -0.82, 462.54 -0.68" stroke="#1e1e1e" stroke-width="1" fill="none"></path></g></g><mask></mask><g transform="translate(797.6142071002741 36.78981436622962) rotate(0 62.94166564941406 22.5)"><text x="0" y="0" font-family="Virgil, Segoe UI Emoji" font-size="36px" fill="#1e1e1e" text-anchor="start" style="white-space: pre;" direction="ltr" dominant-baseline="text-before-edge">IState</text></g><g transform="translate(661.4326507386036 128.32168011751583) rotate(0 202.9499969482422 45)"><text x="0" y="0" font-family="Virgil, Segoe UI Emoji" font-size="36px" fill="#1e1e1e" text-anchor="start" style="white-space: pre;" direction="ltr" dominant-baseline="text-before-edge">+ EnterState(context)</text><text x="0" y="45" font-family="Virgil, Segoe UI Emoji" font-size="36px" fill="#1e1e1e" text-anchor="start" style="white-space: pre;" direction="ltr" dominant-baseline="text-before-edge">  ... (other behaviour)</text></g><g stroke-linecap="round" transform="translate(662.1714335974516 559.19119450772) rotate(0 233.29463343925477 219.89972625613927)"><path d="M32 0 C140.89 -0.34, 246.48 1.58, 434.59 0 C458.18 -0.5, 465.29 13.37, 466.59 32 C464.6 119.17, 464.11 206.49, 466.59 407.8 C464.12 428.02, 456.18 436.64, 434.59 439.8 C333.24 438.1, 231.14 435.22, 32 439.8 C7.6 438.95, 0.61 428.68, 0 407.8 C-2.45 304.87, -0.01 207.55, 0 32 C-0.81 12.41, 9.96 3.53, 32 0" stroke="none" stroke-width="0" fill="#ffffff"></path><path d="M32 0 C126.21 -1.21, 218.15 -2.51, 434.59 0 M32 0 C151.85 -1.17, 270.96 -0.78, 434.59 0 M434.59 0 C455.32 -1.3, 466.8 8.97, 466.59 32 M434.59 0 C455.63 -0.55, 468.07 11.9, 466.59 32 M466.59 32 C467.18 143.57, 467 256.77, 466.59 407.8 M466.59 32 C464.04 159.3, 465.06 285.64, 466.59 407.8 M466.59 407.8 C466.44 427.16, 454.17 438.58, 434.59 439.8 M466.59 407.8 C465.39 428.86, 456.06 440.43, 434.59 439.8 M434.59 439.8 C319.07 438.64, 201.39 438.48, 32 439.8 M434.59 439.8 C323.29 438, 212.84 438, 32 439.8 M32 439.8 C11.94 438.7, 0.94 427.93, 0 407.8 M32 439.8 C10.15 440.28, 0.91 429.67, 0 407.8 M0 407.8 C2.15 325.13, 1.72 245.59, 0 32 M0 407.8 C-1.61 315.46, -2.18 223.29, 0 32 M0 32 C0.94 11.13, 9.52 0.22, 32 0 M0 32 C1.05 10.06, 11.91 -1.82, 32 0" stroke="#1e1e1e" stroke-width="1" fill="none"></path></g><g stroke-linecap="round"><g transform="translate(666.6364026584902 648.4905757284878) rotate(0 232.1783911739949 0)"><path d="M0.98 -1.18 C78.12 -1.29, 386.83 -0.32, 463.95 -0.04 M0.03 0.81 C76.88 0.85, 385.69 1.88, 462.79 1.48" stroke="#1e1e1e" stroke-width="1" fill="none"></path></g></g><mask></mask><g transform="translate(682.2637943721247 585.9810088739496) rotate(0 215.0500030517578 22.5)"><text x="0" y="0" font-family="Virgil, Segoe UI Emoji" font-size="36px" fill="#1e1e1e" text-anchor="start" style="white-space: pre;" direction="ltr" dominant-baseline="text-before-edge">ConcreteState : IState</text></g><g transform="translate(693.4262170247207 677.5128746252367) rotate(0 202.9499969482422 45)"><text x="0" y="0" font-family="Virgil, Segoe UI Emoji" font-size="36px" fill="#1e1e1e" text-anchor="start" style="white-space: pre;" direction="ltr" dominant-baseline="text-before-edge">+ EnterState(context)</text><text x="0" y="45" font-family="Virgil, Segoe UI Emoji" font-size="36px" fill="#1e1e1e" text-anchor="start" style="white-space: pre;" direction="ltr" dominant-baseline="text-before-edge">  ... (other behaviour)</text></g><g stroke-linecap="round"><g transform="translate(498.9141121837015 92.0217330835294) rotate(0 50.23090193668145 -0.2680238597895368)"><path d="M0.84 -0.17 C17.56 -0.32, 83.09 -0.16, 99.86 -0.16 M-0.18 -1.3 C16.99 -1.89, 85.35 -1.92, 102.25 -2.08" stroke="#1e1e1e" stroke-width="1" fill="none"></path></g><g transform="translate(498.9141121837015 92.0217330835294) rotate(0 50.23090193668145 -0.2680238597895368)"><path d="M78.8 6.58 C84.52 3.18, 91.48 3.61, 102.25 -2.08 M78.8 6.58 C86.6 4.07, 95.51 1.31, 102.25 -2.08" stroke="#1e1e1e" stroke-width="1" fill="none"></path></g><g transform="translate(498.9141121837015 92.0217330835294) rotate(0 50.23090193668145 -0.2680238597895368)"><path d="M78.72 -10.52 C84.56 -9.51, 91.55 -4.67, 102.25 -2.08 M78.72 -10.52 C86.44 -7.3, 95.37 -4.33, 102.25 -2.08" stroke="#1e1e1e" stroke-width="1" fill="none"></path></g></g><mask></mask><g stroke-linecap="round"><g transform="translate(878.4364823719616 544.6800450593446) rotate(0 0 -40.18472154934534)"><path d="M-1.1 -0.77 C-1.15 -14.24, 0.43 -67.31, 0.43 -80.77 M0.52 1.44 C0.28 -11.87, -0.41 -65.74, -0.29 -79.45" stroke="#1e1e1e" stroke-width="1" fill="none"></path></g><g transform="translate(878.4364823719616 544.6800450593446) rotate(0 0 -40.18472154934534)"><path d="M8.35 -55.99 C3.92 -63.85, 1.4 -74.92, -0.29 -79.45 M8.35 -55.99 C6.06 -61.16, 4.56 -65.08, -0.29 -79.45" stroke="#1e1e1e" stroke-width="1" fill="none"></path></g><g transform="translate(878.4364823719616 544.6800450593446) rotate(0 0 -40.18472154934534)"><path d="M-8.75 -55.92 C-6.98 -63.66, -3.3 -74.74, -0.29 -79.45 M-8.75 -55.92 C-7.55 -61.13, -5.56 -65.06, -0.29 -79.45" stroke="#1e1e1e" stroke-width="1" fill="none"></path></g></g><mask></mask></svg>