<svg version="1.1" xmlns="http://www.w3.org/2000/svg" viewBox="0 0 1100.311024163435 259.4687965301009" width="1100.311024163435" height="259.4687965301009">
  <!-- svg-source:excalidraw -->
  
  <defs>
    <style class="style-fonts">
      @font-face {
        font-family: "Virgil";
        src: url("https://excalidraw.com/Virgil.woff2");
      }
      @font-face {
        font-family: "Cascadia";
        src: url("https://excalidraw.com/Cascadia.woff2");
      }
      @font-face {
        font-family: "Assistant";
        src: url("https://excalidraw.com/Assistant-Regular.woff2");
      }
    </style>
    
  </defs>
  <rect x="0" y="0" width="1100.311024163435" height="259.4687965301009" fill="#ffffff"></rect><g stroke-linecap="round" transform="translate(166.12943562315104 17.384500333525466) rotate(0 45.361930620239946 116.04214809828773)"><path d="M22.68 0 C35.44 -2.95, 43.31 1.13, 68.04 0 C86.75 2.63, 92.59 10.15, 90.72 22.68 C92.13 84.87, 89.06 154.39, 90.72 209.4 C90.68 221.66, 80.77 235.16, 68.04 232.08 C50.16 230.94, 34.82 228.92, 22.68 232.08 C8.92 232.08, 1.11 221.02, 0 209.4 C6.79 154.26, -0.05 99.56, 0 22.68 C3.2 5.89, 8.94 -1.16, 22.68 0" stroke="none" stroke-width="0" fill="#ffffff"></path><path d="M22.68 0 C34.09 1.65, 40.98 -0.8, 68.04 0 M22.68 0 C31.11 -0.85, 41.84 -0.32, 68.04 0 M68.04 0 C84.17 0.94, 89.03 7, 90.72 22.68 M68.04 0 C84.99 1.15, 92.41 6.46, 90.72 22.68 M90.72 22.68 C89.27 91.7, 89.46 157.73, 90.72 209.4 M90.72 22.68 C90.48 77.34, 90.03 133.47, 90.72 209.4 M90.72 209.4 C89.34 223.01, 84.88 232.99, 68.04 232.08 M90.72 209.4 C89.96 225.37, 81.52 232.8, 68.04 232.08 M68.04 232.08 C54.65 232.43, 42.03 234.1, 22.68 232.08 M68.04 232.08 C54.23 233.13, 41.34 232.12, 22.68 232.08 M22.68 232.08 C7.42 231.57, 0.28 226.08, 0 209.4 M22.68 232.08 C6 230.24, 1.45 222.42, 0 209.4 M0 209.4 C-1.78 141.08, -1.21 71.81, 0 22.68 M0 209.4 C-1.66 141.27, -1.13 73.58, 0 22.68 M0 22.68 C-0.86 8.72, 5.82 -1.28, 22.68 0 M0 22.68 C1.44 8.5, 5.59 -0.61, 22.68 0" stroke="#1e1e1e" stroke-width="1" fill="none"></path></g><g transform="translate(158.74493528962375 122.87736224105993) rotate(271.4286234895472 57.29999923706055 10)"><text x="0" y="0" font-family="Virgil, Segoe UI Emoji" font-size="16px" fill="#1e1e1e" text-anchor="start" style="white-space: pre;" direction="ltr" dominant-baseline="text-before-edge">User interface</text></g><g stroke-linecap="round" transform="translate(24.76900066705457 59.58164509653852) rotate(0 18.461250833818667 18.461250833818667)"><path d="M21.84 0.03 C25.59 0.6, 30.3 3.68, 32.88 6.87 C35.45 10.07, 37.39 15.27, 37.3 19.19 C37.21 23.12, 35.02 27.54, 32.34 30.42 C29.65 33.29, 25.07 35.87, 21.19 36.45 C17.32 37.02, 12.39 35.86, 9.08 33.9 C5.76 31.93, 2.54 28.3, 1.32 24.66 C0.09 21.01, 0.38 15.68, 1.72 12.02 C3.06 8.36, 5.92 4.72, 9.37 2.72 C12.82 0.72, 20.05 0.28, 22.43 0.03 C24.81 -0.22, 23.73 0.84, 23.66 1.23 M16.94 0.06 C20.66 -0.66, 25.22 0.84, 28.39 3.09 C31.56 5.35, 34.77 9.78, 35.94 13.59 C37.1 17.39, 37.09 22.35, 35.38 25.92 C33.66 29.5, 29.31 33.31, 25.65 35.04 C21.99 36.77, 17.17 37.19, 13.42 36.31 C9.66 35.42, 5.26 32.9, 3.14 29.76 C1.01 26.61, 0.19 21.46, 0.66 17.45 C1.13 13.43, 3.2 8.68, 5.98 5.67 C8.76 2.66, 15.55 0.22, 17.34 -0.62 C19.13 -1.46, 16.74 0.1, 16.74 0.62" stroke="none" stroke-width="0" fill="#ffffff"></path><path d="M14.6 0.14 C18.2 -0.87, 23.39 0.04, 26.94 1.97 C30.49 3.89, 34.3 7.92, 35.88 11.68 C37.45 15.44, 37.73 20.82, 36.39 24.51 C35.04 28.2, 31.2 31.8, 27.81 33.82 C24.41 35.84, 19.77 37.11, 16 36.63 C12.23 36.14, 7.8 33.86, 5.18 30.93 C2.55 27.99, 0.46 22.94, 0.25 19.01 C0.04 15.08, 1.38 10.41, 3.92 7.33 C6.45 4.25, 13.37 1.75, 15.45 0.53 C17.54 -0.69, 16.43 -0.17, 16.42 0.02 M16.52 0.28 C20.22 -0.33, 26.18 0.51, 29.37 2.74 C32.55 4.96, 34.7 9.66, 35.65 13.64 C36.59 17.61, 36.59 22.98, 35.03 26.58 C33.48 30.18, 29.9 33.64, 26.29 35.22 C22.69 36.8, 17.25 36.97, 13.39 36.06 C9.54 35.16, 5.43 32.94, 3.18 29.79 C0.93 26.65, -0.49 21.17, -0.11 17.17 C0.28 13.16, 2.78 8.64, 5.47 5.77 C8.16 2.9, 14.22 0.75, 16.03 -0.04 C17.85 -0.83, 16.24 0.73, 16.34 1.03" stroke="#1e1e1e" stroke-width="1" fill="none"></path></g><g stroke-linecap="round" transform="translate(10 100.72386124047716) rotate(0 31.120394262722584 18.98871514335633)"><path d="M9.49 0 C21.89 1.67, 37.83 -2.66, 52.75 0 C58.74 0.26, 59.3 0.56, 62.24 9.49 C64.37 11.63, 60.39 20.24, 62.24 28.48 C61.53 34.44, 57.12 39.52, 52.75 37.98 C38.18 38.92, 26.76 40.11, 9.49 37.98 C6.12 41.04, -1.4 31.53, 0 28.48 C-0.61 22.12, -1.88 19.51, 0 9.49 C-2.16 3.18, 3.77 -3.56, 9.49 0" stroke="none" stroke-width="0" fill="#ffffff"></path><path d="M9.49 0 C22.38 1.72, 33.18 1.77, 52.75 0 M9.49 0 C23.64 0.64, 38.54 1.22, 52.75 0 M52.75 0 C57.14 1.6, 63.36 1.5, 62.24 9.49 M52.75 0 C59.61 -2.19, 61.42 2.65, 62.24 9.49 M62.24 9.49 C61.77 14.94, 61.48 20.45, 62.24 28.48 M62.24 9.49 C61.98 16.05, 61.86 22.91, 62.24 28.48 M62.24 28.48 C60.67 34.55, 57.91 36.69, 52.75 37.98 M62.24 28.48 C64.04 36.07, 60.74 36.45, 52.75 37.98 M52.75 37.98 C37.96 37.41, 26.67 37.88, 9.49 37.98 M52.75 37.98 C41.92 39.01, 32.72 38.57, 9.49 37.98 M9.49 37.98 C1.44 39.45, 0.26 33.78, 0 28.48 M9.49 37.98 C1.31 35.74, 1.71 32.88, 0 28.48 M0 28.48 C0.68 22.48, 0.52 14.29, 0 9.49 M0 28.48 C-1 23.48, -0.24 18.26, 0 9.49 M0 9.49 C-1.23 3.1, 4.73 1.77, 9.49 0 M0 9.49 C1.81 3.99, 5.36 1, 9.49 0" stroke="#1e1e1e" stroke-width="1" fill="none"></path></g><g stroke-linecap="round"><g transform="translate(91.22950366880104 116.54779052660797) rotate(0 26.90067978642128 0)"><path d="M0.78 0.6 C9.92 0.63, 44.91 0.58, 53.94 0.32 M-0.26 -0.13 C8.8 -0.48, 43.89 -1.64, 53.06 -1.64" stroke="#1e1e1e" stroke-width="1" fill="none"></path></g><g transform="translate(91.22950366880104 116.54779052660797) rotate(0 26.90067978642128 0)"><path d="M29.73 7.35 C36.06 5.37, 40.92 4.98, 53.06 -1.64 M29.73 7.35 C35.32 6.11, 40.59 4.15, 53.06 -1.64" stroke="#1e1e1e" stroke-width="1" fill="none"></path></g><g transform="translate(91.22950366880104 116.54779052660797) rotate(0 26.90067978642128 0)"><path d="M29.41 -9.75 C35.83 -7.82, 40.76 -4.31, 53.06 -1.64 M29.41 -9.75 C35.15 -7.22, 40.49 -5.41, 53.06 -1.64" stroke="#1e1e1e" stroke-width="1" fill="none"></path></g></g><mask></mask><g stroke-linecap="round"><g transform="translate(275.8420120069868 117.16811560043516) rotate(0 24.790822548270626 0.34229978021267016)"><path d="M0.08 0.2 C8.41 0.26, 41.31 0.74, 49.58 0.83 M-0.55 -0.17 C7.74 -0.05, 40.82 -0.32, 49.15 -0.06" stroke="#1e1e1e" stroke-width="1" fill="none"></path></g><g transform="translate(275.8420120069868 117.16811560043516) rotate(0 24.790822548270626 0.34229978021267016)"><path d="M25.78 8.21 C31.42 6.31, 36.64 4.71, 49.15 -0.06 M25.78 8.21 C32.6 5.68, 40.32 3.13, 49.15 -0.06" stroke="#1e1e1e" stroke-width="1" fill="none"></path></g><g transform="translate(275.8420120069868 117.16811560043516) rotate(0 24.790822548270626 0.34229978021267016)"><path d="M25.93 -8.75 C31.62 -6.79, 36.8 -4.54, 49.15 -0.06 M25.93 -8.75 C32.64 -5.99, 40.31 -3.25, 49.15 -0.06" stroke="#1e1e1e" stroke-width="1" fill="none"></path></g></g><mask></mask><g stroke-linecap="round" transform="translate(340.19265777058445 14.219714476299487) rotate(0 130.8111487653432 116.04214809828773)"><path d="M32 0 C78.57 -2.83, 125.67 2.05, 229.62 0 C248.7 -0.9, 264.38 7.84, 261.62 32 C263 85.06, 258.63 134.3, 261.62 200.08 C262.34 219.29, 250.34 234.47, 229.62 232.08 C155.59 232.32, 83.17 229.36, 32 232.08 C9.68 233.03, -3.21 220.31, 0 200.08 C-2.9 150.92, -0.53 109.6, 0 32 C1.22 9.26, 8.39 1.23, 32 0" stroke="none" stroke-width="0" fill="#ffffff"></path><path d="M32 0 C106.45 -1.13, 176.76 -2.71, 229.62 0 M32 0 C102.29 1.21, 172.71 2.21, 229.62 0 M229.62 0 C251.18 -0.1, 259.64 8.88, 261.62 32 M229.62 0 C249.88 0.25, 261.32 10.93, 261.62 32 M261.62 32 C259.96 76.03, 259.48 116.38, 261.62 200.08 M261.62 32 C263.35 81.84, 262.24 131.12, 261.62 200.08 M261.62 200.08 C260.76 220.56, 250.44 232.82, 229.62 232.08 M261.62 200.08 C263.27 221.09, 250.14 229.99, 229.62 232.08 M229.62 232.08 C182.19 231.42, 132.81 232.35, 32 232.08 M229.62 232.08 C160.59 231.74, 93.74 231.7, 32 232.08 M32 232.08 C11.69 232.12, 0.66 222.66, 0 200.08 M32 232.08 C10.06 230.75, -2.24 220.79, 0 200.08 M0 200.08 C-0.39 152.83, 1.86 106.81, 0 32 M0 200.08 C0.49 148.58, -0.8 95.37, 0 32 M0 32 C-0.24 12.51, 8.93 1.65, 32 0 M0 32 C-2.08 10.44, 11.51 -2.2, 32 0" stroke="#1e1e1e" stroke-width="1" fill="none"></path></g><g transform="translate(356.9520161225364 113.9264190452277) rotate(271.4286234895472 30.375 10)"><text x="0" y="0" font-family="Virgil, Segoe UI Emoji" font-size="16px" fill="#1e1e1e" text-anchor="start" style="white-space: pre;" direction="ltr" dominant-baseline="text-before-edge">UI logic</text></g><g transform="translate(508.9812368226385 46.922501667635515) rotate(0 15.183333396911621 10)"><text x="0" y="0" font-family="Virgil, Segoe UI Emoji" font-size="16px" fill="#1e1e1e" text-anchor="start" style="white-space: pre;" direction="ltr" dominant-baseline="text-before-edge">view</text></g><g transform="translate(512.3183033564746 120.26186257458812) rotate(0 24.28333282470703 10)"><text x="0" y="0" font-family="Virgil, Segoe UI Emoji" font-size="16px" fill="#1e1e1e" text-anchor="start" style="white-space: pre;" direction="ltr" dominant-baseline="text-before-edge">submit</text></g><g stroke-linecap="round"><g transform="translate(458.5169437836312 208.87586657691736) rotate(0 18.98871514335633 -0.5274643095376632)"><path d="M0.45 -0.07 C6.61 -0.15, 31.22 -0.83, 37.46 -0.96 M0.02 -0.58 C6.3 -0.8, 32.19 -1.67, 38.43 -1.88" stroke="#1e1e1e" stroke-width="1" fill="none"></path></g><g transform="translate(458.5169437836312 208.87586657691736) rotate(0 18.98871514335633 -0.5274643095376632)"><path d="M20.82 5.22 C27.7 1.45, 34.94 -0.6, 38.43 -1.88 M20.82 5.22 C26.92 3.15, 32.39 0.66, 38.43 -1.88" stroke="#1e1e1e" stroke-width="1" fill="none"></path></g><g transform="translate(458.5169437836312 208.87586657691736) rotate(0 18.98871514335633 -0.5274643095376632)"><path d="M20.37 -7.77 C27.38 -6.4, 34.8 -3.31, 38.43 -1.88 M20.37 -7.77 C26.64 -5.56, 32.26 -3.76, 38.43 -1.88" stroke="#1e1e1e" stroke-width="1" fill="none"></path></g></g><mask></mask><g transform="translate(518.6478750709257 199.3815090052385) rotate(0 23.575000762939453 10)"><text x="0" y="0" font-family="Virgil, Segoe UI Emoji" font-size="16px" fill="#1e1e1e" text-anchor="start" style="white-space: pre;" direction="ltr" dominant-baseline="text-before-edge">cancel</text></g><g stroke-linecap="round" transform="translate(680.9346017319203 11.054928619074417) rotate(0 45.361930620239946 116.04214809828773)"><path d="M22.68 0 C35.6 -1.11, 41.07 -0.13, 68.04 0 C83.31 2.17, 93.16 6.55, 90.72 22.68 C89.26 61.1, 93.91 98.93, 90.72 209.4 C88.62 226.8, 82.33 235.56, 68.04 232.08 C51.64 231.62, 37.77 233.54, 22.68 232.08 C6.04 229.62, 3.47 220.97, 0 209.4 C-3.19 144.41, 1.95 81.33, 0 22.68 C2.38 5.77, 4.11 -1.05, 22.68 0" stroke="none" stroke-width="0" fill="#ffffff"></path><path d="M22.68 0 C35.14 -1.12, 47.11 1.54, 68.04 0 M22.68 0 C32.95 -0.23, 44.99 0.34, 68.04 0 M68.04 0 C81.94 -1.55, 90.74 6.24, 90.72 22.68 M68.04 0 C81.95 -0.43, 91.71 5.54, 90.72 22.68 M90.72 22.68 C90.93 77.47, 92.97 135.8, 90.72 209.4 M90.72 22.68 C92 64.92, 91.39 107.54, 90.72 209.4 M90.72 209.4 C92.48 225.87, 84.09 230.18, 68.04 232.08 M90.72 209.4 C90.18 224.95, 83.44 232.67, 68.04 232.08 M68.04 232.08 C51.73 231.8, 33.34 232.25, 22.68 232.08 M68.04 232.08 C52.79 231.57, 39.09 232.78, 22.68 232.08 M22.68 232.08 C6.25 231.92, 0.92 226.39, 0 209.4 M22.68 232.08 C6.81 232.99, 0.45 223.35, 0 209.4 M0 209.4 C1.99 158.77, 2.26 110, 0 22.68 M0 209.4 C-1.01 146.8, -2.78 85.37, 0 22.68 M0 22.68 C-0.66 9.11, 8.07 -0.59, 22.68 0 M0 22.68 C1.33 7.1, 7.23 -0.83, 22.68 0" stroke="#1e1e1e" stroke-width="1" fill="none"></path></g><g transform="translate(696.8651515719903 109.91189702120391) rotate(271.4286234895472 31.225000381469727 10)"><text x="0" y="0" font-family="Virgil, Segoe UI Emoji" font-size="16px" fill="#1e1e1e" text-anchor="start" style="white-space: pre;" direction="ltr" dominant-baseline="text-before-edge">Context</text></g><g stroke-linecap="round"><g transform="translate(458.10421137609865 131.2366221909133) rotate(0 18.98871514335633 -0.5274643095376632)"><path d="M0.12 -0.51 C6.54 -0.84, 31.78 -1.32, 38.18 -1.5 M-0.48 0.41 C5.92 0.38, 31.36 -0.75, 37.85 -1.03" stroke="#1e1e1e" stroke-width="1" fill="none"></path></g><g transform="translate(458.10421137609865 131.2366221909133) rotate(0 18.98871514335633 -0.5274643095376632)"><path d="M20.29 6.23 C23.5 4.85, 27.75 3.73, 37.85 -1.03 M20.29 6.23 C24.13 5.15, 27.11 3.47, 37.85 -1.03" stroke="#1e1e1e" stroke-width="1" fill="none"></path></g><g transform="translate(458.10421137609865 131.2366221909133) rotate(0 18.98871514335633 -0.5274643095376632)"><path d="M19.74 -6.75 C23.13 -5.08, 27.51 -3.15, 37.85 -1.03 M19.74 -6.75 C23.7 -5.18, 26.79 -4.21, 37.85 -1.03" stroke="#1e1e1e" stroke-width="1" fill="none"></path></g></g><mask></mask><g stroke-linecap="round"><g transform="translate(455.9943541379489 57.391618855638626) rotate(0 18.98871514335633 -0.5274643095376632)"><path d="M0.28 -0.2 C6.64 -0.39, 31.44 -1.2, 37.78 -1.33 M-0.24 -0.78 C6.06 -0.89, 30.85 -0.84, 37.25 -0.77" stroke="#1e1e1e" stroke-width="1" fill="none"></path></g><g transform="translate(455.9943541379489 57.391618855638626) rotate(0 18.98871514335633 -0.5274643095376632)"><path d="M19.37 5.63 C23.16 3.77, 27.15 3.24, 37.25 -0.77 M19.37 5.63 C25.3 3.41, 30.81 1.66, 37.25 -0.77" stroke="#1e1e1e" stroke-width="1" fill="none"></path></g><g transform="translate(455.9943541379489 57.391618855638626) rotate(0 18.98871514335633 -0.5274643095376632)"><path d="M19.44 -7.37 C23.19 -6.23, 27.17 -3.76, 37.25 -0.77 M19.44 -7.37 C25.28 -5.52, 30.78 -3.2, 37.25 -0.77" stroke="#1e1e1e" stroke-width="1" fill="none"></path></g></g><mask></mask><g stroke-linecap="round" transform="translate(877.1513248799338 10) rotate(0 64.35064576359628 25.31828685780829)"><path d="M12.66 0 C52.92 -2.23, 95.6 -0.29, 116.04 0 C127.79 1.67, 125.82 1.17, 128.7 12.66 C126.55 18.03, 131.05 28.04, 128.7 37.98 C125.2 44.79, 127.86 52.31, 116.04 50.64 C94.53 53.9, 71.47 55.55, 12.66 50.64 C1.51 47.95, 1.88 43.92, 0 37.98 C2.54 28.94, 3.57 21.26, 0 12.66 C0.95 6.49, 1.92 1.33, 12.66 0" stroke="none" stroke-width="0" fill="#ffffff"></path><path d="M12.66 0 C40.75 -1.07, 70.62 -1.69, 116.04 0 M12.66 0 C44.86 -0.03, 76.77 0.76, 116.04 0 M116.04 0 C123.96 -1.26, 128.5 3.34, 128.7 12.66 M116.04 0 C123 2.21, 130.81 2.69, 128.7 12.66 M128.7 12.66 C127.2 18.45, 129.72 25.9, 128.7 37.98 M128.7 12.66 C129.04 20.54, 128.48 28.12, 128.7 37.98 M128.7 37.98 C130.28 47.81, 123.06 50.93, 116.04 50.64 M128.7 37.98 C126.45 47.57, 123.7 49.53, 116.04 50.64 M116.04 50.64 C95.55 50.7, 70.26 52.81, 12.66 50.64 M116.04 50.64 C76.42 50.97, 38.47 52.09, 12.66 50.64 M12.66 50.64 C4.94 49.71, -0.64 45.34, 0 37.98 M12.66 50.64 C5.35 52.04, 1.59 48.44, 0 37.98 M0 37.98 C-1.9 31.35, 1.54 25.74, 0 12.66 M0 37.98 C0.29 27.06, -0.79 17.88, 0 12.66 M0 12.66 C-0.55 2.47, 6.03 -1.69, 12.66 0 M0 12.66 C-0.1 4.37, 2.71 -2.2, 12.66 0" stroke="#1e1e1e" stroke-width="1" fill="none"></path></g><g transform="translate(894.3519691176507 25.318286857807834) rotate(0 47.150001525878906 10)"><text x="47.150001525878906" y="0" font-family="Virgil, Segoe UI Emoji" font-size="16px" fill="#1e1e1e" text-anchor="middle" style="white-space: pre;" direction="ltr" dominant-baseline="text-before-edge">NewState</text></g><g stroke-linecap="round" transform="translate(879.2611821180863 69.07600266821737) rotate(0 64.35064576359628 25.31828685780829)"><path d="M12.66 0 C48.64 -1.65, 86.46 -1.53, 116.04 0 C125.97 1.91, 131.84 5.12, 128.7 12.66 C125.93 19.03, 129.59 24.46, 128.7 37.98 C131.9 44.32, 121.45 49.16, 116.04 50.64 C82.29 47.53, 43.31 51.16, 12.66 50.64 C6.97 47.76, -0.09 45.47, 0 37.98 C-0.55 32.52, 2.55 20.35, 0 12.66 C-1.75 5.38, 1.67 2.44, 12.66 0" stroke="none" stroke-width="0" fill="#ffffff"></path><path d="M12.66 0 C45.39 -1.15, 79.95 -1.33, 116.04 0 M12.66 0 C47.52 -0.06, 82.03 -1.24, 116.04 0 M116.04 0 C123.8 -1.27, 129.86 5.89, 128.7 12.66 M116.04 0 C122.27 0.51, 130.77 6.17, 128.7 12.66 M128.7 12.66 C129.13 17.42, 128.79 26.29, 128.7 37.98 M128.7 12.66 C129.37 21.74, 128.78 30.53, 128.7 37.98 M128.7 37.98 C130.37 45.1, 124.32 50.73, 116.04 50.64 M128.7 37.98 C130.95 46.85, 124.94 48.67, 116.04 50.64 M116.04 50.64 C77.39 51.45, 41.22 50.48, 12.66 50.64 M116.04 50.64 C92.8 50.61, 70.67 50.44, 12.66 50.64 M12.66 50.64 C5.85 52.49, -1.38 46.65, 0 37.98 M12.66 50.64 C3.34 49.86, -1.34 47.21, 0 37.98 M0 37.98 C1.51 30.09, -0.46 24.52, 0 12.66 M0 37.98 C0.54 31.27, 0.08 24.19, 0 12.66 M0 12.66 C-1.57 5, 4.99 -0.83, 12.66 0 M0 12.66 C0.75 2.42, 5.04 -0.38, 12.66 0" stroke="#1e1e1e" stroke-width="1" fill="none"></path></g><g transform="translate(895.0534935310961 84.3942895260252) rotate(0 48.55833435058594 10)"><text x="48.55833435058594" y="0" font-family="Virgil, Segoe UI Emoji" font-size="16px" fill="#1e1e1e" text-anchor="middle" style="white-space: pre;" direction="ltr" dominant-baseline="text-before-edge">ClosedState</text></g><g stroke-linecap="round" transform="translate(882.4259679753122 126.0421480982859) rotate(0 64.35064576359628 25.31828685780829)"><path d="M12.66 0 C37.55 3.94, 56.64 -0.91, 116.04 0 C125.27 -0.65, 127.74 1.18, 128.7 12.66 C130.6 16.95, 125.55 23.39, 128.7 37.98 C131.98 49.86, 121.86 50.86, 116.04 50.64 C91.8 48.75, 70.23 46.42, 12.66 50.64 C1.42 52.03, -3.52 48.83, 0 37.98 C-1.66 34.19, 1.44 26.62, 0 12.66 C-0.05 2.58, 7.16 -1, 12.66 0" stroke="none" stroke-width="0" fill="#ffffff"></path><path d="M12.66 0 C33.13 -0.06, 53.8 2.59, 116.04 0 M12.66 0 C47.63 -0.69, 83.61 -0.05, 116.04 0 M116.04 0 C125.08 1.05, 129.25 3.76, 128.7 12.66 M116.04 0 C123.44 0.46, 127.12 4.23, 128.7 12.66 M128.7 12.66 C130.12 20.19, 127.4 27.98, 128.7 37.98 M128.7 12.66 C128.53 21.8, 129.45 31.3, 128.7 37.98 M128.7 37.98 C128.59 45.43, 126.06 50.43, 116.04 50.64 M128.7 37.98 C130.6 46.74, 122.75 49.01, 116.04 50.64 M116.04 50.64 C75.67 48.46, 34.09 51.37, 12.66 50.64 M116.04 50.64 C91.75 50.92, 69.6 50.6, 12.66 50.64 M12.66 50.64 C3.38 51.83, -1.49 46.75, 0 37.98 M12.66 50.64 C5.88 51.81, 1.21 45.71, 0 37.98 M0 37.98 C1.21 29.09, -0.71 25.12, 0 12.66 M0 37.98 C0.7 30.43, -0.62 24.26, 0 12.66 M0 12.66 C-1.08 3.16, 5.47 1.1, 12.66 0 M0 12.66 C1.55 4.87, 3.85 2.08, 12.66 0" stroke="#1e1e1e" stroke-width="1" fill="none"></path></g><g transform="translate(895.7266145018475 141.36043495609374) rotate(0 51.04999923706055 10)"><text x="51.04999923706055" y="0" font-family="Virgil, Segoe UI Emoji" font-size="16px" fill="#1e1e1e" text-anchor="middle" style="white-space: pre;" direction="ltr" dominant-baseline="text-before-edge">PendingState</text></g><g stroke-linecap="round" transform="translate(884.5358252134611 187.22800800465575) rotate(0 64.35064576359628 25.31828685780829)"><path d="M12.66 0 C48.37 2.51, 86.1 2.85, 116.04 0 C127.14 0.55, 129.32 0.64, 128.7 12.66 C131.12 20.74, 125.91 32.58, 128.7 37.98 C126.63 44.24, 121.6 47.3, 116.04 50.64 C77.8 52.79, 40.43 49.9, 12.66 50.64 C6.6 48.79, -2.17 43.15, 0 37.98 C0.34 33.6, 0.06 24.08, 0 12.66 C-1.31 1, 5.38 -0.16, 12.66 0" stroke="none" stroke-width="0" fill="#ffffff"></path><path d="M12.66 0 C51.65 1.7, 93.62 1.11, 116.04 0 M12.66 0 C47.53 -1.16, 84.57 -0.56, 116.04 0 M116.04 0 C124.88 1.53, 128.34 4.63, 128.7 12.66 M116.04 0 C126.58 0.14, 126.51 3.98, 128.7 12.66 M128.7 12.66 C128.78 18.46, 128.51 26.18, 128.7 37.98 M128.7 12.66 C128.02 22.74, 129.03 31.23, 128.7 37.98 M128.7 37.98 C126.98 45.66, 124.82 48.85, 116.04 50.64 M128.7 37.98 C126.57 45.87, 123.34 49.28, 116.04 50.64 M116.04 50.64 C83.66 51.29, 52.13 49.77, 12.66 50.64 M116.04 50.64 C91.72 51.18, 66.61 50.03, 12.66 50.64 M12.66 50.64 C6.03 52.62, 1.88 46.02, 0 37.98 M12.66 50.64 C4.17 48.89, 0.26 47.71, 0 37.98 M0 37.98 C-0.44 29.59, 0.73 19.39, 0 12.66 M0 37.98 C1.02 29.38, 0.49 23.72, 0 12.66 M0 12.66 C0.7 6.08, 2.25 1.54, 12.66 0 M0 12.66 C-1.53 2.26, 2.35 2.03, 12.66 0" stroke="#1e1e1e" stroke-width="1" fill="none"></path></g><g transform="translate(897.7698060905823 202.54629486246358) rotate(0 51.11666488647461 10)"><text x="51.11666488647461" y="0" font-family="Virgil, Segoe UI Emoji" font-size="16px" fill="#1e1e1e" text-anchor="middle" style="white-space: pre;" direction="ltr" dominant-baseline="text-before-edge">BookedState</text></g><g stroke-linecap="round"><g transform="translate(784.3176064013041 37.42814409595758) rotate(0 37.977430286712206 -1.0549286190753264)"><path d="M-0.08 0.65 C12.78 0.17, 63.5 -1.92, 76.22 -2.5 M-1.58 -0.06 C11.22 -0.4, 62.54 -0.87, 75.41 -1.16" stroke="#1e1e1e" stroke-width="1" fill="none"></path></g><g transform="translate(784.3176064013041 37.42814409595758) rotate(0 37.977430286712206 -1.0549286190753264)"><path d="M52.05 7.74 C58.35 6.2, 61.87 4.25, 75.41 -1.16 M52.05 7.74 C58.61 4.63, 63.27 2.56, 75.41 -1.16" stroke="#1e1e1e" stroke-width="1" fill="none"></path></g><g transform="translate(784.3176064013041 37.42814409595758) rotate(0 37.977430286712206 -1.0549286190753264)"><path d="M51.79 -9.35 C58.21 -7.05, 61.79 -5.17, 75.41 -1.16 M51.79 -9.35 C58.39 -8.31, 63.11 -6.21, 75.41 -1.16" stroke="#1e1e1e" stroke-width="1" fill="none"></path></g></g><mask></mask><g stroke-linecap="round"><g transform="translate(615.5290273492483 117.6027191456833) rotate(0 28.483072715034268 -0.5274643095376632)"><path d="M1.15 -0.26 C10.67 -0.35, 46.84 -0.01, 56.1 -0.27 M0.29 -1.45 C10.28 -1.89, 49.1 -2.08, 58.35 -1.98" stroke="#1e1e1e" stroke-width="1" fill="none"></path></g><g transform="translate(615.5290273492483 117.6027191456833) rotate(0 28.483072715034268 -0.5274643095376632)"><path d="M34.85 6.55 C39.38 3.07, 46.1 2.27, 58.35 -1.98 M34.85 6.55 C39.98 4.67, 45.86 1.5, 58.35 -1.98" stroke="#1e1e1e" stroke-width="1" fill="none"></path></g><g transform="translate(615.5290273492483 117.6027191456833) rotate(0 28.483072715034268 -0.5274643095376632)"><path d="M34.87 -10.55 C39.43 -10.41, 46.15 -7.58, 58.35 -1.98 M34.87 -10.55 C39.97 -8.36, 45.83 -7.45, 58.35 -1.98" stroke="#1e1e1e" stroke-width="1" fill="none"></path></g></g><mask></mask><g stroke-linecap="round"><g transform="translate(1016.4019025978796 35.318286857806925) rotate(0 13.186607738442035 32.702787191335574)"><path d="M1.09 1.16 C5.57 6.21, 26.45 19.77, 27.14 30.29 C27.83 40.81, 8.76 58.49, 5.22 64.3 M0.21 0.72 C4.57 5.95, 25.89 20.95, 26.59 31.67 C27.3 42.39, 7.78 59.3, 4.43 65.03" stroke="#1e1e1e" stroke-width="1" fill="none"></path></g><g transform="translate(1016.4019025978796 35.318286857806925) rotate(0 13.186607738442035 32.702787191335574)"><path d="M11.29 45.87 C11.01 53.37, 6.37 58.16, 4.43 65.03 M11.29 45.87 C9.52 50.59, 7.68 54.09, 4.43 65.03" stroke="#1e1e1e" stroke-width="1" fill="none"></path></g><g transform="translate(1016.4019025978796 35.318286857806925) rotate(0 13.186607738442035 32.702787191335574)"><path d="M22 54.76 C18.28 59.5, 10.19 61.44, 4.43 65.03 M22 54.76 C17.96 57.61, 13.9 59.27, 4.43 65.03" stroke="#1e1e1e" stroke-width="1" fill="none"></path></g></g><mask></mask><g stroke-linecap="round"><g transform="translate(1022.7314743123334 33.20842961965627) rotate(0 18.461250833817303 59.60346697775685)"><path d="M-0.84 -0.85 C6.62 8.89, 45.48 39.47, 44.48 59.32 C43.49 79.16, 1.71 108.39, -6.81 118.22 M0.92 1.32 C8.26 11.12, 44.99 40.81, 43.63 60.43 C42.26 80.04, 1 109.27, -7.27 119.02" stroke="#1e1e1e" stroke-width="1" fill="none"></path></g><g transform="translate(1022.7314743123334 33.20842961965627) rotate(0 18.461250833817303 59.60346697775685)"><path d="M4.21 96.82 C-0.26 103.24, -3.41 110.11, -7.27 119.02 M4.21 96.82 C1.33 101.53, -0.71 105.41, -7.27 119.02" stroke="#1e1e1e" stroke-width="1" fill="none"></path></g><g transform="translate(1022.7314743123334 33.20842961965627) rotate(0 18.461250833817303 59.60346697775685)"><path d="M15.8 109.4 C8 112.22, 1.61 115.57, -7.27 119.02 M15.8 109.4 C10.31 111.28, 5.75 112.42, -7.27 119.02" stroke="#1e1e1e" stroke-width="1" fill="none"></path></g></g><mask></mask><g stroke-linecap="round"><g transform="translate(1024.8413315504822 34.2633582387316) rotate(0 32.70278719133603 89.14146831186645)"><path d="M-0.12 -0.67 C10.92 10.21, 64.69 36.37, 65.46 66.38 C66.23 96.39, 14.74 160.61, 4.51 179.41 M-1.64 1.59 C9.31 13.19, 63.62 38.53, 64.54 67.87 C65.47 97.22, 13.95 159.45, 3.9 177.66" stroke="#1e1e1e" stroke-width="1" fill="none"></path></g><g transform="translate(1024.8413315504822 34.2633582387316) rotate(0 32.70278719133603 89.14146831186645)"><path d="M9.97 153.4 C7.62 159.25, 7.17 165.4, 3.9 177.66 M9.97 153.4 C8.29 163.45, 4.47 172.6, 3.9 177.66" stroke="#1e1e1e" stroke-width="1" fill="none"></path></g><g transform="translate(1024.8413315504822 34.2633582387316) rotate(0 32.70278719133603 89.14146831186645)"><path d="M24.14 162.98 C18.34 166.54, 14.53 170.42, 3.9 177.66 M24.14 162.98 C16.89 169.36, 7.49 174.75, 3.9 177.66" stroke="#1e1e1e" stroke-width="1" fill="none"></path></g></g><mask></mask><g transform="translate(100.72386124047989 78.57036023989622) rotate(0 18.483333587646484 10)"><text x="0" y="0" font-family="Virgil, Segoe UI Emoji" font-size="16px" fill="#1e1e1e" text-anchor="start" style="white-space: pre;" direction="ltr" dominant-baseline="text-before-edge">input</text></g></svg>