<svg version="1.1" xmlns="http://www.w3.org/2000/svg" viewBox="0 0 651.4210137785662 184.34350994476245" width="651.4210137785662" height="184.34350994476245">
  <!-- svg-source:excalidraw -->
  
  <defs>
    <style class="style-fonts">
      @font-face {
        font-family: "Virgil";
        src: url("https://excalidraw.com/Virgil.woff2");
      }
      @font-face {
        font-family: "Cascadia";
        src: url("https://excalidraw.com/Cascadia.woff2");
      }
      @font-face {
        font-family: "Assistant";
        src: url("https://excalidraw.com/Assistant-Regular.woff2");
      }
    </style>
    
  </defs>
  <rect x="0" y="0" width="651.4210137785662" height="184.34350994476245" fill="#ffffff"></rect><g stroke-linecap="round" transform="translate(354.51828802123305 12.075825616953807) rotate(0 101.20249425598047 45.614656292818836)"><path d="M22.81 0 C69.11 0, 115.41 0, 179.6 0 M22.81 0 C62.4 0, 101.99 0, 179.6 0 M179.6 0 C194.8 0, 202.4 7.6, 202.4 22.81 M179.6 0 C194.8 0, 202.4 7.6, 202.4 22.81 M202.4 22.81 C202.4 33.72, 202.4 44.62, 202.4 68.42 M202.4 22.81 C202.4 36.81, 202.4 50.81, 202.4 68.42 M202.4 68.42 C202.4 83.63, 194.8 91.23, 179.6 91.23 M202.4 68.42 C202.4 83.63, 194.8 91.23, 179.6 91.23 M179.6 91.23 C131.54 91.23, 83.49 91.23, 22.81 91.23 M179.6 91.23 C147.13 91.23, 114.65 91.23, 22.81 91.23 M22.81 91.23 C7.6 91.23, 0 83.63, 0 68.42 M22.81 91.23 C7.6 91.23, 0 83.63, 0 68.42 M0 68.42 C0 55.19, 0 41.97, 0 22.81 M0 68.42 C0 57.6, 0 46.78, 0 22.81 M0 22.81 C0 7.6, 7.6 0, 22.81 0 M0 22.81 C0 7.6, 7.6 0, 22.81 0" stroke="#1e1e1e" stroke-width="1" fill="none"></path></g><g transform="translate(412.53744792662746 40.19048190977264) rotate(0 43.18333435058594 17.5)"><text x="43.18333435058594" y="0" font-family="Virgil, Segoe UI Emoji" font-size="28px" fill="#1e1e1e" text-anchor="middle" style="white-space: pre;" direction="ltr" dominant-baseline="text-before-edge">Server</text></g><g stroke-linecap="round" transform="translate(10 10) rotate(0 101.02404470995316 47.02843460635768)"><path d="M23.51 0 C78.81 0, 134.1 0, 178.53 0 M23.51 0 C83.79 0, 144.06 0, 178.53 0 M178.53 0 C194.21 0, 202.05 7.84, 202.05 23.51 M178.53 0 C194.21 0, 202.05 7.84, 202.05 23.51 M202.05 23.51 C202.05 34.97, 202.05 46.42, 202.05 70.54 M202.05 23.51 C202.05 41.52, 202.05 59.53, 202.05 70.54 M202.05 70.54 C202.05 86.22, 194.21 94.06, 178.53 94.06 M202.05 70.54 C202.05 86.22, 194.21 94.06, 178.53 94.06 M178.53 94.06 C120.25 94.06, 61.96 94.06, 23.51 94.06 M178.53 94.06 C137.2 94.06, 95.87 94.06, 23.51 94.06 M23.51 94.06 C7.84 94.06, 0 86.22, 0 70.54 M23.51 94.06 C7.84 94.06, 0 86.22, 0 70.54 M0 70.54 C0 55.06, 0 39.57, 0 23.51 M0 70.54 C0 52.19, 0 33.84, 0 23.51 M0 23.51 C0 7.84, 7.84 0, 23.51 0 M0 23.51 C0 7.84, 7.84 0, 23.51 0" stroke="#1e1e1e" stroke-width="1" fill="none"></path></g><g transform="translate(73.14904470995316 39.52843460635722) rotate(0 37.875 17.5)"><text x="37.875" y="0" font-family="Virgil, Segoe UI Emoji" font-size="28px" fill="#1e1e1e" text-anchor="middle" style="white-space: pre;" direction="ltr" dominant-baseline="text-before-edge">Client</text></g><g stroke-linecap="round"><g transform="translate(354.17846956356425 44.13915993646697) rotate(0 -72.11026639641477 -0.34835877486193567)"><path d="M0 0 C-24.04 -0.12, -120.18 -0.58, -144.22 -0.7 M0 0 C-24.04 -0.12, -120.18 -0.58, -144.22 -0.7" stroke="#1e1e1e" stroke-width="1" fill="none"></path></g><g transform="translate(354.17846956356425 44.13915993646697) rotate(0 -72.11026639641477 -0.34835877486193567)"><path d="M-115.98 -10.82 C-124.89 -7.63, -133.8 -4.43, -144.22 -0.7 M-115.98 -10.82 C-126.94 -6.89, -137.91 -2.96, -144.22 -0.7" stroke="#1e1e1e" stroke-width="1" fill="none"></path></g><g transform="translate(354.17846956356425 44.13915993646697) rotate(0 -72.11026639641477 -0.34835877486193567)"><path d="M-116.08 9.7 C-124.96 6.42, -133.84 3.14, -144.22 -0.7 M-116.08 9.7 C-127.01 5.66, -137.93 1.63, -144.22 -0.7" stroke="#1e1e1e" stroke-width="1" fill="none"></path></g></g><mask></mask><g stroke-linecap="round"><g transform="translate(216.92511226797296 88.27950543107454) rotate(0 68.97503742265758 -0.8202874807275293)"><path d="M0 0 C22.99 -0.27, 114.96 -1.37, 137.95 -1.64 M0 0 C22.99 -0.27, 114.96 -1.37, 137.95 -1.64" stroke="#1e1e1e" stroke-width="1" fill="none"></path></g><g transform="translate(216.92511226797296 88.27950543107454) rotate(0 68.97503742265758 -0.8202874807275293)"><path d="M109.88 8.95 C116.62 6.41, 123.35 3.87, 137.95 -1.64 M109.88 8.95 C116.03 6.63, 122.18 4.31, 137.95 -1.64" stroke="#1e1e1e" stroke-width="1" fill="none"></path></g><g transform="translate(216.92511226797296 88.27950543107454) rotate(0 68.97503742265758 -0.8202874807275293)"><path d="M109.64 -11.57 C116.43 -9.18, 123.22 -6.8, 137.95 -1.64 M109.64 -11.57 C115.84 -9.39, 122.04 -7.22, 137.95 -1.64" stroke="#1e1e1e" stroke-width="1" fill="none"></path></g></g><mask></mask><g transform="translate(258.03144770167796 101.26999901381987) rotate(0 34.03333282470703 12.5)"><text x="0" y="0" font-family="Virgil, Segoe UI Emoji" font-size="20px" fill="#1e1e1e" text-anchor="start" style="white-space: pre;" direction="ltr" dominant-baseline="text-before-edge">SignalR</text></g><g transform="translate(51.106335433705226 122.17152550553419) rotate(0 27.758333206176758 12.5)"><text x="0" y="0" font-family="Virgil, Segoe UI Emoji" font-size="20px" fill="#1e1e1e" text-anchor="start" style="white-space: pre;" direction="ltr" dominant-baseline="text-before-edge">Event</text></g><g stroke-linecap="round"><g transform="translate(125.6551132541531 139.58946424862916) rotate(0 66.53652599862437 -12.54091589502832)"><path d="M0 0 C22.18 -4.18, 110.89 -20.9, 133.07 -25.08 M0 0 C22.18 -4.18, 110.89 -20.9, 133.07 -25.08" stroke="#e03131" stroke-width="1" fill="none"></path></g><g transform="translate(125.6551132541531 139.58946424862916) rotate(0 66.53652599862437 -12.54091589502832)"><path d="M107.27 -9.78 C112.56 -12.91, 117.85 -16.05, 133.07 -25.08 M107.27 -9.78 C116.74 -15.4, 126.22 -21.02, 133.07 -25.08" stroke="#e03131" stroke-width="1" fill="none"></path></g><g transform="translate(125.6551132541531 139.58946424862916) rotate(0 66.53652599862437 -12.54091589502832)"><path d="M103.47 -29.94 C109.54 -28.95, 115.61 -27.95, 133.07 -25.08 M103.47 -29.94 C114.34 -28.16, 125.21 -26.37, 133.07 -25.08" stroke="#e03131" stroke-width="1" fill="none"></path></g></g><mask></mask><g stroke-linecap="round"><g transform="translate(338.1539659199166 120.08137285636258) rotate(0 44.58992318232413 12.88927466989071)"><path d="M0 0 C14.86 4.3, 74.32 21.48, 89.18 25.78 M0 0 C14.86 4.3, 74.32 21.48, 89.18 25.78" stroke="#e03131" stroke-width="1" fill="none"></path></g><g transform="translate(338.1539659199166 120.08137285636258) rotate(0 44.58992318232413 12.88927466989071)"><path d="M59.25 27.81 C70.48 27.05, 81.71 26.28, 89.18 25.78 M59.25 27.81 C69.88 27.09, 80.52 26.37, 89.18 25.78" stroke="#e03131" stroke-width="1" fill="none"></path></g><g transform="translate(338.1539659199166 120.08137285636258) rotate(0 44.58992318232413 12.88927466989071)"><path d="M64.95 8.09 C74.04 14.73, 83.13 21.37, 89.18 25.78 M64.95 8.09 C73.56 14.38, 82.17 20.66, 89.18 25.78" stroke="#e03131" stroke-width="1" fill="none"></path></g></g><mask></mask><g transform="translate(437.08785798069835 138.89274669890528) rotate(0 34.93333435058594 12.5)"><text x="0" y="0" font-family="Virgil, Segoe UI Emoji" font-size="20px" fill="#1e1e1e" text-anchor="start" style="white-space: pre;" direction="ltr" dominant-baseline="text-before-edge">Handler</text></g><g transform="translate(569.464192428223 113.81091490884864) rotate(0 27.758333206176758 12.5)"><text x="0" y="0" font-family="Virgil, Segoe UI Emoji" font-size="20px" fill="#1e1e1e" text-anchor="start" style="white-space: pre;" direction="ltr" dominant-baseline="text-before-edge">Event</text></g><g transform="translate(571.5543450773944 149.34350994476245) rotate(0 34.93333435058594 12.5)"><text x="0" y="0" font-family="Virgil, Segoe UI Emoji" font-size="20px" fill="#1e1e1e" text-anchor="start" style="white-space: pre;" direction="ltr" dominant-baseline="text-before-edge">Handler</text></g></svg>