<svg version="1.1" xmlns="http://www.w3.org/2000/svg" viewBox="0 0 1603.333333333333 423.33333333333303" width="1603.333333333333" height="423.33333333333303">
  <!-- svg-source:excalidraw -->
  
  <defs>
    <style class="style-fonts">
      @font-face {
        font-family: "Virgil";
        src: url("https://excalidraw.com/Virgil.woff2");
      }
      @font-face {
        font-family: "Cascadia";
        src: url("https://excalidraw.com/Cascadia.woff2");
      }
      @font-face {
        font-family: "Assistant";
        src: url("https://excalidraw.com/Assistant-Regular.woff2");
      }
    </style>
    
  </defs>
  <rect x="0" y="0" width="1603.333333333333" height="423.33333333333303" fill="#ffffff"></rect><g stroke-linecap="round"><g transform="translate(26.66666666666606 161.66666666666697) rotate(0 650 -3.333333333333485)"><path d="M0 0 C216.67 -1.11, 1083.33 -5.56, 1300 -6.67" stroke="#1e1e1e" stroke-width="1.5" fill="none" stroke-dasharray="1.5 7"></path></g></g><mask></mask><g stroke-linecap="round"><g transform="translate(1343.333333333333 116.66666666666697) rotate(0 0.8333333333334849 45)"><path d="M0 0 C0.28 15, 1.39 75, 1.67 90 M0 0 C0.28 15, 1.39 75, 1.67 90" stroke="#1e1e1e" stroke-width="4" fill="none"></path></g></g><mask></mask><g stroke-linecap="round"><g transform="translate(756.6666666666661 111.66666666666697) rotate(0 -43.33333333333303 46.666666666666515)"><path d="M0 0 C-14.44 15.56, -72.22 77.78, -86.67 93.33 M0 0 C-14.44 15.56, -72.22 77.78, -86.67 93.33" stroke="#1e1e1e" stroke-width="4" fill="none"></path></g></g><mask></mask><g stroke-linecap="round"><g transform="translate(676.6666666666661 116.66666666666697) rotate(0 40 44.166666666666515)"><path d="M0 0 C13.33 14.72, 66.67 73.61, 80 88.33 M0 0 C13.33 14.72, 66.67 73.61, 80 88.33" stroke="#1e1e1e" stroke-width="4" fill="none"></path></g></g><mask></mask><g stroke-linecap="round" transform="translate(161.66666666666606 131.66666666666697) rotate(0 25 25.833333333333485)"><path d="M5.93 9.13 C5.93 9.13, 5.93 9.13, 5.93 9.13 M5.93 9.13 C5.93 9.13, 5.93 9.13, 5.93 9.13 M2.92 36.99 C12.68 25.76, 22.43 14.54, 33.75 1.52 M2.92 36.99 C10.53 28.23, 18.14 19.47, 33.75 1.52 M13.68 48.99 C26.47 34.29, 39.25 19.58, 45.83 12.01 M13.68 48.99 C23.34 37.89, 32.99 26.78, 45.83 12.01 M33.63 50.43 C39.45 43.74, 45.26 37.05, 49.38 32.32 M33.63 50.43 C38.39 44.96, 43.15 39.48, 49.38 32.32" stroke="#ffc9c9" stroke-width="2" fill="none"></path><path d="M50 25.83 C50 27.33, 49.87 28.85, 49.62 30.32 C49.37 31.79, 48.99 33.26, 48.49 34.67 C48 36.07, 47.37 37.46, 46.65 38.75 C45.93 40.04, 45.08 41.29, 44.15 42.44 C43.22 43.58, 42.18 44.66, 41.07 45.62 C39.96 46.58, 38.75 47.46, 37.5 48.21 C36.25 48.95, 34.91 49.6, 33.55 50.11 C32.19 50.62, 30.77 51.01, 29.34 51.27 C27.92 51.53, 26.45 51.67, 25 51.67 C23.55 51.67, 22.08 51.53, 20.66 51.27 C19.23 51.01, 17.81 50.62, 16.45 50.11 C15.09 49.6, 13.75 48.95, 12.5 48.21 C11.25 47.46, 10.04 46.58, 8.93 45.62 C7.82 44.66, 6.78 43.58, 5.85 42.44 C4.92 41.29, 4.07 40.04, 3.35 38.75 C2.63 37.46, 2 36.07, 1.51 34.67 C1.01 33.26, 0.63 31.79, 0.38 30.32 C0.13 28.85, 0 27.33, 0 25.83 C0 24.34, 0.13 22.82, 0.38 21.35 C0.63 19.87, 1.01 18.4, 1.51 17 C2 15.59, 2.63 14.21, 3.35 12.92 C4.07 11.62, 4.92 10.37, 5.85 9.23 C6.78 8.08, 7.82 7.01, 8.93 6.04 C10.04 5.08, 11.25 4.21, 12.5 3.46 C13.75 2.71, 15.09 2.07, 16.45 1.56 C17.81 1.05, 19.23 0.65, 20.66 0.39 C22.08 0.13, 23.55 0, 25 0 C26.45 0, 27.92 0.13, 29.34 0.39 C30.77 0.65, 32.19 1.05, 33.55 1.56 C34.91 2.07, 36.25 2.71, 37.5 3.46 C38.75 4.21, 39.96 5.08, 41.07 6.04 C42.18 7.01, 43.22 8.08, 44.15 9.23 C45.08 10.37, 45.93 11.62, 46.65 12.92 C47.37 14.21, 48 15.59, 48.49 17 C48.99 18.4, 49.37 19.87, 49.62 21.35 C49.87 22.82, 49.94 25.09, 50 25.83 C50.06 26.58, 50.06 25.09, 50 25.83" stroke="#e03131" stroke-width="4" fill="none"></path></g><g stroke-linecap="round" transform="translate(384.9999999999991 132.5000000000009) rotate(0 25 25.833333333333485)"><path d="M5.93 9.13 C5.93 9.13, 5.93 9.13, 5.93 9.13 M5.93 9.13 C5.93 9.13, 5.93 9.13, 5.93 9.13 M2.92 36.99 C12.04 26.49, 21.16 16, 33.75 1.52 M2.92 36.99 C14.88 23.23, 26.83 9.48, 33.75 1.52 M13.68 48.99 C25.51 35.39, 37.34 21.78, 45.83 12.01 M13.68 48.99 C23.9 37.24, 34.12 25.48, 45.83 12.01 M33.63 50.43 C38.39 44.95, 43.16 39.48, 49.38 32.32 M33.63 50.43 C36.82 46.77, 40.01 43.1, 49.38 32.32" stroke="#ffc9c9" stroke-width="2" fill="none"></path><path d="M50 25.83 C50 27.33, 49.87 28.85, 49.62 30.32 C49.37 31.79, 48.99 33.26, 48.49 34.67 C48 36.07, 47.37 37.46, 46.65 38.75 C45.93 40.04, 45.08 41.29, 44.15 42.44 C43.22 43.58, 42.18 44.66, 41.07 45.62 C39.96 46.58, 38.75 47.46, 37.5 48.21 C36.25 48.95, 34.91 49.6, 33.55 50.11 C32.19 50.62, 30.77 51.01, 29.34 51.27 C27.92 51.53, 26.45 51.67, 25 51.67 C23.55 51.67, 22.08 51.53, 20.66 51.27 C19.23 51.01, 17.81 50.62, 16.45 50.11 C15.09 49.6, 13.75 48.95, 12.5 48.21 C11.25 47.46, 10.04 46.58, 8.93 45.62 C7.82 44.66, 6.78 43.58, 5.85 42.44 C4.92 41.29, 4.07 40.04, 3.35 38.75 C2.63 37.46, 2 36.07, 1.51 34.67 C1.01 33.26, 0.63 31.79, 0.38 30.32 C0.13 28.85, 0 27.33, 0 25.83 C0 24.34, 0.13 22.82, 0.38 21.35 C0.63 19.87, 1.01 18.4, 1.51 17 C2 15.59, 2.63 14.21, 3.35 12.92 C4.07 11.62, 4.92 10.37, 5.85 9.23 C6.78 8.08, 7.82 7.01, 8.93 6.04 C10.04 5.08, 11.25 4.21, 12.5 3.46 C13.75 2.71, 15.09 2.07, 16.45 1.56 C17.81 1.05, 19.23 0.65, 20.66 0.39 C22.08 0.13, 23.55 0, 25 0 C26.45 0, 27.92 0.13, 29.34 0.39 C30.77 0.65, 32.19 1.05, 33.55 1.56 C34.91 2.07, 36.25 2.71, 37.5 3.46 C38.75 4.21, 39.96 5.08, 41.07 6.04 C42.18 7.01, 43.22 8.08, 44.15 9.23 C45.08 10.37, 45.93 11.62, 46.65 12.92 C47.37 14.21, 48 15.59, 48.49 17 C48.99 18.4, 49.37 19.87, 49.62 21.35 C49.87 22.82, 49.94 25.09, 50 25.83 C50.06 26.58, 50.06 25.09, 50 25.83" stroke="#e03131" stroke-width="4" fill="none"></path></g><g transform="translate(690 10) rotate(0 45.26041793823242 22.5)"><text x="0" y="0" font-family="Virgil, Segoe UI Emoji" font-size="36px" fill="#1e1e1e" text-anchor="start" style="white-space: pre;" direction="ltr" dominant-baseline="text-before-edge">Error</text></g><g transform="translate(1305 23.33333333333394) rotate(0 30.73958396911621 22.5)"><text x="0" y="0" font-family="Virgil, Segoe UI Emoji" font-size="36px" fill="#1e1e1e" text-anchor="start" style="white-space: pre;" direction="ltr" dominant-baseline="text-before-edge">End</text></g><g transform="translate(380 18.33333333333394) rotate(0 49.89583206176758 22.5)"><text x="0" y="0" font-family="Virgil, Segoe UI Emoji" font-size="36px" fill="#1e1e1e" text-anchor="start" style="white-space: pre;" direction="ltr" dominant-baseline="text-before-edge">Event</text></g><g stroke-linecap="round" transform="translate(10 295) rotate(0 791.6666666666665 59.166666666666515)"><path d="M29.58 0 C392.56 0, 755.53 0, 1553.75 0 M29.58 0 C507.58 0, 985.58 0, 1553.75 0 M1553.75 0 C1573.47 0, 1583.33 9.86, 1583.33 29.58 M1553.75 0 C1573.47 0, 1583.33 9.86, 1583.33 29.58 M1583.33 29.58 C1583.33 46.49, 1583.33 63.4, 1583.33 88.75 M1583.33 29.58 C1583.33 41.5, 1583.33 53.42, 1583.33 88.75 M1583.33 88.75 C1583.33 108.47, 1573.47 118.33, 1553.75 118.33 M1583.33 88.75 C1583.33 108.47, 1573.47 118.33, 1553.75 118.33 M1553.75 118.33 C1151.96 118.33, 750.16 118.33, 29.58 118.33 M1553.75 118.33 C986.44 118.33, 419.14 118.33, 29.58 118.33 M29.58 118.33 C9.86 118.33, 0 108.47, 0 88.75 M29.58 118.33 C9.86 118.33, 0 108.47, 0 88.75 M0 88.75 C0 67.7, 0 46.65, 0 29.58 M0 88.75 C0 66.58, 0 44.41, 0 29.58 M0 29.58 C0 9.86, 9.86 0, 29.58 0 M0 29.58 C0 9.86, 9.86 0, 29.58 0" stroke="#1e1e1e" stroke-width="1" fill="none"></path></g><g transform="translate(40 333.33333333333303) rotate(0 86.23958587646484 22.5)"><text x="0" y="0" font-family="Virgil, Segoe UI Emoji" font-size="36px" fill="#1e1e1e" text-anchor="start" style="white-space: pre;" direction="ltr" dominant-baseline="text-before-edge">IObserver</text></g><g stroke-linecap="round"><g transform="translate(408.33333333333303 203.33333333333394) rotate(0 -0.8333333333334849 56.666666666666515)"><path d="M0 0 C-0.28 18.89, -1.39 94.44, -1.67 113.33 M0 0 C-0.28 18.89, -1.39 94.44, -1.67 113.33" stroke="#1e1e1e" stroke-width="1" fill="none"></path></g><g transform="translate(408.33333333333303 203.33333333333394) rotate(0 -0.8333333333334849 56.666666666666515)"><path d="M-11.51 84.99 C-9.07 92.04, -6.62 99.08, -1.67 113.33 M-11.51 84.99 C-8.49 93.7, -5.47 102.4, -1.67 113.33" stroke="#1e1e1e" stroke-width="1" fill="none"></path></g><g transform="translate(408.33333333333303 203.33333333333394) rotate(0 -0.8333333333334849 56.666666666666515)"><path d="M9.01 85.3 C6.36 92.26, 3.7 99.23, -1.67 113.33 M9.01 85.3 C5.73 93.91, 2.45 102.52, -1.67 113.33" stroke="#1e1e1e" stroke-width="1" fill="none"></path></g></g><mask></mask><g stroke-linecap="round"><g transform="translate(716.6666666666661 190) rotate(0 1.1188379887630617 67.5)"><path d="M0 0 C0.37 22.5, 1.86 112.5, 2.24 135 M0 0 C0.37 22.5, 1.86 112.5, 2.24 135" stroke="#1e1e1e" stroke-width="1" fill="none"></path></g><g transform="translate(716.6666666666661 190) rotate(0 1.1188379887630617 67.5)"><path d="M-8.49 106.98 C-5.38 115.1, -2.27 123.22, 2.24 135 M-8.49 106.98 C-5.82 113.94, -3.16 120.9, 2.24 135" stroke="#1e1e1e" stroke-width="1" fill="none"></path></g><g transform="translate(716.6666666666661 190) rotate(0 1.1188379887630617 67.5)"><path d="M12.03 106.64 C9.19 114.86, 6.35 123.08, 2.24 135 M12.03 106.64 C9.6 113.69, 7.16 120.73, 2.24 135" stroke="#1e1e1e" stroke-width="1" fill="none"></path></g></g><mask></mask><g stroke-linecap="round"><g transform="translate(1343.333333333333 228.33333333333394) rotate(0 0.41629732292085464 51.66666666666697)"><path d="M0 0 C0.14 17.22, 0.69 86.11, 0.83 103.33 M0 0 C0.14 17.22, 0.69 86.11, 0.83 103.33" stroke="#1e1e1e" stroke-width="1" fill="none"></path></g><g transform="translate(1343.333333333333 228.33333333333394) rotate(0 0.41629732292085464 51.66666666666697)"><path d="M-9.65 75.23 C-7.18 81.85, -4.71 88.47, 0.83 103.33 M-9.65 75.23 C-6.01 85.01, -2.36 94.79, 0.83 103.33" stroke="#1e1e1e" stroke-width="1" fill="none"></path></g><g transform="translate(1343.333333333333 228.33333333333394) rotate(0 0.41629732292085464 51.66666666666697)"><path d="M10.87 75.06 C8.5 81.72, 6.14 88.39, 0.83 103.33 M10.87 75.06 C7.37 84.9, 3.88 94.74, 0.83 103.33" stroke="#1e1e1e" stroke-width="1" fill="none"></path></g></g><mask></mask><g transform="translate(340 333.33333333333394) rotate(0 76.625 22.5)"><text x="0" y="0" font-family="Virgil, Segoe UI Emoji" font-size="36px" fill="#1e1e1e" text-anchor="start" style="white-space: pre;" direction="ltr" dominant-baseline="text-before-edge">OnNext()</text></g><g transform="translate(650.041666666667 332.5) rotate(0 80.22916412353516 22.5)"><text x="0" y="0" font-family="Virgil, Segoe UI Emoji" font-size="36px" fill="#1e1e1e" text-anchor="start" style="white-space: pre;" direction="ltr" dominant-baseline="text-before-edge">OnError()</text></g><g transform="translate(1208.1041692097988 342.5) rotate(0 121.51041412353516 22.5)"><text x="0" y="0" font-family="Virgil, Segoe UI Emoji" font-size="36px" fill="#1e1e1e" text-anchor="start" style="white-space: pre;" direction="ltr" dominant-baseline="text-before-edge">OnCompleted()</text></g></svg>