<svg version="1.1" xmlns="http://www.w3.org/2000/svg" viewBox="0 0 2407 455" width="2407" height="455">
  <!-- svg-source:excalidraw -->
  
  <defs>
    <style class="style-fonts">
      @font-face {
        font-family: "Virgil";
        src: url("https://excalidraw.com/Virgil.woff2");
      }
      @font-face {
        font-family: "Cascadia";
        src: url("https://excalidraw.com/Cascadia.woff2");
      }
      @font-face {
        font-family: "Assistant";
        src: url("https://excalidraw.com/Assistant-Regular.woff2");
      }
    </style>
    
  </defs>
  <rect x="0" y="0" width="2407" height="455" fill="#ffffff"></rect><g stroke-linecap="round"><g transform="translate(127 145) rotate(0 1046.5 -0.5)"><path d="M0 0 C348.83 -0.17, 1744.17 -0.83, 2093 -1" stroke="#1e1e1e" stroke-width="1.5" fill="none" stroke-dasharray="1.5 7"></path></g></g><mask></mask><g stroke-linecap="round"><g transform="translate(2225 80) rotate(0 0.5 65.5)"><path d="M0 0 C0.17 21.83, 0.83 109.17, 1 131 M0 0 C0.17 21.83, 0.83 109.17, 1 131" stroke="#1e1e1e" stroke-width="4" fill="none"></path></g></g><mask></mask><g transform="translate(2126 10) rotate(0 97.03333282470703 20.700000000000045)"><text x="0" y="33.120703125" font-family="Helvetica, Segoe UI Emoji" font-size="36px" fill="#1e1e1e" text-anchor="start" style="white-space: pre;" direction="ltr" dominant-baseline="alphabetic">Out of mints</text></g><g stroke-linecap="round" transform="translate(10 344) rotate(0 1193.5 50.5)"><path d="M25.25 0 C923.79 0, 1822.34 0, 2361.75 0 M25.25 0 C932.26 0, 1839.26 0, 2361.75 0 M2361.75 0 C2378.58 0, 2387 8.42, 2387 25.25 M2361.75 0 C2378.58 0, 2387 8.42, 2387 25.25 M2387 25.25 C2387 37.58, 2387 49.91, 2387 75.75 M2387 25.25 C2387 39.09, 2387 52.94, 2387 75.75 M2387 75.75 C2387 92.58, 2378.58 101, 2361.75 101 M2387 75.75 C2387 92.58, 2378.58 101, 2361.75 101 M2361.75 101 C1603.94 101, 846.13 101, 25.25 101 M2361.75 101 C1868 101, 1374.25 101, 25.25 101 M25.25 101 C8.42 101, 0 92.58, 0 75.75 M25.25 101 C8.42 101, 0 92.58, 0 75.75 M0 75.75 C0 58.94, 0 42.14, 0 25.25 M0 75.75 C0 56.48, 0 37.22, 0 25.25 M0 25.25 C0 8.42, 8.42 0, 25.25 0 M0 25.25 C0 8.42, 8.42 0, 25.25 0" stroke="#1e1e1e" stroke-width="1" fill="none"></path></g><g transform="translate(2077 376) rotate(0 123.05999755859375 20.700000000000045)"><text x="0" y="33.120703125" font-family="Helvetica, Segoe UI Emoji" font-size="36px" fill="#1e1e1e" text-anchor="start" style="white-space: pre;" direction="ltr" dominant-baseline="alphabetic">OnCompleted()</text></g><g stroke-linecap="round"><g transform="translate(87 103) rotate(0 38.5 40.5)"><path d="M0 0 C12.83 13.5, 64.17 67.5, 77 81 M0 0 C12.83 13.5, 64.17 67.5, 77 81" stroke="#1e1e1e" stroke-width="4" fill="none"></path></g></g><mask></mask><g stroke-linecap="round"><g transform="translate(165.5 101.5) rotate(0 -38.5 40.5)"><path d="M0 0 C-12.83 13.5, -64.17 67.5, -77 81 M0 0 C-12.83 13.5, -64.17 67.5, -77 81" stroke="#1e1e1e" stroke-width="4" fill="none"></path></g></g><mask></mask><g transform="translate(10.966667175292969 37.30000000000018) rotate(0 121.04000091552734 20.700000000000045)"><text x="0" y="33.120703125" font-family="Helvetica, Segoe UI Emoji" font-size="36px" fill="#1e1e1e" text-anchor="start" style="white-space: pre;" direction="ltr" dominant-baseline="alphabetic">Mints are stuck</text></g><g stroke-linecap="round"><g transform="translate(125 181) rotate(0 0.5 95)"><path d="M0 0 C0.17 31.67, 0.83 158.33, 1 190 M0 0 C0.17 31.67, 0.83 158.33, 1 190" stroke="#1e1e1e" stroke-width="1" fill="none"></path></g><g transform="translate(125 181) rotate(0 0.5 95)"><path d="M-7.67 166.55 C-5.16 173.36, -2.64 180.16, 1 190 M-7.67 166.55 C-5.69 171.92, -3.71 177.28, 1 190" stroke="#1e1e1e" stroke-width="1" fill="none"></path></g><g transform="translate(125 181) rotate(0 0.5 95)"><path d="M9.43 166.46 C6.98 173.29, 4.54 180.12, 1 190 M9.43 166.46 C7.5 171.85, 5.57 177.23, 1 190" stroke="#1e1e1e" stroke-width="1" fill="none"></path></g></g><mask></mask><g stroke-linecap="round"><g transform="translate(2227.5 220.5) rotate(0 0.5 76.5)"><path d="M0 0 C0.17 25.5, 0.83 127.5, 1 153 M0 0 C0.17 25.5, 0.83 127.5, 1 153" stroke="#1e1e1e" stroke-width="1" fill="none"></path></g><g transform="translate(2227.5 220.5) rotate(0 0.5 76.5)"><path d="M-7.7 129.56 C-5.81 134.66, -3.92 139.76, 1 153 M-7.7 129.56 C-4.8 137.39, -1.89 145.22, 1 153" stroke="#1e1e1e" stroke-width="1" fill="none"></path></g><g transform="translate(2227.5 220.5) rotate(0 0.5 76.5)"><path d="M9.4 129.45 C7.57 134.58, 5.74 139.7, 1 153 M9.4 129.45 C6.59 137.32, 3.79 145.18, 1 153" stroke="#1e1e1e" stroke-width="1" fill="none"></path></g></g><mask></mask><g stroke-linecap="round" transform="translate(455 121) rotate(0 24 24.5)"><path d="M48 24.5 C48 25.92, 47.88 27.36, 47.64 28.75 C47.39 30.15, 47.03 31.55, 46.55 32.88 C46.08 34.21, 45.48 35.52, 44.78 36.75 C44.09 37.98, 43.28 39.16, 42.39 40.25 C41.49 41.33, 40.49 42.36, 39.43 43.27 C38.36 44.18, 37.2 45.01, 36 45.72 C34.8 46.43, 33.51 47.04, 32.21 47.52 C30.9 48.01, 29.54 48.38, 28.17 48.63 C26.8 48.87, 25.39 49, 24 49 C22.61 49, 21.2 48.87, 19.83 48.63 C18.46 48.38, 17.1 48.01, 15.79 47.52 C14.49 47.04, 13.2 46.43, 12 45.72 C10.8 45.01, 9.64 44.18, 8.57 43.27 C7.51 42.36, 6.51 41.33, 5.61 40.25 C4.72 39.16, 3.91 37.98, 3.22 36.75 C2.52 35.52, 1.92 34.21, 1.45 32.88 C0.97 31.55, 0.61 30.15, 0.36 28.75 C0.12 27.36, 0 25.92, 0 24.5 C0 23.08, 0.12 21.64, 0.36 20.25 C0.61 18.85, 0.97 17.45, 1.45 16.12 C1.92 14.79, 2.52 13.48, 3.22 12.25 C3.91 11.02, 4.72 9.84, 5.61 8.75 C6.51 7.67, 7.51 6.64, 8.57 5.73 C9.64 4.82, 10.8 3.99, 12 3.28 C13.2 2.57, 14.49 1.96, 15.79 1.48 C17.1 0.99, 18.46 0.62, 19.83 0.37 C21.2 0.13, 22.61 0, 24 0 C25.39 0, 26.8 0.13, 28.17 0.37 C29.54 0.62, 30.9 0.99, 32.21 1.48 C33.51 1.96, 34.8 2.57, 36 3.28 C37.2 3.99, 38.36 4.82, 39.43 5.73 C40.49 6.64, 41.49 7.67, 42.39 8.75 C43.28 9.84, 44.09 11.02, 44.78 12.25 C45.48 13.48, 46.08 14.79, 46.55 16.12 C47.03 17.45, 47.39 18.85, 47.64 20.25 C47.88 21.64, 47.94 23.79, 48 24.5 C48.06 25.21, 48.06 23.79, 48 24.5" stroke="#1e1e1e" stroke-width="4" fill="none"></path></g><g stroke-linecap="round" transform="translate(880 119.5) rotate(0 24 24.5)"><path d="M48 24.5 C48 25.92, 47.88 27.36, 47.64 28.75 C47.39 30.15, 47.03 31.55, 46.55 32.88 C46.08 34.21, 45.48 35.52, 44.78 36.75 C44.09 37.98, 43.28 39.16, 42.39 40.25 C41.49 41.33, 40.49 42.36, 39.43 43.27 C38.36 44.18, 37.2 45.01, 36 45.72 C34.8 46.43, 33.51 47.04, 32.21 47.52 C30.9 48.01, 29.54 48.38, 28.17 48.63 C26.8 48.87, 25.39 49, 24 49 C22.61 49, 21.2 48.87, 19.83 48.63 C18.46 48.38, 17.1 48.01, 15.79 47.52 C14.49 47.04, 13.2 46.43, 12 45.72 C10.8 45.01, 9.64 44.18, 8.57 43.27 C7.51 42.36, 6.51 41.33, 5.61 40.25 C4.72 39.16, 3.91 37.98, 3.22 36.75 C2.52 35.52, 1.92 34.21, 1.45 32.88 C0.97 31.55, 0.61 30.15, 0.36 28.75 C0.12 27.36, 0 25.92, 0 24.5 C0 23.08, 0.12 21.64, 0.36 20.25 C0.61 18.85, 0.97 17.45, 1.45 16.12 C1.92 14.79, 2.52 13.48, 3.22 12.25 C3.91 11.02, 4.72 9.84, 5.61 8.75 C6.51 7.67, 7.51 6.64, 8.57 5.73 C9.64 4.82, 10.8 3.99, 12 3.28 C13.2 2.57, 14.49 1.96, 15.79 1.48 C17.1 0.99, 18.46 0.62, 19.83 0.37 C21.2 0.13, 22.61 0, 24 0 C25.39 0, 26.8 0.13, 28.17 0.37 C29.54 0.62, 30.9 0.99, 32.21 1.48 C33.51 1.96, 34.8 2.57, 36 3.28 C37.2 3.99, 38.36 4.82, 39.43 5.73 C40.49 6.64, 41.49 7.67, 42.39 8.75 C43.28 9.84, 44.09 11.02, 44.78 12.25 C45.48 13.48, 46.08 14.79, 46.55 16.12 C47.03 17.45, 47.39 18.85, 47.64 20.25 C47.88 21.64, 47.94 23.79, 48 24.5 C48.06 25.21, 48.06 23.79, 48 24.5" stroke="#1e1e1e" stroke-width="4" fill="none"></path></g><g stroke-linecap="round" transform="translate(1146 118.5) rotate(0 24 24.5)"><path d="M48 24.5 C48 25.92, 47.88 27.36, 47.64 28.75 C47.39 30.15, 47.03 31.55, 46.55 32.88 C46.08 34.21, 45.48 35.52, 44.78 36.75 C44.09 37.98, 43.28 39.16, 42.39 40.25 C41.49 41.33, 40.49 42.36, 39.43 43.27 C38.36 44.18, 37.2 45.01, 36 45.72 C34.8 46.43, 33.51 47.04, 32.21 47.52 C30.9 48.01, 29.54 48.38, 28.17 48.63 C26.8 48.87, 25.39 49, 24 49 C22.61 49, 21.2 48.87, 19.83 48.63 C18.46 48.38, 17.1 48.01, 15.79 47.52 C14.49 47.04, 13.2 46.43, 12 45.72 C10.8 45.01, 9.64 44.18, 8.57 43.27 C7.51 42.36, 6.51 41.33, 5.61 40.25 C4.72 39.16, 3.91 37.98, 3.22 36.75 C2.52 35.52, 1.92 34.21, 1.45 32.88 C0.97 31.55, 0.61 30.15, 0.36 28.75 C0.12 27.36, 0 25.92, 0 24.5 C0 23.08, 0.12 21.64, 0.36 20.25 C0.61 18.85, 0.97 17.45, 1.45 16.12 C1.92 14.79, 2.52 13.48, 3.22 12.25 C3.91 11.02, 4.72 9.84, 5.61 8.75 C6.51 7.67, 7.51 6.64, 8.57 5.73 C9.64 4.82, 10.8 3.99, 12 3.28 C13.2 2.57, 14.49 1.96, 15.79 1.48 C17.1 0.99, 18.46 0.62, 19.83 0.37 C21.2 0.13, 22.61 0, 24 0 C25.39 0, 26.8 0.13, 28.17 0.37 C29.54 0.62, 30.9 0.99, 32.21 1.48 C33.51 1.96, 34.8 2.57, 36 3.28 C37.2 3.99, 38.36 4.82, 39.43 5.73 C40.49 6.64, 41.49 7.67, 42.39 8.75 C43.28 9.84, 44.09 11.02, 44.78 12.25 C45.48 13.48, 46.08 14.79, 46.55 16.12 C47.03 17.45, 47.39 18.85, 47.64 20.25 C47.88 21.64, 47.94 23.79, 48 24.5 C48.06 25.21, 48.06 23.79, 48 24.5" stroke="#1e1e1e" stroke-width="4" fill="none"></path></g><g stroke-linecap="round"><g transform="translate(1168.5 185) rotate(0 0.5 95)"><path d="M0 0 C0.17 31.67, 0.83 158.33, 1 190 M0 0 C0.17 31.67, 0.83 158.33, 1 190" stroke="#1e1e1e" stroke-width="1" fill="none"></path></g><g transform="translate(1168.5 185) rotate(0 0.5 95)"><path d="M-7.67 166.55 C-5.86 171.46, -4.04 176.36, 1 190 M-7.67 166.55 C-5.84 171.52, -4 176.48, 1 190" stroke="#1e1e1e" stroke-width="1" fill="none"></path></g><g transform="translate(1168.5 185) rotate(0 0.5 95)"><path d="M9.43 166.46 C7.66 171.39, 5.9 176.31, 1 190 M9.43 166.46 C7.64 171.45, 5.86 176.43, 1 190" stroke="#1e1e1e" stroke-width="1" fill="none"></path></g></g><mask></mask><g stroke-linecap="round"><g transform="translate(903.5 182) rotate(0 0.5 95)"><path d="M0 0 C0.17 31.67, 0.83 158.33, 1 190 M0 0 C0.17 31.67, 0.83 158.33, 1 190" stroke="#1e1e1e" stroke-width="1" fill="none"></path></g><g transform="translate(903.5 182) rotate(0 0.5 95)"><path d="M-7.67 166.55 C-4.86 174.15, -2.05 181.75, 1 190 M-7.67 166.55 C-4.46 175.25, -1.24 183.95, 1 190" stroke="#1e1e1e" stroke-width="1" fill="none"></path></g><g transform="translate(903.5 182) rotate(0 0.5 95)"><path d="M9.43 166.46 C6.7 174.09, 3.96 181.72, 1 190 M9.43 166.46 C6.3 175.19, 3.17 183.93, 1 190" stroke="#1e1e1e" stroke-width="1" fill="none"></path></g></g><mask></mask><g transform="translate(47.94000244140625 381.3000000000002) rotate(0 76 20.700000000000045)"><text x="0" y="33.120703125" font-family="Helvetica, Segoe UI Emoji" font-size="36px" fill="#1e1e1e" text-anchor="start" style="white-space: pre;" direction="ltr" dominant-baseline="alphabetic">OnError()</text></g><g transform="translate(849 386.3000000000002) rotate(0 73.01333618164062 20.700000000000045)"><text x="0" y="33.120703125" font-family="Helvetica, Segoe UI Emoji" font-size="36px" fill="#1e1e1e" text-anchor="start" style="white-space: pre;" direction="ltr" dominant-baseline="alphabetic">OnNext()</text></g><g transform="translate(1116.9866638183594 387.3000000000002) rotate(0 73.01333618164062 20.700000000000045)"><text x="0" y="33.120703125" font-family="Helvetica, Segoe UI Emoji" font-size="36px" fill="#1e1e1e" text-anchor="start" style="white-space: pre;" direction="ltr" dominant-baseline="alphabetic">OnNext()</text></g><g transform="translate(421.9866638183594 386.3000000000002) rotate(0 73.01333618164062 20.700000000000045)"><text x="0" y="33.120703125" font-family="Helvetica, Segoe UI Emoji" font-size="36px" fill="#1e1e1e" text-anchor="start" style="white-space: pre;" direction="ltr" dominant-baseline="alphabetic">OnNext()</text></g><g stroke-linecap="round"><g transform="translate(478.5 182) rotate(0 0.5 95)"><path d="M0 0 C0.17 31.67, 0.83 158.33, 1 190 M0 0 C0.17 31.67, 0.83 158.33, 1 190" stroke="#1e1e1e" stroke-width="1" fill="none"></path></g><g transform="translate(478.5 182) rotate(0 0.5 95)"><path d="M-7.67 166.55 C-4.83 174.23, -1.99 181.91, 1 190 M-7.67 166.55 C-5.39 172.71, -3.12 178.88, 1 190" stroke="#1e1e1e" stroke-width="1" fill="none"></path></g><g transform="translate(478.5 182) rotate(0 0.5 95)"><path d="M9.43 166.46 C6.67 174.17, 3.91 181.88, 1 190 M9.43 166.46 C7.21 172.65, 5 178.83, 1 190" stroke="#1e1e1e" stroke-width="1" fill="none"></path></g></g><mask></mask><g transform="translate(798 61) rotate(0 84.05333709716797 20.700000000000045)"><text x="0" y="33.120703125" font-family="Helvetica, Segoe UI Emoji" font-size="36px" fill="#1e1e1e" text-anchor="start" style="white-space: pre;" direction="ltr" dominant-baseline="alphabetic">Did dishes</text></g><g transform="translate(367 60) rotate(0 129.0800018310547 20.700000000000045)"><text x="0" y="33.120703125" font-family="Helvetica, Segoe UI Emoji" font-size="36px" fill="#1e1e1e" text-anchor="start" style="white-space: pre;" direction="ltr" dominant-baseline="alphabetic">Asked for candy</text></g><g transform="translate(1091.946662902832 62.30000000000018) rotate(0 95.37999725341797 20.700000000000045)"><text x="0" y="33.120703125" font-family="Helvetica, Segoe UI Emoji" font-size="36px" fill="#1e1e1e" text-anchor="start" style="white-space: pre;" direction="ltr" dominant-baseline="alphabetic">Washed car</text></g><g transform="translate(163 199) rotate(0 25.52666664123535 20.700000000000045)"><text x="0" y="33.120703125" font-family="Helvetica, Segoe UI Emoji" font-size="36px" fill="#1e1e1e" text-anchor="start" style="white-space: pre;" direction="ltr" dominant-baseline="alphabetic">t=0</text></g><g transform="translate(515.4733333587646 197.30000000000018) rotate(0 35.540000915527344 20.700000000000045)"><text x="0" y="33.120703125" font-family="Helvetica, Segoe UI Emoji" font-size="36px" fill="#1e1e1e" text-anchor="start" style="white-space: pre;" direction="ltr" dominant-baseline="alphabetic">t=15</text></g><g transform="translate(918.4599990844727 189.30000000000018) rotate(0 35.540000915527344 20.700000000000045)"><text x="0" y="33.120703125" font-family="Helvetica, Segoe UI Emoji" font-size="36px" fill="#1e1e1e" text-anchor="start" style="white-space: pre;" direction="ltr" dominant-baseline="alphabetic">t=30</text></g><g transform="translate(1191.4599990844727 189.30000000000018) rotate(0 35.540000915527344 20.700000000000045)"><text x="0" y="33.120703125" font-family="Helvetica, Segoe UI Emoji" font-size="36px" fill="#1e1e1e" text-anchor="start" style="white-space: pre;" direction="ltr" dominant-baseline="alphabetic">t=60</text></g></svg>