<svg version="1.1" xmlns="http://www.w3.org/2000/svg" viewBox="0 0 3341.7427652366127 936.5177771300196"
	 width="3341.7427652366127" height="936.5177771300196">
	<!-- svg-source:excalidraw -->

	<defs>
		<style class="style-fonts">
			@font-face {
			font-family: "Virgil";
			src: url("https://excalidraw.com/Virgil.woff2");
			}
			@font-face {
			font-family: "Cascadia";
			src: url("https://excalidraw.com/Cascadia.woff2");
			}
			@font-face {
			font-family: "Assistant";
			src: url("https://excalidraw.com/Assistant-Regular.woff2");
			}
		</style>

	</defs>
	<rect x="0" y="0" width="3341.7427652366127" height="936.5177771300196" fill="#ffffff"></rect>
	<g stroke-linecap="round"
	   transform="translate(789.9736049153887 128.32549719920644) rotate(0 57.38637306692107 17.5)">
		<path d="M8.75 0 C37.98 1.4, 65.72 -1.45, 106.02 0 M8.75 0 C37.26 -0.63, 64.8 0.04, 106.02 0 M106.02 0 C111.34 -0.61, 113.56 4.74, 114.77 8.75 M106.02 0 C112.3 1.17, 116.37 3.7, 114.77 8.75 M114.77 8.75 C115.36 13.88, 115.88 20.91, 114.77 26.25 M114.77 8.75 C113.86 14.15, 113.89 20.59, 114.77 26.25 M114.77 26.25 C115.29 31.43, 113.23 33.33, 106.02 35 M114.77 26.25 C113.75 33.25, 112.85 35.44, 106.02 35 M106.02 35 C67.52 36.04, 30.28 36.77, 8.75 35 M106.02 35 C70.08 35.61, 32.53 34.75, 8.75 35 M8.75 35 C1.07 35.09, 1.5 31.7, 0 26.25 M8.75 35 C4.62 33.91, 1.61 32.67, 0 26.25 M0 26.25 C-1.43 22.65, 0.29 18.17, 0 8.75 M0 26.25 C-0.66 19.22, -0.59 13.96, 0 8.75 M0 8.75 C-1.71 4.88, 1.86 0.94, 8.75 0 M0 8.75 C0.62 2.83, 3.71 -2.27, 8.75 0"
			  stroke="#1e1e1e" stroke-width="1" fill="none"></path>
	</g>
	<g transform="translate(805.3099787452493 133.32549719920644) rotate(0 42.04999923706055 12.5)">
		<text x="42.04999923706055" y="0" font-family="Virgil, Segoe UI Emoji" font-size="20px" fill="#1e1e1e"
			  text-anchor="middle" style="white-space: pre;" direction="ltr" dominant-baseline="text-before-edge">
			delegate
		</text>
	</g>
	<g stroke-linecap="round"
	   transform="translate(554.4658920693226 114.91050089784949) rotate(0 188.5552257913121 51.42415248853922)">
		<path d="M25.71 0 C152.66 2.92, 279.27 3.55, 351.4 0 M25.71 0 C140.73 -0.78, 255.32 -1.58, 351.4 0 M351.4 0 C370.41 -0.1, 378.27 9.7, 377.11 25.71 M351.4 0 C368.73 2.1, 375.73 6.54, 377.11 25.71 M377.11 25.71 C378.24 42.26, 376.62 59.74, 377.11 77.14 M377.11 25.71 C376.1 37.11, 376.68 51.1, 377.11 77.14 M377.11 77.14 C375.9 95.37, 369.72 101.96, 351.4 102.85 M377.11 77.14 C376.3 94.94, 369.94 101.5, 351.4 102.85 M351.4 102.85 C230.48 103.63, 108.75 101.4, 25.71 102.85 M351.4 102.85 C265.61 101.52, 178.79 100.59, 25.71 102.85 M25.71 102.85 C7.31 103.34, 1.81 93.76, 0 77.14 M25.71 102.85 C9.91 104.85, -0.95 96.17, 0 77.14 M0 77.14 C-1.6 63.61, -0.51 49.57, 0 25.71 M0 77.14 C-0.52 61.61, -1.43 44.3, 0 25.71 M0 25.71 C0.33 9.23, 9.23 0.58, 25.71 0 M0 25.71 C2.04 6.39, 6.81 0.58, 25.71 0"
			  stroke="#1e1e1e" stroke-width="1" fill="none"></path>
	</g>
	<g transform="translate(584.2769949612299 145.6838243681368) rotate(0 95.1875 17.5)">
		<text x="0" y="0" font-family="Virgil, Segoe UI Emoji" font-size="28px" fill="#1e1e1e" text-anchor="start"
			  style="white-space: pre;" direction="ltr" dominant-baseline="text-before-edge">Event Handler
		</text>
	</g>
	<g stroke-linecap="round"
	   transform="translate(268.2793043070152 82.11828771675118) rotate(0 493.3737528610616 190.79105850820497)">
		<path d="M32 0 C320.98 1.88, 611.54 2.96, 954.75 0 M32 0 C260.85 0.3, 488.8 0.01, 954.75 0 M954.75 0 C975.21 -0.3, 987.62 10.63, 986.75 32 M954.75 0 C978.15 0.62, 988.59 12.25, 986.75 32 M986.75 32 C988.49 140.24, 987.45 250.9, 986.75 349.58 M986.75 32 C989.28 118.09, 988.66 204.74, 986.75 349.58 M986.75 349.58 C986.85 369.3, 975.25 379.61, 954.75 381.58 M986.75 349.58 C985.06 370.34, 973.81 379.64, 954.75 381.58 M954.75 381.58 C769.4 378.78, 584.47 378.86, 32 381.58 M954.75 381.58 C624.47 379.87, 295.17 379.95, 32 381.58 M32 381.58 C10.33 381.15, 1.94 369.41, 0 349.58 M32 381.58 C8.95 379.81, 1.39 371.65, 0 349.58 M0 349.58 C-2.65 285.51, -2.23 221.29, 0 32 M0 349.58 C-1.71 278.67, -1.34 208.58, 0 32 M0 32 C-1.72 12.11, 11.12 -1.04, 32 0 M0 32 C-1.83 12.71, 10.52 -1.29, 32 0"
			  stroke="#1e1e1e" stroke-width="1" fill="none"></path>
	</g>
	<g transform="translate(299.5809623435176 119.81605234380186) rotate(0 76.07291412353516 22.5)">
		<text x="0" y="0" font-family="Virgil, Segoe UI Emoji" font-size="36px" fill="#1e1e1e" text-anchor="start"
			  style="white-space: pre;" direction="ltr" dominant-baseline="text-before-edge">Publisher
		</text>
	</g>
	<g transform="translate(24.03777942161878 189.77769558573618) rotate(0 65.16666412353516 22.5)">
		<text x="0" y="0" font-family="Virgil, Segoe UI Emoji" font-size="36px" fill="#1e1e1e" text-anchor="start"
			  style="white-space: pre;" direction="ltr" dominant-baseline="text-before-edge">Subject
		</text>
	</g>
	<g transform="translate(10 710.0886751895832) rotate(0 76.44791412353516 22.499999999999545)">
		<text x="0" y="0" font-family="Virgil, Segoe UI Emoji" font-size="36px" fill="#1e1e1e" text-anchor="start"
			  style="white-space: pre;" direction="ltr" dominant-baseline="text-before-edge">Observer
		</text>
	</g>
	<g stroke-linecap="round"
	   transform="translate(266.04347159012207 612.7559191926957) rotate(0 490.39264257187085 155.01773503791583)">
		<path d="M32 0 C298.31 -0.98, 565.56 0.35, 948.79 0 M32 0 C262.61 0.1, 493.36 0.03, 948.79 0 M948.79 0 C971.4 -0.65, 979.78 12.4, 980.79 32 M948.79 0 C971.11 1.65, 979.43 8.94, 980.79 32 M980.79 32 C979.45 96.28, 979.8 157.73, 980.79 278.04 M980.79 32 C979.05 103.44, 980.02 175.73, 980.79 278.04 M980.79 278.04 C980.35 297.41, 969.39 310.3, 948.79 310.04 M980.79 278.04 C980.18 297.1, 971.33 309.77, 948.79 310.04 M948.79 310.04 C602.57 306.55, 258.47 306.47, 32 310.04 M948.79 310.04 C645.93 306.77, 343.03 306.77, 32 310.04 M32 310.04 C10.32 311.69, 0.03 299, 0 278.04 M32 310.04 C8.44 308.91, 1.94 299.95, 0 278.04 M0 278.04 C-1.73 182.63, -2.18 83.22, 0 32 M0 278.04 C-0.08 184.8, 0.26 90.28, 0 32 M0 32 C-1.82 10.99, 10.35 -0.96, 32 0 M0 32 C0.22 9.83, 11.59 2.13, 32 0"
			  stroke="#1e1e1e" stroke-width="1" fill="none"></path>
	</g>
	<g stroke-linecap="round"
	   transform="translate(790.7188824876862 173.4288132722113) rotate(0 64.09387121760011 17.5)">
		<path d="M8.75 0 C37.71 -0.31, 63.77 -1.98, 119.44 0 M8.75 0 C45.77 1.41, 83.34 0.55, 119.44 0 M119.44 0 C126.2 -1.07, 128.42 3.8, 128.19 8.75 M119.44 0 C125.99 0.39, 128.77 2.04, 128.19 8.75 M128.19 8.75 C127.09 14.99, 128.68 20.63, 128.19 26.25 M128.19 8.75 C128.48 11.75, 127.88 17.09, 128.19 26.25 M128.19 26.25 C129.82 33.86, 125.1 34.49, 119.44 35 M128.19 26.25 C127.38 30.61, 125.78 36.26, 119.44 35 M119.44 35 C77.5 34.17, 32.34 36.45, 8.75 35 M119.44 35 C88.09 34.23, 56.82 33.87, 8.75 35 M8.75 35 C3.12 36.23, 0.03 33.03, 0 26.25 M8.75 35 C1.56 36.44, -1.32 33.91, 0 26.25 M0 26.25 C-0.48 22.06, 0.67 15.58, 0 8.75 M0 26.25 C0.43 20.36, -0.77 15.79, 0 8.75 M0 8.75 C0.89 3.7, 1.69 -0.74, 8.75 0 M0 8.75 C1.63 2.74, 3.93 2.17, 8.75 0"
			  stroke="#1e1e1e" stroke-width="1" fill="none"></path>
	</g>
	<g transform="translate(800.5127544682257 178.4288132722113) rotate(0 54.29999923706055 12.5)">
		<text x="54.29999923706055" y="0" font-family="Virgil, Segoe UI Emoji" font-size="20px" fill="#1e1e1e"
			  text-anchor="middle" style="white-space: pre;" direction="ltr" dominant-baseline="text-before-edge">
			RaiseEvent
		</text>
	</g>
	<g stroke-linecap="round"
	   transform="translate(997.9060475864402 115.65577847014538) rotate(0 115.51802370613973 43.97137676556258)">
		<path d="M21.99 0 C66.97 -2.83, 111.63 -1.16, 209.05 0 M21.99 0 C74.62 -1.88, 125.37 -1.23, 209.05 0 M209.05 0 C223.78 -0.58, 230.48 8.36, 231.04 21.99 M209.05 0 C221.72 0.03, 229.29 6.45, 231.04 21.99 M231.04 21.99 C231.75 30.56, 232.2 42.6, 231.04 65.96 M231.04 21.99 C231.09 36.87, 230.32 50.63, 231.04 65.96 M231.04 65.96 C230.3 80.61, 225.44 87.78, 209.05 87.94 M231.04 65.96 C230.85 80.47, 224.77 89.36, 209.05 87.94 M209.05 87.94 C146.59 90.57, 84.17 89.84, 21.99 87.94 M209.05 87.94 C159.48 88.57, 111.07 89.15, 21.99 87.94 M21.99 87.94 C7.74 87.01, -1.45 79.08, 0 65.96 M21.99 87.94 C6.36 88.88, -1.35 80.23, 0 65.96 M0 65.96 C-0.01 55.19, 0.78 49.53, 0 21.99 M0 65.96 C-0.74 55.49, -0.34 44.71, 0 21.99 M0 21.99 C1.89 5.65, 5.65 -1.23, 21.99 0 M0 21.99 C1.5 7.58, 7.99 -1.42, 21.99 0"
			  stroke="#1e1e1e" stroke-width="1" fill="none"></path>
	</g>
	<g transform="translate(1033.679371056729 127.05188506069408) rotate(0 68.98958587646484 17.5)">
		<text x="0" y="0" font-family="Virgil, Segoe UI Emoji" font-size="28px" fill="#1e1e1e" text-anchor="start"
			  style="white-space: pre;" direction="ltr" dominant-baseline="text-before-edge">EventArgs
		</text>
	</g>
	<g stroke-linecap="round">
		<g transform="translate(928.5952333627562 146.21215893435055) rotate(0 32.79221318109771 0.997236291338595)">
			<path d="M0.44 -0.7 C11.18 -0.48, 53.88 1.74, 64.91 2.15 M-0.79 1.55 C10.31 1.91, 56.07 3.53, 67.27 3.78"
				  stroke="#1e1e1e" stroke-width="1" fill="none"></path>
		</g>
		<g transform="translate(928.5952333627562 146.21215893435055) rotate(0 32.79221318109771 0.997236291338595)">
			<path d="M38.78 13.19 C47.14 8.79, 58.17 8.42, 67.27 3.78 M38.78 13.19 C47.08 9.78, 54.91 8.41, 67.27 3.78"
				  stroke="#1e1e1e" stroke-width="1" fill="none"></path>
		</g>
		<g transform="translate(928.5952333627562 146.21215893435055) rotate(0 32.79221318109771 0.997236291338595)">
			<path d="M39.39 -7.32 C47.7 -4.81, 58.52 1.73, 67.27 3.78 M39.39 -7.32 C47.52 -4.92, 55.18 -0.47, 67.27 3.78"
				  stroke="#1e1e1e" stroke-width="1" fill="none"></path>
		</g>
	</g>
	<mask></mask>
	<g stroke-linecap="round"
	   transform="translate(560.4281126477043 329.5504417195789) rotate(0 187.80994821901436 58.131650639218606)">
		<path d="M29.07 0 C117.97 -0.86, 208.46 0.57, 346.55 0 M29.07 0 C97.13 -1.85, 164.62 -1.88, 346.55 0 M346.55 0 C366.98 1.02, 375.01 11.65, 375.62 29.07 M346.55 0 C367.66 1.67, 374.42 10.86, 375.62 29.07 M375.62 29.07 C376.81 47.35, 373.62 64.14, 375.62 87.2 M375.62 29.07 C374.44 48.66, 375.43 70.44, 375.62 87.2 M375.62 87.2 C376.63 106.17, 366.63 116.34, 346.55 116.26 M375.62 87.2 C374.15 107.72, 366.14 116.3, 346.55 116.26 M346.55 116.26 C269.33 115.42, 195.51 117.03, 29.07 116.26 M346.55 116.26 C233.16 117.63, 120.7 117.99, 29.07 116.26 M29.07 116.26 C8.53 117.44, 1.41 105.98, 0 87.2 M29.07 116.26 C10.73 116.83, -0.25 107.09, 0 87.2 M0 87.2 C-0.07 66.36, -0.14 48.53, 0 29.07 M0 87.2 C0.16 64.8, -0.91 41.96, 0 29.07 M0 29.07 C-0.94 8.95, 8.92 0.44, 29.07 0 M0 29.07 C1.76 8.37, 11.6 -1.24, 29.07 0"
			  stroke="#1e1e1e" stroke-width="1" fill="none"></path>
	</g>
	<g transform="translate(593.2203258288022 357.87098946689093) rotate(0 108.57291412353516 17.5)">
		<text x="0" y="0" font-family="Virgil, Segoe UI Emoji" font-size="28px" fill="#1e1e1e" text-anchor="start"
			  style="white-space: pre;" direction="ltr" dominant-baseline="text-before-edge">Provider-Service
		</text>
	</g>
	<g stroke-linecap="round">
		<g transform="translate(854.0674761329886 332.5315520087688) rotate(0 2.2358327168930145 -64.83914878989754)">
			<path d="M-0.97 0.93 C-0.27 -20.56, 3.91 -107.87, 5 -129.49 M0.72 0.37 C1.24 -21.46, 3.55 -109.68, 4.33 -131.51"
				  stroke="#1e1e1e" stroke-width="1" fill="none"></path>
		</g>
		<g transform="translate(854.0674761329886 332.5315520087688) rotate(0 2.2358327168930145 -64.83914878989754)">
			<path d="M13.73 -103.02 C11.97 -112.62, 7.31 -122.06, 4.33 -131.51 M13.73 -103.02 C10.54 -112.88, 6.69 -124.59, 4.33 -131.51"
				  stroke="#1e1e1e" stroke-width="1" fill="none"></path>
		</g>
		<g transform="translate(854.0674761329886 332.5315520087688) rotate(0 2.2358327168930145 -64.83914878989754)">
			<path d="M-6.78 -103.64 C-1.05 -112.85, 1.78 -122.06, 4.33 -131.51 M-6.78 -103.64 C-2.23 -113.1, 1.65 -124.57, 4.33 -131.51"
				  stroke="#1e1e1e" stroke-width="1" fill="none"></path>
		</g>
	</g>
	<mask></mask>
	<g transform="translate(305.5431829218991 701.2270072900365) rotate(0 39.15625 25)">
		<text x="0" y="0" font-family="Virgil, Segoe UI Emoji" font-size="20px" fill="#1e1e1e" text-anchor="start"
			  style="white-space: pre;" direction="ltr" dominant-baseline="text-before-edge">Listener
		</text>
		<text x="0" y="25" font-family="Virgil, Segoe UI Emoji" font-size="20px" fill="#1e1e1e" text-anchor="start"
			  style="white-space: pre;" direction="ltr" dominant-baseline="text-before-edge"></text>
	</g>
	<g transform="translate(305.9526036283178 655.8403455548896) rotate(0 87.39583587646484 22.5)">
		<text x="0" y="0" font-family="Virgil, Segoe UI Emoji" font-size="36px" fill="#1e1e1e" text-anchor="start"
			  style="white-space: pre;" direction="ltr" dominant-baseline="text-before-edge">Subscriber
		</text>
	</g>
	<g transform="translate(296.5998520543268 165.58937581408918) rotate(0 76.66666412353516 12.5)">
		<text x="0" y="0" font-family="Virgil, Segoe UI Emoji" font-size="20px" fill="#1e1e1e" text-anchor="start"
			  style="white-space: pre;" direction="ltr" dominant-baseline="text-before-edge">Action delegate
		</text>
	</g>
	<g stroke-linecap="round">
		<g transform="translate(854.0674761329886 468.17207016694647) rotate(0 13.414996301358201 70.80136936827921)">
			<path d="M-0.64 1.15 C6.18 12.73, 42.42 47.15, 40.21 70.37 C38 93.59, -5.08 128.77, -13.9 140.46 M1.23 0.7 C7.94 11.83, 41.93 45, 39.24 68.41 C36.55 91.83, -6.37 129.07, -14.93 141.18"
				  stroke="#1e1e1e" stroke-width="1" fill="none"></path>
		</g>
		<g transform="translate(854.0674761329886 468.17207016694647) rotate(0 13.414996301358201 70.80136936827921)">
			<path d="M-3.69 113.36 C-4.33 120.05, -8.46 126.11, -14.93 141.18 M-3.69 113.36 C-5.57 119.92, -7.38 124.24, -14.93 141.18"
				  stroke="#1e1e1e" stroke-width="1" fill="none"></path>
		</g>
		<g transform="translate(854.0674761329886 468.17207016694647) rotate(0 13.414996301358201 70.80136936827921)">
			<path d="M11.56 127.09 C7.09 130.33, -0.78 133.03, -14.93 141.18 M11.56 127.09 C6.49 130.7, 1.55 132.2, -14.93 141.18"
				  stroke="#1e1e1e" stroke-width="1" fill="none"></path>
		</g>
	</g>
	<mask></mask>
	<g transform="translate(916.670792205993 517.7942759507605) rotate(0 117.41666412353516 22.5)">
		<text x="0" y="0" font-family="Virgil, Segoe UI Emoji" font-size="36px" fill="#1e1e1e" text-anchor="start"
			  style="white-space: pre;" direction="ltr" dominant-baseline="text-before-edge">Event(object)
		</text>
	</g>
	<g stroke-linecap="round"
	   transform="translate(558.9375575031089 639.5859117954096) rotate(0 149.80079203183288 126.6971872906056)">
		<path d="M32 0 C96.75 0.83, 158.68 -1.42, 267.6 0 M32 0 C97.19 0.55, 160.55 0.12, 267.6 0 M267.6 0 C287.35 -1.23, 298.29 9.02, 299.6 32 M267.6 0 C288.69 1.44, 298.12 11.35, 299.6 32 M299.6 32 C300.3 93.74, 301.02 155.49, 299.6 221.39 M299.6 32 C301.81 102.7, 302.05 174.18, 299.6 221.39 M299.6 221.39 C299.38 244.61, 289.96 254.1, 267.6 253.39 M299.6 221.39 C298.98 243.23, 289.27 252.62, 267.6 253.39 M267.6 253.39 C207.43 254.34, 146.81 255.43, 32 253.39 M267.6 253.39 C205.16 253.22, 144.25 252.75, 32 253.39 M32 253.39 C11.97 252.9, 1.21 242.35, 0 221.39 M32 253.39 C9.8 251.22, -1.25 240.68, 0 221.39 M0 221.39 C0.53 161.12, 3 99.36, 0 32 M0 221.39 C-2.08 174.85, -2.05 129.68, 0 32 M0 32 C-1.03 9.52, 8.92 -1.9, 32 0 M0 32 C0.61 10.29, 12.66 -0.32, 32 0"
			  stroke="#1e1e1e" stroke-width="1" fill="none"></path>
	</g>
	<g stroke-linecap="round"
	   transform="translate(736.3136197099558 676.8497904102951) rotate(0 46.95248705475365 30.000000000000455)">
		<path d="M15 0 C36.86 -0.28, 57.73 1.23, 78.9 0 M15 0 C37.56 0.22, 60.83 -1.04, 78.9 0 M78.9 0 C88.44 -1, 93.2 4, 93.9 15 M78.9 0 C90.58 1.49, 92.73 6.7, 93.9 15 M93.9 15 C93.52 22.74, 93.27 28.63, 93.9 45 M93.9 15 C94.49 21.1, 93.67 26.74, 93.9 45 M93.9 45 C94.75 56.53, 86.92 58.44, 78.9 60 M93.9 45 C91.73 54.87, 90.78 61.42, 78.9 60 M78.9 60 C55.62 60.13, 29.03 59.88, 15 60 M78.9 60 C56.75 60.1, 34.77 59.98, 15 60 M15 60 C4.99 58.69, -0.53 53.27, 0 45 M15 60 C5.1 61.61, 0.02 53.93, 0 45 M0 45 C-0.08 35.28, 0 25.69, 0 15 M0 45 C-0.56 32.88, 0.33 21.4, 0 15 M0 15 C-1.82 3.75, 5.28 0.19, 15 0 M0 15 C-1.4 4.48, 4.61 -0.74, 15 0"
			  stroke="#1e1e1e" stroke-width="1" fill="none"></path>
	</g>
	<g transform="translate(770.8494397801513 681.8497904102951) rotate(0 12.416666984558105 25.000000000000455)">
		<text x="12.416666984558105" y="0" font-family="Virgil, Segoe UI Emoji" font-size="20px" fill="#1e1e1e"
			  text-anchor="middle" style="white-space: pre;" direction="ltr" dominant-baseline="text-before-edge">+=
		</text>
		<text x="12.416666984558105" y="25" font-family="Virgil, Segoe UI Emoji" font-size="20px" fill="#1e1e1e"
			  text-anchor="middle" style="white-space: pre;" direction="ltr" dominant-baseline="text-before-edge">-=
		</text>
	</g>
	<g transform="translate(865.9919172897513 682.8120109886768) rotate(0 63.65625 12.5)">
		<text x="0" y="0" font-family="Virgil, Segoe UI Emoji" font-size="20px" fill="#1e1e1e" text-anchor="start"
			  style="white-space: pre;" direction="ltr" dominant-baseline="text-before-edge">(Un)Subscribe
		</text>
	</g>
	<g stroke-linecap="round"
	   transform="translate(726.6250112700861 769.2642093752047) rotate(0 54.405262777730286 17.141384162847316)">
		<path d="M8.57 0 C34.02 0.06, 60.73 -0.45, 100.24 0 M8.57 0 C35.99 0.28, 65.28 1.71, 100.24 0 M100.24 0 C106.89 -1.87, 109.97 1.71, 108.81 8.57 M100.24 0 C107.15 0.26, 109.2 2.26, 108.81 8.57 M108.81 8.57 C110.47 12.32, 109.89 15.85, 108.81 25.71 M108.81 8.57 C108.39 13.97, 109.11 19.99, 108.81 25.71 M108.81 25.71 C109.54 29.47, 107.15 32.92, 100.24 34.28 M108.81 25.71 C110.66 32.77, 106.7 35.74, 100.24 34.28 M100.24 34.28 C74.23 34.11, 50.03 34.51, 8.57 34.28 M100.24 34.28 C67.87 34.77, 33.77 34.14, 8.57 34.28 M8.57 34.28 C4.52 35.93, -1.64 33.14, 0 25.71 M8.57 34.28 C0.68 32.73, 0.73 29.5, 0 25.71 M0 25.71 C-1.07 22.09, 1.26 16.77, 0 8.57 M0 25.71 C-0.52 20.44, 0.69 14.2, 0 8.57 M0 8.57 C0.81 4.49, 4.37 -0.16, 8.57 0 M0 8.57 C-1.68 0.65, 1.49 0.44, 8.57 0"
			  stroke="#1e1e1e" stroke-width="1" fill="none"></path>
	</g>
	<g transform="translate(750.4724759173604 777.6319813995424) rotate(0 39.15625 12.5)">
		<text x="0" y="0" font-family="Virgil, Segoe UI Emoji" font-size="20px" fill="#1e1e1e" text-anchor="start"
			  style="white-space: pre;" direction="ltr" dominant-baseline="text-before-edge">Listener
		</text>
	</g>
	<g transform="translate(576.824219238253 688.2458970008438) rotate(0 17.70833396911621 17.5)">
		<text x="0" y="0" font-family="Virgil, Segoe UI Emoji" font-size="28px" fill="#1e1e1e" text-anchor="start"
			  style="white-space: pre;" direction="ltr" dominant-baseline="text-before-edge">UI
		</text>
	</g>
	<g stroke-linecap="round">
		<g transform="translate(828.7280386748674 712.6231138805842) rotate(0 15.65082901825133 40.33491320580015)">
			<path d="M-0.89 1.13 C4.26 6.45, 30.5 18.61, 32.03 32.02 C33.56 45.43, 11.94 73.31, 8.29 81.61 M0.84 0.68 C5.81 6.13, 30.41 19.97, 31.47 33.15 C32.53 46.33, 11.21 71.97, 7.19 79.76"
				  stroke="#1e1e1e" stroke-width="1" fill="none"></path>
		</g>
		<g transform="translate(828.7280386748674 712.6231138805842) rotate(0 15.65082901825133 40.33491320580015)">
			<path d="M13.24 54.04 C12.77 65.27, 7.23 73.02, 7.19 79.76 M13.24 54.04 C11.87 63.22, 8.68 74.18, 7.19 79.76"
				  stroke="#1e1e1e" stroke-width="1" fill="none"></path>
		</g>
		<g transform="translate(828.7280386748674 712.6231138805842) rotate(0 15.65082901825133 40.33491320580015)">
			<path d="M28.35 63.95 C21.97 71.19, 10.52 75.07, 7.19 79.76 M28.35 63.95 C21.17 69.53, 12.26 76.73, 7.19 79.76"
				  stroke="#1e1e1e" stroke-width="1" fill="none"></path>
		</g>
	</g>
	<mask></mask>
	<g transform="translate(336.9520750984692 10) rotate(0 220.4375 22.5)">
		<text x="0" y="0" font-family="Virgil, Segoe UI Emoji" font-size="36px" fill="#1e1e1e" text-anchor="start"
			  style="white-space: pre;" direction="ltr" dominant-baseline="text-before-edge">Old school event handling
		</text>
	</g>
	<g stroke-linecap="round"
	   transform="translate(1840.4423430689626 129.81605234380095) rotate(0 57.386373066921124 17.5)">
		<path d="M8.75 0 C31.05 -2.23, 51.37 -1.44, 106.02 0 M8.75 0 C44.18 0.77, 82.11 1.04, 106.02 0 M106.02 0 C113.25 -1, 115.6 2.32, 114.77 8.75 M106.02 0 C111.12 1.33, 112.82 2.96, 114.77 8.75 M114.77 8.75 C114.35 13.63, 115.04 20.3, 114.77 26.25 M114.77 8.75 C114.3 15.38, 114.28 21.58, 114.77 26.25 M114.77 26.25 C115.58 33.21, 110.23 34.68, 106.02 35 M114.77 26.25 C115.74 30.02, 110.77 35.76, 106.02 35 M106.02 35 C74.66 34.74, 44.59 36.56, 8.75 35 M106.02 35 C83.72 35.37, 62.65 35.4, 8.75 35 M8.75 35 C4.28 35.14, -1.67 31.36, 0 26.25 M8.75 35 C0.66 36.82, 0.81 33.59, 0 26.25 M0 26.25 C0.76 20.38, 1.52 17.46, 0 8.75 M0 26.25 C0.57 20.42, 0.41 14.86, 0 8.75 M0 8.75 C0.81 3.18, 2.57 1.46, 8.75 0 M0 8.75 C1.93 4, 3.36 1.59, 8.75 0"
			  stroke="#1e1e1e" stroke-width="1" fill="none"></path>
	</g>
	<g transform="translate(1851.570381022358 134.81605234380095) rotate(0 46.25833511352539 12.5)">
		<text x="46.25833511352539" y="0" font-family="Virgil, Segoe UI Emoji" font-size="20px" fill="#1e1e1e"
			  text-anchor="middle" style="white-space: pre;" direction="ltr" dominant-baseline="text-before-edge">
			observers
		</text>
	</g>
	<g stroke-linecap="round"
	   transform="translate(1604.9346302228964 116.40105604244582) rotate(0 188.55522579131207 90.17858624801784)">
		<path d="M32 0 C105.49 0.37, 176.21 -0.45, 345.11 0 M32 0 C135.16 -1.56, 237.63 -1.42, 345.11 0 M345.11 0 C365.81 1.16, 375.41 10.7, 377.11 32 M345.11 0 C366.46 -0.18, 375.67 10.13, 377.11 32 M377.11 32 C378.16 63.21, 377.6 95.93, 377.11 148.36 M377.11 32 C377 75.86, 375.78 118.43, 377.11 148.36 M377.11 148.36 C377.95 167.9, 365.5 181.02, 345.11 180.36 M377.11 148.36 C377.7 171.31, 366.7 180.71, 345.11 180.36 M345.11 180.36 C255.9 182.39, 169.75 181.21, 32 180.36 M345.11 180.36 C259.48 179.93, 172.3 179.62, 32 180.36 M32 180.36 C8.71 181.94, 0.7 171, 0 148.36 M32 180.36 C9.31 182.06, 0.07 170.86, 0 148.36 M0 148.36 C-0.91 123.3, 0.21 101.52, 0 32 M0 148.36 C-0.01 119.14, -0.59 90.38, 0 32 M0 32 C1.68 11.61, 11.05 1.38, 32 0 M0 32 C1.31 11.37, 10.81 -1.45, 32 0"
			  stroke="#1e1e1e" stroke-width="1" fill="none"></path>
	</g>
	<g transform="translate(1634.7457331148034 147.17437951273223) rotate(0 81.65625 17.5)">
		<text x="0" y="0" font-family="Virgil, Segoe UI Emoji" font-size="28px" fill="#1e1e1e" text-anchor="start"
			  style="white-space: pre;" direction="ltr" dominant-baseline="text-before-edge">IObservable
		</text>
	</g>
	<g stroke-linecap="round"
	   transform="translate(1317.2574873159933 88.08050829513195) rotate(0 493.3737528610616 190.79105850820497)">
		<path d="M32 0 C290.37 3.63, 548.74 3.43, 954.75 0 M32 0 C262.57 1.34, 493.06 1.11, 954.75 0 M954.75 0 C976.09 -0.16, 985.5 10.2, 986.75 32 M954.75 0 C975.58 0.37, 988.1 11.66, 986.75 32 M986.75 32 C988.09 107.89, 988.41 185.59, 986.75 349.58 M986.75 32 C985.22 144.53, 984.59 258.56, 986.75 349.58 M986.75 349.58 C987.26 372.32, 976.3 381.89, 954.75 381.58 M986.75 349.58 C986.32 373.09, 977.75 379.83, 954.75 381.58 M954.75 381.58 C650.85 379.73, 347.18 380.14, 32 381.58 M954.75 381.58 C671.13 380.57, 388.44 380.51, 32 381.58 M32 381.58 C9.49 383.06, 0.06 371.93, 0 349.58 M32 381.58 C8.5 383.75, -0.46 371.13, 0 349.58 M0 349.58 C-2.14 272.25, -2.37 194.48, 0 32 M0 349.58 C0.98 250.47, 0.52 151.18, 0 32 M0 32 C1.14 11.28, 10.79 -1.26, 32 0 M0 32 C-0.94 12.12, 11.45 -2.04, 32 0"
			  stroke="#1e1e1e" stroke-width="1" fill="none"></path>
	</g>
	<g transform="translate(1350.0497004970912 121.30660748839637) rotate(0 70.6875 22.5)">
		<text x="0" y="0" font-family="Virgil, Segoe UI Emoji" font-size="36px" fill="#1e1e1e" text-anchor="start"
			  style="white-space: pre;" direction="ltr" dominant-baseline="text-before-edge">Provider
		</text>
	</g>
	<g stroke-linecap="round"
	   transform="translate(1316.5122097436956 614.2464743372902) rotate(0 490.39264257187085 155.01773503791537)">
		<path d="M32 0 C393.27 -2.22, 755.1 -2.81, 948.79 0 M32 0 C359.99 -0.1, 687.73 -0.16, 948.79 0 M948.79 0 C969.69 0.33, 981.96 11.53, 980.79 32 M948.79 0 C968.76 0.34, 979.81 12.32, 980.79 32 M980.79 32 C983.63 93.58, 982.43 158.54, 980.79 278.04 M980.79 32 C980.04 84.31, 979.92 135.59, 980.79 278.04 M980.79 278.04 C980.41 301.26, 971.57 308.51, 948.79 310.04 M980.79 278.04 C981.46 300.82, 968.88 309.46, 948.79 310.04 M948.79 310.04 C659.4 311.86, 369.62 311.74, 32 310.04 M948.79 310.04 C600.8 312.73, 253.29 312.64, 32 310.04 M32 310.04 C8.78 311.92, -0.4 299.55, 0 278.04 M32 310.04 C9.4 311.54, 1.24 298.27, 0 278.04 M0 278.04 C1.53 195.17, 2.51 114.26, 0 32 M0 278.04 C0.08 192.93, -0.33 106.79, 0 32 M0 32 C-0.82 11.93, 11.34 -1.77, 32 0 M0 32 C-1.85 9.87, 11.11 1.13, 32 0"
			  stroke="#1e1e1e" stroke-width="1" fill="none"></path>
	</g>
	<g stroke-linecap="round"
	   transform="translate(1841.1876206412599 174.91936841680672) rotate(0 64.09387121760017 17.5)">
		<path d="M8.75 0 C49.07 -1.1, 91.75 -2.16, 119.44 0 M8.75 0 C41.53 -0.15, 75.35 0.25, 119.44 0 M119.44 0 C126.45 0.86, 127.01 3.21, 128.19 8.75 M119.44 0 C124.3 1.66, 127.17 5.09, 128.19 8.75 M128.19 8.75 C128 15.45, 126.72 19.84, 128.19 26.25 M128.19 8.75 C128.33 14.71, 128.07 21.24, 128.19 26.25 M128.19 26.25 C129.64 30.56, 125.85 36.27, 119.44 35 M128.19 26.25 C126.95 31.51, 125.63 34.5, 119.44 35 M119.44 35 C77.99 32.12, 39.58 34.78, 8.75 35 M119.44 35 C79.01 36.33, 37.58 36.76, 8.75 35 M8.75 35 C2.52 35.18, -1.1 33.39, 0 26.25 M8.75 35 C4.15 33.9, 0.82 30.6, 0 26.25 M0 26.25 C1.25 21.76, 0.8 14.67, 0 8.75 M0 26.25 C-0.04 19.24, -0.46 13.89, 0 8.75 M0 8.75 C0.68 1.14, 1.3 -0.69, 8.75 0 M0 8.75 C0.44 4.04, 2.78 1.84, 8.75 0"
			  stroke="#1e1e1e" stroke-width="1" fill="none"></path>
	</g>
	<g transform="translate(1860.9398246835667 179.91936841680672) rotate(0 44.34166717529297 12.5)">
		<text x="44.34166717529297" y="0" font-family="Virgil, Segoe UI Emoji" font-size="20px" fill="#1e1e1e"
			  text-anchor="middle" style="white-space: pre;" direction="ltr" dominant-baseline="text-before-edge">
			Subscribe
		</text>
	</g>
	<g transform="translate(1356.4213417818914 657.330900699485) rotate(0 76.44791412353516 22.5)">
		<text x="0" y="0" font-family="Virgil, Segoe UI Emoji" font-size="36px" fill="#1e1e1e" text-anchor="start"
			  style="white-space: pre;" direction="ltr" dominant-baseline="text-before-edge">Observer
		</text>
	</g>
	<g transform="translate(1347.0685902079003 167.0799309586846) rotate(0 52.61458206176758 37.5)">
		<text x="0" y="0" font-family="Virgil, Segoe UI Emoji" font-size="20px" fill="#1e1e1e" text-anchor="start"
			  style="white-space: pre;" direction="ltr" dominant-baseline="text-before-edge">Handler
		</text>
		<text x="0" y="25" font-family="Virgil, Segoe UI Emoji" font-size="20px" fill="#1e1e1e" text-anchor="start"
			  style="white-space: pre;" direction="ltr" dominant-baseline="text-before-edge">Subject
		</text>
		<text x="0" y="50" font-family="Virgil, Segoe UI Emoji" font-size="20px" fill="#1e1e1e" text-anchor="start"
			  style="white-space: pre;" direction="ltr" dominant-baseline="text-before-edge">Observable
		</text>
	</g>
	<g stroke-linecap="round">
		<g transform="translate(1904.5362142865624 469.6626253115419) rotate(0 18.07087652377868 70.80136936827967)">
			<path d="M-0.98 -0.19 C5.73 11.19, 41.37 45.28, 40.75 68.98 C40.14 92.68, 2.76 129.76, -4.67 142 M0.71 -1.34 C7.26 10.09, 41.14 46.42, 40.07 69.95 C39 93.49, 1.51 128.14, -5.73 139.87"
				  stroke="#1e1e1e" stroke-width="1" fill="none"></path>
		</g>
		<g transform="translate(1904.5362142865624 469.6626253115419) rotate(0 18.07087652377868 70.80136936827967)">
			<path d="M4.11 111.53 C0.59 121.94, -4.23 129.81, -5.73 139.87 M4.11 111.53 C1.01 121.19, -2.56 131.43, -5.73 139.87"
				  stroke="#1e1e1e" stroke-width="1" fill="none"></path>
		</g>
		<g transform="translate(1904.5362142865624 469.6626253115419) rotate(0 18.07087652377868 70.80136936827967)">
			<path d="M20.03 124.48 C11.02 130.35, 0.78 133.81, -5.73 139.87 M20.03 124.48 C11.59 129.94, 2.71 135.86, -5.73 139.87"
				  stroke="#1e1e1e" stroke-width="1" fill="none"></path>
		</g>
	</g>
	<mask></mask>
	<g transform="translate(1967.1395303595668 519.284831095355) rotate(0 117.41666412353516 22.5)">
		<text x="0" y="0" font-family="Virgil, Segoe UI Emoji" font-size="36px" fill="#1e1e1e" text-anchor="start"
			  style="white-space: pre;" direction="ltr" dominant-baseline="text-before-edge">Event(object)
		</text>
	</g>
	<g stroke-linecap="round"
	   transform="translate(1612.3874059458735 641.0764669400041) rotate(0 169.92328648387024 136.38579573047627)">
		<path d="M32 0 C102.87 -0.37, 171.8 -0.83, 307.85 0 M32 0 C141.06 2.12, 249.25 1.43, 307.85 0 M307.85 0 C329.49 -0.43, 341.2 10.81, 339.85 32 M307.85 0 C327.26 -0.83, 337.59 12.49, 339.85 32 M339.85 32 C342.37 102.02, 341.96 170.27, 339.85 240.77 M339.85 32 C338.99 114.86, 339.95 196.13, 339.85 240.77 M339.85 240.77 C340.56 260.81, 329.99 273.03, 307.85 272.77 M339.85 240.77 C339.45 263.78, 331.11 273.85, 307.85 272.77 M307.85 272.77 C220.31 274.08, 130.85 273.35, 32 272.77 M307.85 272.77 C207 270.61, 107.54 271.26, 32 272.77 M32 272.77 C10.55 274.37, -1.85 262.67, 0 240.77 M32 272.77 C9.94 274.41, 1.69 260.95, 0 240.77 M0 240.77 C0.24 187.54, 0.51 135.81, 0 32 M0 240.77 C-1.07 193.6, -0.7 144.3, 0 32 M0 32 C-0.63 11.3, 9.9 -0.68, 32 0 M0 32 C-2.04 9.19, 10.33 -0.07, 32 0"
			  stroke="#1e1e1e" stroke-width="1" fill="none"></path>
	</g>
	<g stroke-linecap="round"
	   transform="translate(1786.7823578635293 678.3403455548896) rotate(0 53.65998520543258 18.82083641553527)">
		<path d="M9.41 0 C38.52 -0.47, 68.91 1.36, 97.91 0 M9.41 0 C28.67 -0.81, 49.17 -0.78, 97.91 0 M97.91 0 C105.54 0.14, 105.65 2.42, 107.32 9.41 M97.91 0 C101.93 1.82, 108.13 4.64, 107.32 9.41 M107.32 9.41 C108.41 12.18, 109.23 18.11, 107.32 28.23 M107.32 9.41 C107.72 14.78, 107.55 20.44, 107.32 28.23 M107.32 28.23 C108.13 34.77, 103.83 39.1, 97.91 37.64 M107.32 28.23 C109.25 35.58, 104.62 39.23, 97.91 37.64 M97.91 37.64 C65.07 36.88, 36.01 38.37, 9.41 37.64 M97.91 37.64 C79.39 37.83, 60.44 38.14, 9.41 37.64 M9.41 37.64 C1.29 38.21, -0.63 35.93, 0 28.23 M9.41 37.64 C4.83 36.48, -1.05 32.79, 0 28.23 M0 28.23 C-0.8 25.48, -1.19 21.05, 0 9.41 M0 28.23 C0.35 22.61, -0.28 18.07, 0 9.41 M0 9.41 C-0.77 2.46, 1.37 -1.28, 9.41 0 M0 9.41 C-0.34 3.07, 2.33 1.03, 9.41 0"
			  stroke="#1e1e1e" stroke-width="1" fill="none"></path>
	</g>
	<g transform="translate(1795.4506781824875 684.6611819704249) rotate(0 44.99166488647461 12.5)">
		<text x="44.99166488647461" y="0" font-family="Virgil, Segoe UI Emoji" font-size="20px" fill="#1e1e1e"
			  text-anchor="middle" style="white-space: pre;" direction="ltr" dominant-baseline="text-before-edge">
			SubScribe
		</text>
	</g>
	<g transform="translate(1627.2929573918268 689.7364521454392) rotate(0 67.48958587646484 17.5)">
		<text x="0" y="0" font-family="Virgil, Segoe UI Emoji" font-size="28px" fill="#1e1e1e" text-anchor="start"
			  style="white-space: pre;" direction="ltr" dominant-baseline="text-before-edge">IObserver
		</text>
	</g>
	<g transform="translate(1392.1578833319102 21.92444115676244) rotate(0 152.55207824707037 22.5)">
		<text x="0" y="0" font-family="Virgil, Segoe UI Emoji" font-size="36px" fill="#1e1e1e" text-anchor="start"
			  style="white-space: pre;" direction="ltr" dominant-baseline="text-before-edge">Observer pattern
		</text>
	</g>
	<g transform="translate(1162.6123910642264 179.5799309586855) rotate(0 23.9375 10)">
		<text x="0" y="0" font-family="Virgil, Segoe UI Emoji" font-size="16px" fill="#1e1e1e" text-anchor="start"
			  style="white-space: pre;" direction="ltr" dominant-baseline="text-before-edge">object
		</text>
	</g>
	<g stroke-linecap="round"
	   transform="translate(2048.747424526162 167.82520853098322) rotate(0 108.06524798316309 27.57527017501343)">
		<path d="M13.79 0 C83.05 1.33, 152.09 2.64, 202.34 0 M13.79 0 C66.36 1.58, 118.99 2.29, 202.34 0 M202.34 0 C212.09 -0.22, 217.78 4.36, 216.13 13.79 M202.34 0 C210.91 -0.02, 214.26 4.81, 216.13 13.79 M216.13 13.79 C217.97 21.35, 217.94 26.75, 216.13 41.36 M216.13 13.79 C215.48 23.06, 216.4 31.62, 216.13 41.36 M216.13 41.36 C214.18 49.47, 212.12 55.76, 202.34 55.15 M216.13 41.36 C217.66 51.72, 212.52 56.28, 202.34 55.15 M202.34 55.15 C162.83 57.44, 125.27 56.77, 13.79 55.15 M202.34 55.15 C128.01 56.11, 52.45 56.3, 13.79 55.15 M13.79 55.15 C3.29 55.04, 0.73 49.54, 0 41.36 M13.79 55.15 C3.49 54.12, 0.57 48.42, 0 41.36 M0 41.36 C-1.01 30.95, 0.02 22.85, 0 13.79 M0 41.36 C-0.16 32.7, -0.65 24.33, 0 13.79 M0 13.79 C-1.4 4.38, 5.82 -0.28, 13.79 0 M0 13.79 C-2.17 6.36, 5.25 -0.02, 13.79 0"
			  stroke="#1e1e1e" stroke-width="1" fill="none"></path>
	</g>
	<g transform="translate(2065.8888086890092 175.9760375492342) rotate(0 85.01041412353516 17.5)">
		<text x="0" y="0" font-family="Virgil, Segoe UI Emoji" font-size="28px" fill="#1e1e1e" text-anchor="start"
			  style="white-space: pre;" direction="ltr" dominant-baseline="text-before-edge">UnSubscriber
		</text>
	</g>
	<g stroke-linecap="round">
		<g transform="translate(1971.9838345795024 192.8301439763136) rotate(0 35.88859623628025 -0.7202763406903614)">
			<path d="M1.08 0.4 C13.01 0.32, 60.17 -1.43, 71.88 -1.66 M0.19 -0.43 C11.94 -0.23, 59.29 0.21, 70.99 -0.23"
				  stroke="#1e1e1e" stroke-width="1" fill="none"></path>
		</g>
		<g transform="translate(1971.9838345795024 192.8301439763136) rotate(0 35.88859623628025 -0.7202763406903614)">
			<path d="M42.9 10.32 C52.92 6.77, 61.12 2.4, 70.99 -0.23 M42.9 10.32 C52.86 6.51, 61.3 3.33, 70.99 -0.23"
				  stroke="#1e1e1e" stroke-width="1" fill="none"></path>
		</g>
		<g transform="translate(1971.9838345795024 192.8301439763136) rotate(0 35.88859623628025 -0.7202763406903614)">
			<path d="M42.69 -10.2 C52.58 -7, 60.86 -4.62, 70.99 -0.23 M42.69 -10.2 C52.75 -7.05, 61.26 -3.27, 70.99 -0.23"
				  stroke="#1e1e1e" stroke-width="1" fill="none"></path>
		</g>
	</g>
	<mask></mask>
	<g stroke-linecap="round"
	   transform="translate(1843.7960921443023 224.1076881884519) rotate(0 64.09387121760017 30)">
		<path d="M15 0 C49.16 1.28, 81.17 0.28, 113.19 0 M15 0 C34.41 -0.99, 54.68 -0.67, 113.19 0 M113.19 0 C121.95 -0.38, 126.57 5.79, 128.19 15 M113.19 0 C122.7 0.34, 128.45 3.11, 128.19 15 M128.19 15 C128.6 26.41, 127.47 38.42, 128.19 45 M128.19 15 C127.38 25.96, 128.75 35.22, 128.19 45 M128.19 45 C129.73 55.65, 122.72 60.88, 113.19 60 M128.19 45 C129.46 56.02, 122.79 58.92, 113.19 60 M113.19 60 C88.11 60.93, 61.08 61.64, 15 60 M113.19 60 C78.97 60.38, 46.35 60.22, 15 60 M15 60 C5.46 61.28, -1.83 54.96, 0 45 M15 60 C4.39 58.17, 1.32 54.22, 0 45 M0 45 C0.28 38.35, 0.11 31.76, 0 15 M0 45 C0.55 35.06, 0.72 25.98, 0 15 M0 15 C-0.03 3.07, 6.92 -0.42, 15 0 M0 15 C0.11 3.63, 3.33 0.98, 15 0"
			  stroke="#1e1e1e" stroke-width="1" fill="none"></path>
	</g>
	<g transform="translate(1865.3482954236697 229.1076881884519) rotate(0 42.54166793823242 25)">
		<text x="42.54166793823242" y="0" font-family="Virgil, Segoe UI Emoji" font-size="20px" fill="#1e1e1e"
			  text-anchor="middle" style="white-space: pre;" direction="ltr" dominant-baseline="text-before-edge">OnNext
		</text>
		<text x="42.54166793823242" y="25" font-family="Virgil, Segoe UI Emoji" font-size="20px" fill="#1e1e1e"
			  text-anchor="middle" style="white-space: pre;" direction="ltr" dominant-baseline="text-before-edge">
			Observer
		</text>
	</g>
	<g stroke-linecap="round"
	   transform="translate(1785.6644415050837 728.0850457907409) rotate(0 67.82025907908837 17.5)">
		<path d="M8.75 0 C33.84 1.57, 62.11 1.64, 126.89 0 M8.75 0 C42.95 -1.12, 76.82 0.08, 126.89 0 M126.89 0 C131.99 -1.45, 136.02 1.79, 135.64 8.75 M126.89 0 C133.68 -1.37, 136.13 1.06, 135.64 8.75 M135.64 8.75 C134.68 13.93, 134.62 16.08, 135.64 26.25 M135.64 8.75 C136.36 12.51, 136.36 16.2, 135.64 26.25 M135.64 26.25 C136.59 32.38, 133.61 34.86, 126.89 35 M135.64 26.25 C133.69 31.42, 133.92 33.04, 126.89 35 M126.89 35 C97.24 35.03, 70.05 32.78, 8.75 35 M126.89 35 C92.92 35.06, 58.16 35.48, 8.75 35 M8.75 35 C2 36.64, -0.03 30.34, 0 26.25 M8.75 35 C2.5 33.31, 0.13 33.1, 0 26.25 M0 26.25 C-0.03 20.51, 0.75 17.81, 0 8.75 M0 26.25 C0.37 18.73, -0.53 11.99, 0 8.75 M0 8.75 C-1.38 3.78, 1.36 1.27, 8.75 0 M0 8.75 C1.08 1.6, 3.38 -1.09, 8.75 0"
			  stroke="#1e1e1e" stroke-width="1" fill="none"></path>
	</g>
	<g transform="translate(1796.6847013471115 733.0850457907409) rotate(0 56.79999923706055 12.5)">
		<text x="56.79999923706055" y="0" font-family="Virgil, Segoe UI Emoji" font-size="20px" fill="#1e1e1e"
			  text-anchor="middle" style="white-space: pre;" direction="ltr" dominant-baseline="text-before-edge">
			UnSubScribe
		</text>
	</g>
	<g stroke-linecap="round"
	   transform="translate(1787.1549966496787 772.8017001286034) rotate(0 53.65998520543258 18.82083641553527)">
		<path d="M9.41 0 C42.55 0.66, 80 -0.96, 97.91 0 M9.41 0 C40.2 -0.11, 73.53 0.96, 97.91 0 M97.91 0 C102.25 0.41, 106.54 2.52, 107.32 9.41 M97.91 0 C105.06 1.83, 107.46 4.56, 107.32 9.41 M107.32 9.41 C106.81 13.37, 109.04 21.03, 107.32 28.23 M107.32 9.41 C107.6 15.41, 107.31 19.57, 107.32 28.23 M107.32 28.23 C106.42 35.75, 103.17 37.21, 97.91 37.64 M107.32 28.23 C106.87 33.81, 102.52 35.91, 97.91 37.64 M97.91 37.64 C62.05 35.8, 27.25 37.73, 9.41 37.64 M97.91 37.64 C76.42 37.98, 54.58 38.59, 9.41 37.64 M9.41 37.64 C4 39.19, 1.1 33.89, 0 28.23 M9.41 37.64 C2.36 36.13, 1.3 33.23, 0 28.23 M0 28.23 C1.43 21.98, 1.56 14.59, 0 9.41 M0 28.23 C-0.5 21.44, -0.84 15.36, 0 9.41 M0 9.41 C1.06 1.44, 1.23 -0.79, 9.41 0 M0 9.41 C2.13 1.51, 5.23 -0.37, 9.41 0"
			  stroke="#1e1e1e" stroke-width="1" fill="none"></path>
	</g>
	<g transform="translate(1805.7149833809904 779.1225365441396) rotate(0 35.099998474121094 12.5)">
		<text x="35.099998474121094" y="0" font-family="Virgil, Segoe UI Emoji" font-size="20px" fill="#1e1e1e"
			  text-anchor="middle" style="white-space: pre;" direction="ltr" dominant-baseline="text-before-edge">OnNext
		</text>
	</g>
	<g stroke-linecap="round"
	   transform="translate(1787.1549966496787 821.9900199002504) rotate(0 53.65998520543258 18.82083641553527)">
		<path d="M9.41 0 C32.33 -0.92, 54.22 -0.89, 97.91 0 M9.41 0 C35.73 -1.11, 63.93 -1.57, 97.91 0 M97.91 0 C102.58 -1.25, 108.96 2.19, 107.32 9.41 M97.91 0 C103.93 -1.97, 105.63 3.13, 107.32 9.41 M107.32 9.41 C108.31 14.43, 108.33 18.42, 107.32 28.23 M107.32 9.41 C107.66 13.74, 106.46 19.38, 107.32 28.23 M107.32 28.23 C106.79 32.79, 102.85 35.93, 97.91 37.64 M107.32 28.23 C106.78 33.28, 102.11 38.88, 97.91 37.64 M97.91 37.64 C81.09 38.74, 60.12 38.68, 9.41 37.64 M97.91 37.64 C65.38 36.31, 33.76 37.93, 9.41 37.64 M9.41 37.64 C2.72 36.98, -1.17 35.85, 0 28.23 M9.41 37.64 C3.34 36.09, -2.29 33.96, 0 28.23 M0 28.23 C0.86 20.27, -0.71 14, 0 9.41 M0 28.23 C0.92 23.35, 0.31 18.56, 0 9.41 M0 9.41 C0.94 4.4, 2.54 -1.27, 9.41 0 M0 9.41 C0.74 1.36, 4.48 -2.01, 9.41 0"
			  stroke="#1e1e1e" stroke-width="1" fill="none"></path>
	</g>
	<g transform="translate(1803.706648267465 828.3108563157848) rotate(0 37.108333587646484 12.5)">
		<text x="37.108333587646484" y="0" font-family="Virgil, Segoe UI Emoji" font-size="20px" fill="#1e1e1e"
			  text-anchor="middle" style="white-space: pre;" direction="ltr" dominant-baseline="text-before-edge">
			OnError
		</text>
	</g>
	<g stroke-linecap="round"
	   transform="translate(1788.645551794274 871.1783396718956) rotate(0 67.07498150679066 17.5)">
		<path d="M8.75 0 C36.59 -1.78, 65.96 -0.91, 125.4 0 M8.75 0 C54.4 -0.84, 99.88 0.03, 125.4 0 M125.4 0 C131.22 0.11, 134.66 2.76, 134.15 8.75 M125.4 0 C132.61 -1.67, 135.3 3.33, 134.15 8.75 M134.15 8.75 C135.32 15.02, 135.27 17.99, 134.15 26.25 M134.15 8.75 C133.5 13.45, 134.03 20.63, 134.15 26.25 M134.15 26.25 C132.68 33.59, 129.6 36.75, 125.4 35 M134.15 26.25 C131.92 31.77, 129.02 34.7, 125.4 35 M125.4 35 C91.49 34.19, 58.98 36.36, 8.75 35 M125.4 35 C87.94 36.19, 50.94 35.65, 8.75 35 M8.75 35 C1.35 35.73, -0.5 33.41, 0 26.25 M8.75 35 C3.06 33.79, -2.12 32.34, 0 26.25 M0 26.25 C-0.71 21.78, -1.25 15.82, 0 8.75 M0 26.25 C0.61 21.4, -0.42 16.59, 0 8.75 M0 8.75 C0.35 4.08, 4.64 0.92, 8.75 0 M0 8.75 C1.14 4.03, 4.35 0.38, 8.75 0"
			  stroke="#1e1e1e" stroke-width="1" fill="none"></path>
	</g>
	<g transform="translate(1795.6372012392972 876.1783396718956) rotate(0 60.08333206176758 12.5)">
		<text x="60.08333206176758" y="0" font-family="Virgil, Segoe UI Emoji" font-size="20px" fill="#1e1e1e"
			  text-anchor="middle" style="white-space: pre;" direction="ltr" dominant-baseline="text-before-edge">
			OnCompleted
		</text>
	</g>
	<g stroke-linecap="round"
	   transform="translate(2632.6724024213927 118.63688875934349) rotate(0 188.55522579131207 90.17858624801784)">
		<path d="M32 0 C156.29 -0.14, 279.88 -0.76, 345.11 0 M32 0 C140.98 -0.02, 251.96 0.66, 345.11 0 M345.11 0 C367.95 1.98, 377.16 10.89, 377.11 32 M345.11 0 C368.67 2.15, 377.63 11.05, 377.11 32 M377.11 32 C374.96 73.14, 375.06 111.19, 377.11 148.36 M377.11 32 C377.41 55.33, 377.49 80.12, 377.11 148.36 M377.11 148.36 C376.78 168.44, 366.81 181.03, 345.11 180.36 M377.11 148.36 C377.91 169.52, 367.31 178.3, 345.11 180.36 M345.11 180.36 C268.21 179.71, 193.51 179.8, 32 180.36 M345.11 180.36 C245.05 177.8, 145.37 177.87, 32 180.36 M32 180.36 C10.28 178.9, -0.38 168.47, 0 148.36 M32 180.36 C11.82 179.36, 0.87 171.89, 0 148.36 M0 148.36 C2.02 111.13, 1.14 72.27, 0 32 M0 148.36 C1.26 108.42, -0.24 70.31, 0 32 M0 32 C-0.37 11.58, 11.43 -1.73, 32 0 M0 32 C2.09 8.63, 9.31 -0.75, 32 0"
			  stroke="#1e1e1e" stroke-width="1" fill="none"></path>
	</g>
	<g transform="translate(2662.4835053132992 149.4102122296299) rotate(0 81.65625 17.5)">
		<text x="0" y="0" font-family="Virgil, Segoe UI Emoji" font-size="28px" fill="#1e1e1e" text-anchor="start"
			  style="white-space: pre;" direction="ltr" dominant-baseline="text-before-edge">IObservable
		</text>
	</g>
	<g stroke-linecap="round"
	   transform="translate(2344.995259514489 90.31634101202872) rotate(0 493.3737528610617 190.79105850820497)">
		<path d="M32 0 C388.25 -2.32, 743.57 -2.31, 954.75 0 M32 0 C262.02 -1.25, 491.44 -1.6, 954.75 0 M954.75 0 C978.02 1.87, 987.2 11, 986.75 32 M954.75 0 C976.96 -1.09, 985.7 8.82, 986.75 32 M986.75 32 C983.8 154.89, 986.32 280, 986.75 349.58 M986.75 32 C988.52 95.14, 988.76 159.4, 986.75 349.58 M986.75 349.58 C987.45 370.77, 976.83 379.79, 954.75 381.58 M986.75 349.58 C985.46 370.15, 974.75 380.82, 954.75 381.58 M954.75 381.58 C635.98 384.27, 316.18 383.57, 32 381.58 M954.75 381.58 C756.04 378.53, 557.4 378.57, 32 381.58 M32 381.58 C11.67 380.72, 0.76 372.82, 0 349.58 M32 381.58 C11.29 380.08, 2.05 372.36, 0 349.58 M0 349.58 C0.12 240.38, -0.48 133.6, 0 32 M0 349.58 C1.83 270.97, 2.23 191.1, 0 32 M0 32 C1.81 8.89, 9.49 -0.65, 32 0 M0 32 C-1.3 11.95, 9.75 -1.38, 32 0"
			  stroke="#1e1e1e" stroke-width="1" fill="none"></path>
	</g>
	<g transform="translate(2377.787472695587 123.54244020529404) rotate(0 70.6875 22.5)">
		<text x="0" y="0" font-family="Virgil, Segoe UI Emoji" font-size="36px" fill="#1e1e1e" text-anchor="start"
			  style="white-space: pre;" direction="ltr" dominant-baseline="text-before-edge">Provider
		</text>
	</g>
	<g stroke-linecap="round"
	   transform="translate(2344.2499819421914 616.4823070541879) rotate(0 490.39264257187085 155.01773503791583)">
		<path d="M32 0 C219.27 4.19, 407.71 4.07, 948.79 0 M32 0 C398.39 -0.04, 764.09 -0.35, 948.79 0 M948.79 0 C970.88 -0.95, 979.87 9.06, 980.79 32 M948.79 0 C972.16 -1.72, 981.32 8.58, 980.79 32 M980.79 32 C980.93 97.3, 981.69 159.54, 980.79 278.04 M980.79 32 C981.44 90.34, 981.46 148.06, 980.79 278.04 M980.79 278.04 C979.67 298.7, 968.96 309.37, 948.79 310.04 M980.79 278.04 C981.83 301.38, 971.31 310.49, 948.79 310.04 M948.79 310.04 C584.8 310.99, 221.57 310.24, 32 310.04 M948.79 310.04 C740.91 307.63, 532.78 308.19, 32 310.04 M32 310.04 C11.21 308.73, 1.79 300.63, 0 278.04 M32 310.04 C11.62 310.48, 0.03 300.26, 0 278.04 M0 278.04 C-0.77 216.27, 1.4 157.08, 0 32 M0 278.04 C-0.03 192.29, -1.26 107.73, 0 32 M0 32 C-1.13 11.78, 9.87 -1.2, 32 0 M0 32 C-1.94 8.75, 9.67 -0.95, 32 0"
			  stroke="#1e1e1e" stroke-width="1" fill="none"></path>
	</g>
	<g stroke-linecap="round"
	   transform="translate(2870.415947984351 142.87243280801067) rotate(0 64.09387121760005 17.5)">
		<path d="M8.75 0 C32.39 0.5, 56.23 -0.95, 119.44 0 M8.75 0 C43.44 -0.87, 78.06 -1.51, 119.44 0 M119.44 0 C124.36 -1.6, 129.96 1.42, 128.19 8.75 M119.44 0 C125.81 -2.09, 127.26 4.95, 128.19 8.75 M128.19 8.75 C127.08 15.05, 126.92 22.25, 128.19 26.25 M128.19 8.75 C128.58 13.81, 127.76 20.14, 128.19 26.25 M128.19 26.25 C127.03 31.42, 126.18 36.75, 119.44 35 M128.19 26.25 C129.38 32.54, 127.49 32.98, 119.44 35 M119.44 35 C83.65 35.43, 49.39 35.45, 8.75 35 M119.44 35 C93.34 35.48, 66.76 33.87, 8.75 35 M8.75 35 C4.7 36.26, 0.83 32.47, 0 26.25 M8.75 35 C2.95 35.89, -1.26 32, 0 26.25 M0 26.25 C1.49 19.59, 0.89 14.24, 0 8.75 M0 26.25 C-0.67 22.23, -0.65 19.26, 0 8.75 M0 8.75 C-0.8 1.72, 1.23 -1.67, 8.75 0 M0 8.75 C-1 1.97, 3.01 1.38, 8.75 0"
			  stroke="#1e1e1e" stroke-width="1" fill="none"></path>
	</g>
	<g transform="translate(2890.1681520266584 147.87243280801067) rotate(0 44.34166717529297 12.5)">
		<text x="44.34166717529297" y="0" font-family="Virgil, Segoe UI Emoji" font-size="20px" fill="#1e1e1e"
			  text-anchor="middle" style="white-space: pre;" direction="ltr" dominant-baseline="text-before-edge">
			Subscribe
		</text>
	</g>
	<g transform="translate(2384.1591139803872 659.5667334163827) rotate(0 76.44791412353516 22.5)">
		<text x="0" y="0" font-family="Virgil, Segoe UI Emoji" font-size="36px" fill="#1e1e1e" text-anchor="start"
			  style="white-space: pre;" direction="ltr" dominant-baseline="text-before-edge">Observer
		</text>
	</g>
	<g transform="translate(2374.806362406396 169.31576367558228) rotate(0 52.61458206176758 37.5)">
		<text x="0" y="0" font-family="Virgil, Segoe UI Emoji" font-size="20px" fill="#1e1e1e" text-anchor="start"
			  style="white-space: pre;" direction="ltr" dominant-baseline="text-before-edge">Handler
		</text>
		<text x="0" y="25" font-family="Virgil, Segoe UI Emoji" font-size="20px" fill="#1e1e1e" text-anchor="start"
			  style="white-space: pre;" direction="ltr" dominant-baseline="text-before-edge">Subject
		</text>
		<text x="0" y="50" font-family="Virgil, Segoe UI Emoji" font-size="20px" fill="#1e1e1e" text-anchor="start"
			  style="white-space: pre;" direction="ltr" dominant-baseline="text-before-edge">Observable
		</text>
	</g>
	<g stroke-linecap="round">
		<g transform="translate(2932.2739864850582 471.89845802843956) rotate(0 18.07087652377868 70.80136936827967)">
			<path d="M0.27 0.2 C6.86 11.59, 41.52 46.08, 40.7 69.49 C39.88 92.89, 2.64 128.77, -4.65 140.64 M-1.05 -0.74 C5.32 11.32, 40.77 47.03, 40 70.73 C39.22 94.43, 1.94 129.68, -5.7 141.45"
				  stroke="#1e1e1e" stroke-width="1" fill="none"></path>
		</g>
		<g transform="translate(2932.2739864850582 471.89845802843956) rotate(0 18.07087652377868 70.80136936827967)">
			<path d="M4.22 113.14 C0.88 125.17, -4.34 134.73, -5.7 141.45 M4.22 113.14 C2.53 118.38, -0.29 126.4, -5.7 141.45"
				  stroke="#1e1e1e" stroke-width="1" fill="none"></path>
		</g>
		<g transform="translate(2932.2739864850582 471.89845802843956) rotate(0 18.07087652377868 70.80136936827967)">
			<path d="M20.1 126.15 C10.33 133.05, -1.19 137.44, -5.7 141.45 M20.1 126.15 C14.79 128.41, 8.49 133.57, -5.7 141.45"
				  stroke="#1e1e1e" stroke-width="1" fill="none"></path>
		</g>
	</g>
	<mask></mask>
	<g transform="translate(2994.877302558063 521.5206638122527) rotate(0 117.41666412353516 22.5)">
		<text x="0" y="0" font-family="Virgil, Segoe UI Emoji" font-size="36px" fill="#1e1e1e" text-anchor="start"
			  style="white-space: pre;" direction="ltr" dominant-baseline="text-before-edge">Event(object)
		</text>
	</g>
	<g stroke-linecap="round"
	   transform="translate(2640.12517814437 643.3122996569018) rotate(0 169.92328648387024 136.38579573047673)">
		<path d="M32 0 C124.07 2.35, 217.46 1.33, 307.85 0 M32 0 C90.26 -2.65, 147.99 -2.3, 307.85 0 M307.85 0 C328.85 -1.25, 340.21 11.34, 339.85 32 M307.85 0 C329.98 -0.17, 340.71 8.61, 339.85 32 M339.85 32 C338.64 83.77, 340.78 134.83, 339.85 240.77 M339.85 32 C341.71 98.02, 342.29 164.87, 339.85 240.77 M339.85 240.77 C339.46 260.64, 328.8 271.56, 307.85 272.77 M339.85 240.77 C341 261.11, 330.05 274.97, 307.85 272.77 M307.85 272.77 C218.6 275.32, 127.71 274.7, 32 272.77 M307.85 272.77 C214.86 272.29, 120.24 273.31, 32 272.77 M32 272.77 C10.29 273.68, 0.77 260.38, 0 240.77 M32 272.77 C12.75 270.73, -1.36 261.35, 0 240.77 M0 240.77 C-2.09 188.42, -2.51 138.28, 0 32 M0 240.77 C-0.84 186.58, 0.17 132.59, 0 32 M0 32 C-1.26 10.3, 11.25 1.96, 32 0 M0 32 C1.22 10.22, 12.27 -0.8, 32 0"
			  stroke="#1e1e1e" stroke-width="1" fill="none"></path>
	</g>
	<g transform="translate(2655.030729590323 691.9722848623369) rotate(0 67.48958587646484 17.499999999999545)">
		<text x="0" y="0" font-family="Virgil, Segoe UI Emoji" font-size="28px" fill="#1e1e1e" text-anchor="start"
			  style="white-space: pre;" direction="ltr" dominant-baseline="text-before-edge">IObserver
		</text>
	</g>
	<g stroke-linecap="round"
	   transform="translate(2828.3077651495328 691.5664447481622) rotate(0 53.65998520543258 18.82083641553527)">
		<path d="M9.41 0 C30.35 1.43, 54.36 1.55, 97.91 0 M9.41 0 C37.81 -0.07, 66.76 0.03, 97.91 0 M97.91 0 C103.79 -1.46, 106.94 1.92, 107.32 9.41 M97.91 0 C105.34 -0.99, 108.19 5.33, 107.32 9.41 M107.32 9.41 C108.38 16.35, 107.56 21.75, 107.32 28.23 M107.32 9.41 C107.8 15.3, 106.39 22.92, 107.32 28.23 M107.32 28.23 C106.95 35.42, 104.95 35.91, 97.91 37.64 M107.32 28.23 C109.41 32.47, 102.83 36.89, 97.91 37.64 M97.91 37.64 C75.15 35.6, 53.12 36.42, 9.41 37.64 M97.91 37.64 C74.16 37.95, 52.41 37.97, 9.41 37.64 M9.41 37.64 C1.88 37.28, 0.58 36.46, 0 28.23 M9.41 37.64 C4.36 37.2, 1.6 33.71, 0 28.23 M0 28.23 C1.11 23.91, -0.97 17.1, 0 9.41 M0 28.23 C-0.24 23.61, 0.39 16.78, 0 9.41 M0 9.41 C1.05 3.46, 1.21 1.37, 9.41 0 M0 9.41 C0.02 2.41, 2.43 1.19, 9.41 0"
			  stroke="#1e1e1e" stroke-width="1" fill="none"></path>
	</g>
	<g transform="translate(2846.867751880844 697.8872811636966) rotate(0 35.099998474121094 12.5)">
		<text x="35.099998474121094" y="0" font-family="Virgil, Segoe UI Emoji" font-size="20px" fill="#1e1e1e"
			  text-anchor="middle" style="white-space: pre;" direction="ltr" dominant-baseline="text-before-edge">OnNext
		</text>
	</g>
	<g stroke-linecap="round"
	   transform="translate(2829.7983202941277 736.2830990860211) rotate(0 53.65998520543258 18.82083641553527)">
		<path d="M9.41 0 C40.39 1.47, 68.83 -0.26, 97.91 0 M9.41 0 C28.27 -0.07, 47.32 0.05, 97.91 0 M97.91 0 C105.19 -0.86, 108.08 5.05, 107.32 9.41 M97.91 0 C104.81 -1.5, 109.37 4.58, 107.32 9.41 M107.32 9.41 C108.09 14.8, 107.28 23.43, 107.32 28.23 M107.32 9.41 C106.98 14.52, 107.52 17.95, 107.32 28.23 M107.32 28.23 C109.13 32.73, 103 36.99, 97.91 37.64 M107.32 28.23 C106.02 35.79, 103.26 36.26, 97.91 37.64 M97.91 37.64 C77.99 37.34, 60.92 35.53, 9.41 37.64 M97.91 37.64 C72.66 37.28, 48.97 38.44, 9.41 37.64 M9.41 37.64 C4.2 37.25, 1.39 33.81, 0 28.23 M9.41 37.64 C3.39 37.97, 0.8 35.89, 0 28.23 M0 28.23 C-0.11 22.13, 1.67 13.62, 0 9.41 M0 28.23 C0.39 21.1, -1 14.31, 0 9.41 M0 9.41 C0.01 2.51, 2.53 1.03, 9.41 0 M0 9.41 C0.59 4.57, 1.52 2.21, 9.41 0"
			  stroke="#1e1e1e" stroke-width="1" fill="none"></path>
	</g>
	<g transform="translate(2846.3499719119136 742.6039355015573) rotate(0 37.108333587646484 12.5)">
		<text x="37.108333587646484" y="0" font-family="Virgil, Segoe UI Emoji" font-size="20px" fill="#1e1e1e"
			  text-anchor="middle" style="white-space: pre;" direction="ltr" dominant-baseline="text-before-edge">
			OnError
		</text>
	</g>
	<g stroke-linecap="round"
	   transform="translate(2829.798320294128 782.4903085684755) rotate(0 67.07498150679066 17.5)">
		<path d="M8.75 0 C53.28 1.38, 99.7 -0.51, 125.4 0 M8.75 0 C35.73 0.28, 62.08 1.66, 125.4 0 M125.4 0 C131.77 -1.3, 135.94 4.17, 134.15 8.75 M125.4 0 C132.19 0.44, 134.18 3.81, 134.15 8.75 M134.15 8.75 C133.24 11.5, 135.55 17.01, 134.15 26.25 M134.15 8.75 C135.01 14.02, 133.7 20.56, 134.15 26.25 M134.15 26.25 C133.02 33.2, 130.43 33.8, 125.4 35 M134.15 26.25 C132.21 30.17, 130.23 34.05, 125.4 35 M125.4 35 C89.47 34.56, 54.01 32.73, 8.75 35 M125.4 35 C93.07 35.95, 60.38 35.79, 8.75 35 M8.75 35 C3.14 35.28, 0.69 33.29, 0 26.25 M8.75 35 C4.79 33.85, 0.71 31.83, 0 26.25 M0 26.25 C1.37 20.92, -1.2 14.67, 0 8.75 M0 26.25 C0.17 20.44, -0.1 15.63, 0 8.75 M0 8.75 C0.51 4.16, 1.51 1.92, 8.75 0 M0 8.75 C-1.3 1.65, 2.6 0.89, 8.75 0"
			  stroke="#1e1e1e" stroke-width="1" fill="none"></path>
	</g>
	<g transform="translate(2836.7899697391513 787.4903085684755) rotate(0 60.08333206176758 12.5)">
		<text x="60.08333206176758" y="0" font-family="Virgil, Segoe UI Emoji" font-size="20px" fill="#1e1e1e"
			  text-anchor="middle" style="white-space: pre;" direction="ltr" dominant-baseline="text-before-edge">
			OnCompleted
		</text>
	</g>
	<g transform="translate(2397.5781598454882 29.458879847768003) rotate(0 22.28125 22.5)">
		<text x="0" y="0" font-family="Virgil, Segoe UI Emoji" font-size="36px" fill="#1e1e1e" text-anchor="start"
			  style="white-space: pre;" direction="ltr" dominant-baseline="text-before-edge">Rx
		</text>
	</g>
</svg>