<svg version="1.1" xmlns="http://www.w3.org/2000/svg" viewBox="0 0 677.7046465125709 250.44641720522304" width="677.7046465125709" height="250.44641720522304">
  <!-- svg-source:excalidraw -->
  
  <defs>
    <style class="style-fonts">
      @font-face {
        font-family: "Virgil";
        src: url("https://excalidraw.com/Virgil.woff2");
      }
      @font-face {
        font-family: "Cascadia";
        src: url("https://excalidraw.com/Cascadia.woff2");
      }
      @font-face {
        font-family: "Assistant";
        src: url("https://excalidraw.com/Assistant-Regular.woff2");
      }
    </style>
    
  </defs>
  <rect x="0" y="0" width="677.7046465125709" height="250.44641720522304" fill="#ffffff"></rect><g stroke-linecap="round" transform="translate(364.7757872243965 160.44641720522304) rotate(0 65.96575163669081 40)"><path d="M20 0 C53.51 0, 87.01 0, 111.93 0 M20 0 C40.36 0, 60.71 0, 111.93 0 M111.93 0 C125.26 0, 131.93 6.67, 131.93 20 M111.93 0 C125.26 0, 131.93 6.67, 131.93 20 M131.93 20 C131.93 33.84, 131.93 47.68, 131.93 60 M131.93 20 C131.93 31.42, 131.93 42.83, 131.93 60 M131.93 60 C131.93 73.33, 125.26 80, 111.93 80 M131.93 60 C131.93 73.33, 125.26 80, 111.93 80 M111.93 80 C85.25 80, 58.57 80, 20 80 M111.93 80 C75.35 80, 38.76 80, 20 80 M20 80 C6.67 80, 0 73.33, 0 60 M20 80 C6.67 80, 0 73.33, 0 60 M0 60 C0 45.59, 0 31.18, 0 20 M0 60 C0 47.6, 0 35.21, 0 20 M0 20 C0 6.67, 6.67 0, 20 0 M0 20 C0 6.67, 6.67 0, 20 0" stroke="#1e1e1e" stroke-width="2" fill="none"></path></g><g transform="translate(370.6082037475617 182.94641720522304) rotate(0 60.13333511352539 17.5)"><text x="60.13333511352539" y="24.528" font-family="Virgil, Segoe UI Emoji" font-size="28px" fill="#1e1e1e" text-anchor="middle" style="white-space: pre;" direction="ltr" dominant-baseline="alphabetic">PostTag</text></g><g stroke-linecap="round" transform="translate(197.40261406626087 14.00647809143993) rotate(0 65 36.66666666666697)"><path d="M18.33 0 C52.2 0, 86.07 0, 111.67 0 M18.33 0 C42.76 0, 67.19 0, 111.67 0 M111.67 0 C123.89 0, 130 6.11, 130 18.33 M111.67 0 C123.89 0, 130 6.11, 130 18.33 M130 18.33 C130 28.51, 130 38.68, 130 55 M130 18.33 C130 28.97, 130 39.61, 130 55 M130 55 C130 67.22, 123.89 73.33, 111.67 73.33 M130 55 C130 67.22, 123.89 73.33, 111.67 73.33 M111.67 73.33 C80.68 73.33, 49.7 73.33, 18.33 73.33 M111.67 73.33 C89.26 73.33, 66.86 73.33, 18.33 73.33 M18.33 73.33 C6.11 73.33, 0 67.22, 0 55 M18.33 73.33 C6.11 73.33, 0 67.22, 0 55 M0 55 C0 46.33, 0 37.65, 0 18.33 M0 55 C0 43.55, 0 32.1, 0 18.33 M0 18.33 C0 6.11, 6.11 0, 18.33 0 M0 18.33 C0 6.11, 6.11 0, 18.33 0" stroke="#1e1e1e" stroke-width="2" fill="none"></path></g><g transform="translate(233.7692808600841 33.1731447581069) rotate(0 28.633333206176758 17.5)"><text x="28.633333206176758" y="24.528" font-family="Virgil, Segoe UI Emoji" font-size="28px" fill="#1e1e1e" text-anchor="middle" style="white-space: pre;" direction="ltr" dominant-baseline="alphabetic">Blog</text></g><g stroke-linecap="round" transform="translate(193.8256485387965 165.3862544823496) rotate(0 65 36.66666666666697)"><path d="M18.33 0 C45.71 0, 73.08 0, 111.67 0 M18.33 0 C42.01 0, 65.69 0, 111.67 0 M111.67 0 C123.89 0, 130 6.11, 130 18.33 M111.67 0 C123.89 0, 130 6.11, 130 18.33 M130 18.33 C130 30.29, 130 42.24, 130 55 M130 18.33 C130 30.94, 130 43.54, 130 55 M130 55 C130 67.22, 123.89 73.33, 111.67 73.33 M130 55 C130 67.22, 123.89 73.33, 111.67 73.33 M111.67 73.33 C88.26 73.33, 64.84 73.33, 18.33 73.33 M111.67 73.33 C91.25 73.33, 70.83 73.33, 18.33 73.33 M18.33 73.33 C6.11 73.33, 0 67.22, 0 55 M18.33 73.33 C6.11 73.33, 0 67.22, 0 55 M0 55 C0 46.87, 0 38.75, 0 18.33 M0 55 C0 42.68, 0 30.37, 0 18.33 M0 18.33 C0 6.11, 6.11 0, 18.33 0 M0 18.33 C0 6.11, 6.11 0, 18.33 0" stroke="#1e1e1e" stroke-width="2" fill="none"></path></g><g transform="translate(226.30898212644297 184.55292114901658) rotate(0 32.516666412353516 17.5)"><text x="32.516666412353516" y="24.528" font-family="Virgil, Segoe UI Emoji" font-size="28px" fill="#1e1e1e" text-anchor="middle" style="white-space: pre;" direction="ltr" dominant-baseline="alphabetic">Post</text></g><g stroke-linecap="round"><g transform="translate(256.7648228825328 89.53184031697128) rotate(0 0.6182476968792798 37.5070269440148)"><path d="M0 0 C0.21 12.5, 1.03 62.51, 1.24 75.01 M0 0 C0.21 12.5, 1.03 62.51, 1.24 75.01" stroke="#1e1e1e" stroke-width="2" fill="none"></path></g></g><mask></mask><g transform="translate(262.2011185165411 87.94556442670728) rotate(0 2.1666667461395264 10)"><text x="0" y="14.016" font-family="Virgil, Segoe UI Emoji" font-size="16px" fill="#1e1e1e" text-anchor="start" style="white-space: pre;" direction="ltr" dominant-baseline="alphabetic">1</text></g><g stroke-linecap="round" transform="translate(10 163.32542882608323) rotate(0 65 36.66666666666697)"><path d="M18.33 0 C53.54 0, 88.76 0, 111.67 0 M18.33 0 C42.61 0, 66.88 0, 111.67 0 M111.67 0 C123.89 0, 130 6.11, 130 18.33 M111.67 0 C123.89 0, 130 6.11, 130 18.33 M130 18.33 C130 29.01, 130 39.69, 130 55 M130 18.33 C130 26.02, 130 33.71, 130 55 M130 55 C130 67.22, 123.89 73.33, 111.67 73.33 M130 55 C130 67.22, 123.89 73.33, 111.67 73.33 M111.67 73.33 C75.35 73.33, 39.04 73.33, 18.33 73.33 M111.67 73.33 C85.18 73.33, 58.7 73.33, 18.33 73.33 M18.33 73.33 C6.11 73.33, 0 67.22, 0 55 M18.33 73.33 C6.11 73.33, 0 67.22, 0 55 M0 55 C0 43.55, 0 32.11, 0 18.33 M0 55 C0 45.77, 0 36.53, 0 18.33 M0 18.33 C0 6.11, 6.11 0, 18.33 0 M0 18.33 C0 6.11, 6.11 0, 18.33 0" stroke="#1e1e1e" stroke-width="2" fill="none"></path></g><g transform="translate(29.266666412353516 182.4920954927502) rotate(0 45.733333587646484 17.5)"><text x="45.733333587646484" y="24.528" font-family="Virgil, Segoe UI Emoji" font-size="28px" fill="#1e1e1e" text-anchor="middle" style="white-space: pre;" direction="ltr" dominant-baseline="alphabetic">Author</text></g><g stroke-linecap="round"><g transform="translate(325.18423467051525 201.22859088650875) rotate(0 18.54743090638067 0.20608256562627503)"><path d="M0 0 C6.18 0.07, 30.91 0.34, 37.09 0.41 M0 0 C6.18 0.07, 30.91 0.34, 37.09 0.41" stroke="#1e1e1e" stroke-width="2" fill="none"></path></g></g><mask></mask><g stroke-linecap="round" transform="translate(537.7046465125709 159.6429181173662) rotate(0 65 36.66666666666697)"><path d="M18.33 0 C49.3 0, 80.27 0, 111.67 0 M18.33 0 C42.52 0, 66.71 0, 111.67 0 M111.67 0 C123.89 0, 130 6.11, 130 18.33 M111.67 0 C123.89 0, 130 6.11, 130 18.33 M130 18.33 C130 31.54, 130 44.74, 130 55 M130 18.33 C130 26.9, 130 35.47, 130 55 M130 55 C130 67.22, 123.89 73.33, 111.67 73.33 M130 55 C130 67.22, 123.89 73.33, 111.67 73.33 M111.67 73.33 C83.19 73.33, 54.71 73.33, 18.33 73.33 M111.67 73.33 C79.17 73.33, 46.67 73.33, 18.33 73.33 M18.33 73.33 C6.11 73.33, 0 67.22, 0 55 M18.33 73.33 C6.11 73.33, 0 67.22, 0 55 M0 55 C0 43.12, 0 31.24, 0 18.33 M0 55 C0 47.42, 0 39.85, 0 18.33 M0 18.33 C0 6.11, 6.11 0, 18.33 0 M0 18.33 C0 6.11, 6.11 0, 18.33 0" stroke="#1e1e1e" stroke-width="2" fill="none"></path></g><g transform="translate(575.0879797187476 178.80958478403318) rotate(0 27.616666793823242 17.5)"><text x="27.616666793823242" y="24.528" font-family="Virgil, Segoe UI Emoji" font-size="28px" fill="#1e1e1e" text-anchor="middle" style="white-space: pre;" direction="ltr" dominant-baseline="alphabetic">Tag</text></g><g stroke-linecap="round"><g transform="translate(192.05489727582608 199.9920954927511) rotate(0 -25.348155572053884 0.20608256562672977)"><path d="M0 0 C-8.45 0.07, -42.25 0.34, -50.7 0.41 M0 0 C-8.45 0.07, -42.25 0.34, -50.7 0.41" stroke="#1e1e1e" stroke-width="2" fill="none"></path></g></g><mask></mask><g stroke-linecap="round" transform="translate(371.88098524005363 10) rotate(0 65 36.66666666666697)"><path d="M18.33 0 C41.31 0, 64.29 0, 111.67 0 M18.33 0 C53.6 0, 88.87 0, 111.67 0 M111.67 0 C123.89 0, 130 6.11, 130 18.33 M111.67 0 C123.89 0, 130 6.11, 130 18.33 M130 18.33 C130 30.04, 130 41.75, 130 55 M130 18.33 C130 26.86, 130 35.39, 130 55 M130 55 C130 67.22, 123.89 73.33, 111.67 73.33 M130 55 C130 67.22, 123.89 73.33, 111.67 73.33 M111.67 73.33 C75.94 73.33, 40.22 73.33, 18.33 73.33 M111.67 73.33 C88.11 73.33, 64.56 73.33, 18.33 73.33 M18.33 73.33 C6.11 73.33, 0 67.22, 0 55 M18.33 73.33 C6.11 73.33, 0 67.22, 0 55 M0 55 C0 47.33, 0 39.66, 0 18.33 M0 55 C0 41.24, 0 27.48, 0 18.33 M0 18.33 C0 6.11, 6.11 0, 18.33 0 M0 18.33 C0 6.11, 6.11 0, 18.33 0" stroke="#1e1e1e" stroke-width="2" fill="none"></path></g><g transform="translate(394.3059844771142 29.16666666666697) rotate(0 42.57500076293945 17.5)"><text x="42.57500076293945" y="24.528" font-family="Virgil, Segoe UI Emoji" font-size="28px" fill="#1e1e1e" text-anchor="middle" style="white-space: pre;" direction="ltr" dominant-baseline="alphabetic">Detail</text></g><g stroke-linecap="round"><g transform="translate(327.6572254580333 47.4909969291748) rotate(0 22.25691708765703 0)"><path d="M0 0 C7.42 0, 37.09 0, 44.51 0 M0 0 C7.42 0, 37.09 0, 44.51 0" stroke="#1e1e1e" stroke-width="2" fill="none"></path></g></g><mask></mask><g transform="translate(263.1547177941484 146.20474593602557) rotate(0 3.7333333492279053 10)"><text x="0" y="14.016" font-family="Virgil, Segoe UI Emoji" font-size="16px" fill="#1e1e1e" text-anchor="start" style="white-space: pre;" direction="ltr" dominant-baseline="alphabetic">n</text></g><g transform="translate(142.75768042001255 200.93067201517806) rotate(0 2.1666667461395264 10)"><text x="0" y="14.016" font-family="Virgil, Segoe UI Emoji" font-size="16px" fill="#1e1e1e" text-anchor="start" style="white-space: pre;" direction="ltr" dominant-baseline="alphabetic">1</text></g><g transform="translate(182.39641698240484 201.57450643963966) rotate(0 3.7333333492279053 10)"><text x="0" y="14.016" font-family="Virgil, Segoe UI Emoji" font-size="16px" fill="#1e1e1e" text-anchor="start" style="white-space: pre;" direction="ltr" dominant-baseline="alphabetic">n</text></g><g transform="translate(325.3276592126622 197.0676654684139) rotate(0 3.7333333492279053 10)"><text x="0" y="14.016" font-family="Virgil, Segoe UI Emoji" font-size="16px" fill="#1e1e1e" text-anchor="start" style="white-space: pre;" direction="ltr" dominant-baseline="alphabetic">n</text></g><g transform="translate(353.0125394644692 197.7114998928737) rotate(0 2.1666667461395264 10)"><text x="0" y="14.016" font-family="Virgil, Segoe UI Emoji" font-size="16px" fill="#1e1e1e" text-anchor="start" style="white-space: pre;" direction="ltr" dominant-baseline="alphabetic">1</text></g><g transform="translate(331.4011667869745 27.095377410811125) rotate(0 2.1666667461395264 10)"><text x="0" y="14.016" font-family="Virgil, Segoe UI Emoji" font-size="16px" fill="#1e1e1e" text-anchor="start" style="white-space: pre;" direction="ltr" dominant-baseline="alphabetic">1</text></g><g transform="translate(362.3052191610841 26.451542986349523) rotate(0 2.1666667461395264 10)"><text x="0" y="14.016" font-family="Virgil, Segoe UI Emoji" font-size="16px" fill="#1e1e1e" text-anchor="start" style="white-space: pre;" direction="ltr" dominant-baseline="alphabetic">1</text></g><g stroke-linecap="round"><g transform="translate(499.4336724691193 196.7466018979021) rotate(0 18.54743090638067 0.20608256562627503)"><path d="M0 0 C6.18 0.07, 30.91 0.34, 37.09 0.41 M0 0 C6.18 0.07, 30.91 0.34, 37.09 0.41" stroke="#1e1e1e" stroke-width="2" fill="none"></path></g></g><mask></mask><g transform="translate(499.5770970112653 192.58567647980726) rotate(0 2.1666667461395264 10)"><text x="0" y="14.016" font-family="Virgil, Segoe UI Emoji" font-size="16px" fill="#1e1e1e" text-anchor="start" style="white-space: pre;" direction="ltr" dominant-baseline="alphabetic">1</text></g><g transform="translate(527.2619772630724 193.22951090426704) rotate(0 3.7333333492279053 10)"><text x="0" y="14.016" font-family="Virgil, Segoe UI Emoji" font-size="16px" fill="#1e1e1e" text-anchor="start" style="white-space: pre;" direction="ltr" dominant-baseline="alphabetic">n</text></g></svg>