<svg version="1.1" xmlns="http://www.w3.org/2000/svg" viewBox="0 0 511.8809852400541 248.71958781568173" width="511.8809852400541" height="248.71958781568173">
  <!-- svg-source:excalidraw -->
  
  <defs>
    <style class="style-fonts">
      @font-face {
        font-family: "Virgil";
        src: url("https://excalidraw.com/Virgil.woff2");
      }
      @font-face {
        font-family: "Cascadia";
        src: url("https://excalidraw.com/Cascadia.woff2");
      }
      @font-face {
        font-family: "Assistant";
        src: url("https://excalidraw.com/Assistant-Regular.woff2");
      }
    </style>
    
  </defs>
  <rect x="0" y="0" width="511.8809852400541" height="248.71958781568173" fill="#ffffff"></rect><g stroke-linecap="round" transform="translate(197.40261406626178 14.006478091438112) rotate(0 65 36.66666666666697)"><path d="M18.33 0 C50 0, 81.66 0, 111.67 0 M18.33 0 C50.76 0, 83.19 0, 111.67 0 M111.67 0 C123.89 0, 130 6.11, 130 18.33 M111.67 0 C123.89 0, 130 6.11, 130 18.33 M130 18.33 C130 29.89, 130 41.44, 130 55 M130 18.33 C130 26.48, 130 34.63, 130 55 M130 55 C130 67.22, 123.89 73.33, 111.67 73.33 M130 55 C130 67.22, 123.89 73.33, 111.67 73.33 M111.67 73.33 C85.53 73.33, 59.39 73.33, 18.33 73.33 M111.67 73.33 C87.85 73.33, 64.04 73.33, 18.33 73.33 M18.33 73.33 C6.11 73.33, 0 67.22, 0 55 M18.33 73.33 C6.11 73.33, 0 67.22, 0 55 M0 55 C0 44.55, 0 34.09, 0 18.33 M0 55 C0 45.6, 0 36.2, 0 18.33 M0 18.33 C0 6.11, 6.11 0, 18.33 0 M0 18.33 C0 6.11, 6.11 0, 18.33 0" stroke="#1e1e1e" stroke-width="2" fill="none"></path></g><g transform="translate(233.76928086008502 33.17314475810508) rotate(0 28.633333206176758 17.5)"><text x="28.633333206176758" y="24.528" font-family="Virgil, Segoe UI Emoji" font-size="28px" fill="#1e1e1e" text-anchor="middle" style="white-space: pre;" direction="ltr" dominant-baseline="alphabetic">Blog</text></g><g stroke-linecap="round" transform="translate(193.82564853879694 165.3862544823478) rotate(0 65 36.66666666666697)"><path d="M18.33 0 C51.21 0, 84.09 0, 111.67 0 M18.33 0 C46.11 0, 73.89 0, 111.67 0 M111.67 0 C123.89 0, 130 6.11, 130 18.33 M111.67 0 C123.89 0, 130 6.11, 130 18.33 M130 18.33 C130 32.96, 130 47.59, 130 55 M130 18.33 C130 30.79, 130 43.24, 130 55 M130 55 C130 67.22, 123.89 73.33, 111.67 73.33 M130 55 C130 67.22, 123.89 73.33, 111.67 73.33 M111.67 73.33 C78.63 73.33, 45.6 73.33, 18.33 73.33 M111.67 73.33 C91.66 73.33, 71.64 73.33, 18.33 73.33 M18.33 73.33 C6.11 73.33, 0 67.22, 0 55 M18.33 73.33 C6.11 73.33, 0 67.22, 0 55 M0 55 C0 42.88, 0 30.76, 0 18.33 M0 55 C0 45.11, 0 35.23, 0 18.33 M0 18.33 C0 6.11, 6.11 0, 18.33 0 M0 18.33 C0 6.11, 6.11 0, 18.33 0" stroke="#1e1e1e" stroke-width="2" fill="none"></path></g><g transform="translate(226.30898212644342 184.55292114901476) rotate(0 32.516666412353516 17.5)"><text x="32.516666412353516" y="24.528" font-family="Virgil, Segoe UI Emoji" font-size="28px" fill="#1e1e1e" text-anchor="middle" style="white-space: pre;" direction="ltr" dominant-baseline="alphabetic">Post</text></g><g stroke-linecap="round"><g transform="translate(256.7648228825333 89.53184031697037) rotate(0 0.6182476968792798 37.5070269440148)"><path d="M0 0 C0.21 12.5, 1.03 62.51, 1.24 75.01 M0 0 C0.21 12.5, 1.03 62.51, 1.24 75.01" stroke="#1e1e1e" stroke-width="2" fill="none"></path></g></g><mask></mask><g transform="translate(262.2011185165411 87.94556442670637) rotate(0 2.1666667461395264 10)"><text x="0" y="14.016" font-family="Virgil, Segoe UI Emoji" font-size="16px" fill="#1e1e1e" text-anchor="start" style="white-space: pre;" direction="ltr" dominant-baseline="alphabetic">1</text></g><g stroke-linecap="round" transform="translate(10 163.32542882608323) rotate(0 65 36.66666666666697)"><path d="M18.33 0 C49.75 0, 81.17 0, 111.67 0 M18.33 0 C41.01 0, 63.68 0, 111.67 0 M111.67 0 C123.89 0, 130 6.11, 130 18.33 M111.67 0 C123.89 0, 130 6.11, 130 18.33 M130 18.33 C130 30.74, 130 43.14, 130 55 M130 18.33 C130 27, 130 35.68, 130 55 M130 55 C130 67.22, 123.89 73.33, 111.67 73.33 M130 55 C130 67.22, 123.89 73.33, 111.67 73.33 M111.67 73.33 C89.94 73.33, 68.22 73.33, 18.33 73.33 M111.67 73.33 C85.98 73.33, 60.3 73.33, 18.33 73.33 M18.33 73.33 C6.11 73.33, 0 67.22, 0 55 M18.33 73.33 C6.11 73.33, 0 67.22, 0 55 M0 55 C0 41.62, 0 28.25, 0 18.33 M0 55 C0 41.24, 0 27.48, 0 18.33 M0 18.33 C0 6.11, 6.11 0, 18.33 0 M0 18.33 C0 6.11, 6.11 0, 18.33 0" stroke="#1e1e1e" stroke-width="2" fill="none"></path></g><g transform="translate(29.266666412353516 182.4920954927502) rotate(0 45.733333587646484 17.5)"><text x="45.733333587646484" y="24.528" font-family="Virgil, Segoe UI Emoji" font-size="28px" fill="#1e1e1e" text-anchor="middle" style="white-space: pre;" direction="ltr" dominant-baseline="alphabetic">Author</text></g><g stroke-linecap="round"><g transform="translate(325.1842346705157 201.22859088650875) rotate(0 18.54743090638067 0.20608256562627503)"><path d="M0 0 C6.18 0.07, 30.91 0.34, 37.09 0.41 M0 0 C6.18 0.07, 30.91 0.34, 37.09 0.41" stroke="#1e1e1e" stroke-width="2" fill="none"></path></g></g><mask></mask><g stroke-linecap="round" transform="translate(363.2255174837428 164.14975908858924) rotate(0 65 36.66666666666697)"><path d="M18.33 0 C43.26 0, 68.18 0, 111.67 0 M18.33 0 C48.79 0, 79.24 0, 111.67 0 M111.67 0 C123.89 0, 130 6.11, 130 18.33 M111.67 0 C123.89 0, 130 6.11, 130 18.33 M130 18.33 C130 26.07, 130 33.81, 130 55 M130 18.33 C130 30.55, 130 42.76, 130 55 M130 55 C130 67.22, 123.89 73.33, 111.67 73.33 M130 55 C130 67.22, 123.89 73.33, 111.67 73.33 M111.67 73.33 C89.07 73.33, 66.46 73.33, 18.33 73.33 M111.67 73.33 C80.75 73.33, 49.83 73.33, 18.33 73.33 M18.33 73.33 C6.11 73.33, 0 67.22, 0 55 M18.33 73.33 C6.11 73.33, 0 67.22, 0 55 M0 55 C0 44.04, 0 33.08, 0 18.33 M0 55 C0 46.07, 0 37.14, 0 18.33 M0 18.33 C0 6.11, 6.11 0, 18.33 0 M0 18.33 C0 6.11, 6.11 0, 18.33 0" stroke="#1e1e1e" stroke-width="2" fill="none"></path></g><g transform="translate(400.60885068991956 183.3164257552562) rotate(0 27.616666793823242 17.5)"><text x="27.616666793823242" y="24.528" font-family="Virgil, Segoe UI Emoji" font-size="28px" fill="#1e1e1e" text-anchor="middle" style="white-space: pre;" direction="ltr" dominant-baseline="alphabetic">Tag</text></g><g stroke-linecap="round"><g transform="translate(192.05489727582653 199.99209549274929) rotate(0 -25.348155572053884 0.20608256562672977)"><path d="M0 0 C-8.45 0.07, -42.25 0.34, -50.7 0.41 M0 0 C-8.45 0.07, -42.25 0.34, -50.7 0.41" stroke="#1e1e1e" stroke-width="2" fill="none"></path></g></g><mask></mask><g stroke-linecap="round" transform="translate(371.8809852400541 10) rotate(0 65 36.66666666666697)"><path d="M18.33 0 C54.23 0, 90.13 0, 111.67 0 M18.33 0 C38.37 0, 58.4 0, 111.67 0 M111.67 0 C123.89 0, 130 6.11, 130 18.33 M111.67 0 C123.89 0, 130 6.11, 130 18.33 M130 18.33 C130 30.12, 130 41.91, 130 55 M130 18.33 C130 28.85, 130 39.37, 130 55 M130 55 C130 67.22, 123.89 73.33, 111.67 73.33 M130 55 C130 67.22, 123.89 73.33, 111.67 73.33 M111.67 73.33 C89.71 73.33, 67.76 73.33, 18.33 73.33 M111.67 73.33 C82.24 73.33, 52.81 73.33, 18.33 73.33 M18.33 73.33 C6.11 73.33, 0 67.22, 0 55 M18.33 73.33 C6.11 73.33, 0 67.22, 0 55 M0 55 C0 45.09, 0 35.18, 0 18.33 M0 55 C0 41.45, 0 27.9, 0 18.33 M0 18.33 C0 6.11, 6.11 0, 18.33 0 M0 18.33 C0 6.11, 6.11 0, 18.33 0" stroke="#1e1e1e" stroke-width="2" fill="none"></path></g><g transform="translate(394.30598447711463 29.16666666666697) rotate(0 42.57500076293945 17.5)"><text x="42.57500076293945" y="24.528" font-family="Virgil, Segoe UI Emoji" font-size="28px" fill="#1e1e1e" text-anchor="middle" style="white-space: pre;" direction="ltr" dominant-baseline="alphabetic">Detail</text></g><g stroke-linecap="round"><g transform="translate(327.6572254580333 47.49099692917389) rotate(0 22.25691708765703 0)"><path d="M0 0 C7.42 0, 37.09 0, 44.51 0 M0 0 C7.42 0, 37.09 0, 44.51 0" stroke="#1e1e1e" stroke-width="2" fill="none"></path></g></g><mask></mask><g transform="translate(263.15471779414884 146.20474593602376) rotate(0 3.7333333492279053 10)"><text x="0" y="14.016" font-family="Virgil, Segoe UI Emoji" font-size="16px" fill="#1e1e1e" text-anchor="start" style="white-space: pre;" direction="ltr" dominant-baseline="alphabetic">n</text></g><g transform="translate(142.75768042001255 200.93067201517715) rotate(0 2.1666667461395264 10)"><text x="0" y="14.016" font-family="Virgil, Segoe UI Emoji" font-size="16px" fill="#1e1e1e" text-anchor="start" style="white-space: pre;" direction="ltr" dominant-baseline="alphabetic">1</text></g><g transform="translate(182.39641698240484 201.57450643963784) rotate(0 3.7333333492279053 10)"><text x="0" y="14.016" font-family="Virgil, Segoe UI Emoji" font-size="16px" fill="#1e1e1e" text-anchor="start" style="white-space: pre;" direction="ltr" dominant-baseline="alphabetic">n</text></g><g transform="translate(325.3276592126622 197.0676654684139) rotate(0 3.7333333492279053 10)"><text x="0" y="14.016" font-family="Virgil, Segoe UI Emoji" font-size="16px" fill="#1e1e1e" text-anchor="start" style="white-space: pre;" direction="ltr" dominant-baseline="alphabetic">n</text></g><g transform="translate(353.0125394644692 197.7114998928737) rotate(0 3.7333333492279053 10)"><text x="0" y="14.016" font-family="Virgil, Segoe UI Emoji" font-size="16px" fill="#1e1e1e" text-anchor="start" style="white-space: pre;" direction="ltr" dominant-baseline="alphabetic">n</text></g><g transform="translate(331.4011667869754 27.095377410810215) rotate(0 2.1666667461395264 10)"><text x="0" y="14.016" font-family="Virgil, Segoe UI Emoji" font-size="16px" fill="#1e1e1e" text-anchor="start" style="white-space: pre;" direction="ltr" dominant-baseline="alphabetic">1</text></g><g transform="translate(362.30521916108455 26.451542986348613) rotate(0 2.1666667461395264 10)"><text x="0" y="14.016" font-family="Virgil, Segoe UI Emoji" font-size="16px" fill="#1e1e1e" text-anchor="start" style="white-space: pre;" direction="ltr" dominant-baseline="alphabetic">1</text></g></svg>