<svg version="1.1" xmlns="http://www.w3.org/2000/svg" viewBox="0 0 462 533" width="462" height="533">
  <rect x="0" y="0" width="462" height="533" fill="#ffffff"></rect><g stroke-linecap="round" transform="translate(10 10) rotate(0 221 256.5)"><path d="M32 0 M32 0 C152.78 -1.74, 274.75 -2.05, 410 0 M32 0 C133.32 1.52, 235.68 1.37, 410 0 M410 0 C432.7 0.24, 442.87 9.49, 442 32 M410 0 C431.77 -1.5, 439.81 10.99, 442 32 M442 32 C442.25 162.77, 441.61 293.7, 442 481 M442 32 C442.74 196.66, 443.03 360.93, 442 481 M442 481 C443.77 504.25, 430.88 511.17, 410 513 M442 481 C443.74 502.5, 432.36 514.37, 410 513 M410 513 C266.86 513.19, 120.38 513.29, 32 513 M410 513 C286.61 512.52, 163.84 512.35, 32 513 M32 513 C10.5 514.42, -0.01 503.02, 0 481 M32 513 C12.6 511.01, -0.52 502.38, 0 481 M0 481 C-2.91 389.93, -2.69 297.85, 0 32 M0 481 C-1.6 328.44, -1.58 176.13, 0 32 M0 32 C1.16 10.04, 10.02 -0.1, 32 0 M0 32 C-0.31 9.91, 11.49 -0.31, 32 0" stroke="#1e1e1e" stroke-width="1" fill="none"></path></g><g transform="translate(52 32) rotate(0 56.16666793823242 12.5)"><text x="0" y="0" font-family="Virgil, Segoe UI Emoji" font-size="20px" fill="#1e1e1e" text-anchor="start" style="white-space: pre;" direction="ltr" dominant-baseline="text-before-edge">Test Class</text></g><g stroke-linecap="round"><g transform="translate(61 75) rotate(0 -1.0139718242630238 211.6039324828098)"><path d="M-0.71 0.08 C-1.08 70.83, -2.8 353.45, -3.15 424.13 M1.12 -0.92 C1.19 69.56, -0.8 352.04, -1.04 422.6" stroke="#1e1e1e" stroke-width="1" fill="none"></path></g><g transform="translate(61 75) rotate(0 -1.0139718242630238 211.6039324828098)"><path d="M-11.01 392.44 C-7.13 399.33, -4.81 404.91, -1.06 423.82 M-10.66 394.01 C-8.73 402.08, -6.73 408.65, -1.99 423.37" stroke="#1e1e1e" stroke-width="1" fill="none"></path></g><g transform="translate(61 75) rotate(0 -1.0139718242630238 211.6039324828098)"><path d="M9.51 392.55 C8.87 399.29, 6.66 404.85, -1.06 423.82 M9.86 394.12 C6.6 402.1, 3.41 408.64, -1.99 423.37" stroke="#1e1e1e" stroke-width="1" fill="none"></path></g></g><mask></mask><g stroke-linecap="round" transform="translate(89 78) rotate(0 124 17.5)"><path d="M0.78 4.65 C0.78 4.65, 0.78 4.65, 0.78 4.65 M0.78 4.65 C0.78 4.65, 0.78 4.65, 0.78 4.65 M0.52 11.05 C2.63 9.21, 4.13 4.81, 9.7 0.49 M0.52 11.05 C3.22 8.08, 5.96 4.79, 9.7 0.49 M0.26 17.45 C4.18 11.36, 10.27 8.45, 14.69 0.85 M0.26 17.45 C4.79 12.46, 7.9 9.91, 14.69 0.85 M0 23.85 C5.87 16.42, 15.26 5.15, 20.33 0.45 M0 23.85 C4.65 16.85, 10.13 10.2, 20.33 0.45 M1.7 27.98 C11.59 17.17, 19.34 8.32, 25.32 0.81 M1.7 27.98 C10.24 16.97, 19.86 8.35, 25.32 0.81 M2.75 32.87 C10.85 24.07, 15.17 16.38, 30.96 0.42 M2.75 32.87 C10.25 25.83, 16.78 17.29, 30.96 0.42 M6.43 34.74 C12.57 27.14, 17.36 22.54, 35.95 0.78 M6.43 34.74 C16.99 21.69, 28.77 8.62, 35.95 0.78 M10.1 36.61 C15.45 29.54, 23.88 22, 41.59 0.38 M10.1 36.61 C19.33 26.06, 27.41 17.2, 41.59 0.38 M15.75 36.21 C24.29 25.52, 31.48 14.38, 46.58 0.74 M15.75 36.21 C23.82 28.12, 30.7 18.19, 46.58 0.74 M20.73 36.57 C32.22 24.2, 46 11.35, 52.22 0.35 M20.73 36.57 C32.35 23.88, 45.09 8.33, 52.22 0.35 M26.38 36.18 C36.74 24.62, 47.42 15.8, 57.21 0.71 M26.38 36.18 C36.75 25.85, 45.55 13.68, 57.21 0.71 M31.36 36.54 C39.57 29.94, 44.08 18.91, 62.85 0.31 M31.36 36.54 C38.75 27.47, 44.96 19.37, 62.85 0.31 M37.01 36.14 C42.31 28.7, 51.16 20.39, 67.84 0.67 M37.01 36.14 C46.03 24.55, 56.81 13.44, 67.84 0.67 M41.99 36.5 C50.3 27.3, 61.63 14.3, 72.83 1.03 M41.99 36.5 C52.81 23.9, 64.83 12.02, 72.83 1.03 M47.64 36.11 C57.17 28.81, 65.39 17.84, 78.47 0.64 M47.64 36.11 C59.35 23.39, 71.74 9.27, 78.47 0.64 M52.62 36.47 C61.35 25.48, 71.54 14.95, 83.46 1 M52.62 36.47 C58.58 28.75, 66.94 20.97, 83.46 1 M58.27 36.08 C68.15 24.07, 76.11 15.31, 89.1 0.6 M58.27 36.08 C65.1 29.26, 70.43 20.39, 89.1 0.6 M63.25 36.44 C72.78 26.97, 77.82 17.43, 94.09 0.96 M63.25 36.44 C74.08 23.65, 83.61 11.92, 94.09 0.96 M68.9 36.04 C78.6 24.66, 88.93 11.18, 99.73 0.57 M68.9 36.04 C77.89 24.78, 88.47 15.01, 99.73 0.57 M73.88 36.4 C85.27 21.19, 97.29 8.74, 104.72 0.93 M73.88 36.4 C83.21 24.85, 93.96 12.47, 104.72 0.93 M79.53 36.01 C90.19 22.33, 104.72 8.6, 110.36 0.53 M79.53 36.01 C89.98 23.74, 100.86 12.38, 110.36 0.53 M84.51 36.37 C93.45 25.92, 102.22 13.22, 115.35 0.89 M84.51 36.37 C92.98 26.9, 100.12 18.33, 115.35 0.89 M89.5 36.73 C99.2 23.18, 112.12 12.05, 120.99 0.5 M89.5 36.73 C99.84 24.33, 111.96 11.25, 120.99 0.5 M95.14 36.33 C104.12 25.38, 115.58 11.99, 125.98 0.86 M95.14 36.33 C105.11 24.39, 114.57 13.32, 125.98 0.86 M100.13 36.69 C112.4 24.19, 120.72 13.75, 131.62 0.47 M100.13 36.69 C107.23 29.27, 114.95 20.48, 131.62 0.47 M105.77 36.3 C111.43 26.93, 121.25 22.3, 136.61 0.83 M105.77 36.3 C117.02 22.49, 128.74 9.95, 136.61 0.83 M110.76 36.66 C118.66 28.78, 125.57 18.01, 142.25 0.43 M110.76 36.66 C122.38 23.16, 133.55 9.86, 142.25 0.43 M116.4 36.26 C124.27 26.81, 130.14 19.78, 147.24 0.79 M116.4 36.26 C128.14 22.41, 139.68 8.83, 147.24 0.79 M121.39 36.62 C130.88 27.66, 139.02 17.43, 152.88 0.4 M121.39 36.62 C132.47 23.84, 143.56 9.23, 152.88 0.4 M127.03 36.23 C141.07 20.71, 152.63 10.24, 157.87 0.76 M127.03 36.23 C138.66 24.48, 148.79 11.68, 157.87 0.76 M132.02 36.59 C140.38 26.38, 152.16 17.21, 163.51 0.36 M132.02 36.59 C139.58 28.21, 146.75 18.52, 163.51 0.36 M137.66 36.19 C146.28 26.81, 158.57 14.95, 168.5 0.72 M137.66 36.19 C150.06 21.72, 162.38 8.93, 168.5 0.72 M142.65 36.55 C151.07 27.6, 155.91 19.67, 174.14 0.33 M142.65 36.55 C155.97 22.05, 168.19 7.67, 174.14 0.33 M148.29 36.16 C153.88 29.75, 161.92 20.03, 179.13 0.69 M148.29 36.16 C157.66 25.2, 167.85 13.26, 179.13 0.69 M153.28 36.52 C159.32 27.24, 164.7 20.52, 184.12 1.05 M153.28 36.52 C165.27 22.56, 175.38 10.83, 184.12 1.05 M158.92 36.12 C168.18 28.33, 172.8 20.53, 189.76 0.65 M158.92 36.12 C164.13 30.07, 171.71 22.3, 189.76 0.65 M163.91 36.48 C176.87 21.83, 185.56 11, 194.75 1.01 M163.91 36.48 C173.26 24.45, 184.16 14.65, 194.75 1.01 M169.55 36.09 C177.66 27.55, 187.37 16.45, 200.39 0.62 M169.55 36.09 C176.41 27.51, 184.37 19.77, 200.39 0.62 M174.54 36.45 C185.01 22.89, 195.32 11.15, 205.38 0.98 M174.54 36.45 C185.66 24.24, 197.94 10.09, 205.38 0.98 M180.18 36.06 C191.98 22.86, 202.97 9.94, 211.02 0.58 M180.18 36.06 C186.88 28.62, 194.94 19.48, 211.02 0.58 M185.17 36.42 C193.3 27.26, 196.46 23.23, 216.01 0.94 M185.17 36.42 C192.45 27.83, 200.81 19, 216.01 0.94 M190.81 36.02 C198.81 27.63, 206.68 18.91, 221.65 0.55 M190.81 36.02 C202.38 24.11, 212.75 11.75, 221.65 0.55 M195.8 36.38 C203.82 24.42, 217.27 15.16, 226.64 0.91 M195.8 36.38 C203.1 27.82, 211.39 18.17, 226.64 0.91 M201.44 35.99 C209.54 28.41, 215.78 20.84, 232.28 0.52 M201.44 35.99 C207.13 27.84, 213.61 21.38, 232.28 0.52 M206.43 36.35 C215.14 26.07, 222.81 16.66, 237.27 0.88 M206.43 36.35 C215.62 25.3, 223.04 16.65, 237.27 0.88 M211.42 36.71 C221.36 26.04, 228.88 13.6, 241.6 1.99 M211.42 36.71 C219.9 26.2, 229.95 15.53, 241.6 1.99 M217.06 36.31 C227.38 23.15, 236.59 12.4, 245.93 3.11 M217.06 36.31 C228.44 23.79, 239.41 9.22, 245.93 3.11 M222.05 36.67 C227.4 27.93, 236 19.69, 248.95 5.73 M222.05 36.67 C229.14 29.51, 236.47 20.98, 248.95 5.73 M227.69 36.28 C235.58 26.72, 243.11 19.99, 248.69 12.13 M227.69 36.28 C232.53 29.31, 239.43 24.34, 248.69 12.13 M232.68 36.64 C237.16 29.66, 243.63 23, 249.08 17.77 M232.68 36.64 C237.75 30.06, 242.9 24.96, 249.08 17.77 M239.63 34.73 C241.12 32.91, 242.88 30.34, 249.48 23.41 M239.63 34.73 C243.42 30.45, 245.25 27.2, 249.48 23.41" stroke="#ffc9c9" stroke-width="0.5" fill="none"></path><path d="M8.75 0 M8.75 0 C71.17 -1.35, 129.65 -1.27, 239.25 0 M8.75 0 C56.21 1.12, 102.49 2.28, 239.25 0 M239.25 0 C243.45 -0.16, 247.14 2.98, 248 8.75 M239.25 0 C246.31 -0.39, 248.61 4.77, 248 8.75 M248 8.75 C249.54 13.46, 249.08 18.4, 248 26.25 M248 8.75 C247.37 12.81, 247.8 16.37, 248 26.25 M248 26.25 C247.39 30.25, 244.14 35.19, 239.25 35 M248 26.25 C249.66 33.09, 246.76 35.74, 239.25 35 M239.25 35 C177.92 35.33, 118.24 35.65, 8.75 35 M239.25 35 C158.08 37.24, 76.71 36.58, 8.75 35 M8.75 35 C1.72 34.5, 1.26 31.71, 0 26.25 M8.75 35 C2.54 34.27, 2.15 32.26, 0 26.25 M0 26.25 C0.74 19.66, -0.51 16.77, 0 8.75 M0 26.25 C-0.43 20.06, -0.23 13.16, 0 8.75 M0 8.75 C1.48 2.38, 4.58 -0.61, 8.75 0 M0 8.75 C0.99 4.5, 0.8 -0.52, 8.75 0" stroke="#1e1e1e" stroke-width="1" fill="none"></path></g><g transform="translate(192.49166679382324 83) rotate(0 20.508333206176758 12.5)"><text x="20.508333206176758" y="0" font-family="Virgil, Segoe UI Emoji" font-size="20px" fill="#1e1e1e" text-anchor="middle" style="white-space: pre;" direction="ltr" dominant-baseline="text-before-edge">ctor</text></g><g stroke-linecap="round" transform="translate(94 204.5) rotate(0 124 17.5)"><path d="M0.78 4.65 C0.78 4.65, 0.78 4.65, 0.78 4.65 M0.78 4.65 C0.78 4.65, 0.78 4.65, 0.78 4.65 M0.52 11.05 C2.21 8.87, 4.76 6.44, 9.7 0.49 M0.52 11.05 C2.69 8.8, 6.22 5.98, 9.7 0.49 M0.26 17.45 C7.49 9.74, 10.21 3.77, 14.69 0.85 M0.26 17.45 C6.03 12.43, 9.72 5.6, 14.69 0.85 M0 23.85 C8.07 14.36, 15.88 6.27, 20.33 0.45 M0 23.85 C5.46 17.1, 10.59 11.64, 20.33 0.45 M1.7 27.98 C8.17 19.57, 19.86 10.87, 25.32 0.81 M1.7 27.98 C9.82 18.2, 20.21 8.35, 25.32 0.81 M2.75 32.87 C7.55 24.78, 17.65 16.9, 30.96 0.42 M2.75 32.87 C11.57 21.88, 20.79 11.66, 30.96 0.42 M6.43 34.74 C13.91 27.2, 22.79 16.68, 35.95 0.78 M6.43 34.74 C18.28 21.48, 29.43 8.19, 35.95 0.78 M10.1 36.61 C18.9 24.52, 27.76 15.01, 41.59 0.38 M10.1 36.61 C22.43 22.52, 34.18 9.26, 41.59 0.38 M15.75 36.21 C26.83 21.94, 38.78 9.14, 46.58 0.74 M15.75 36.21 C22.3 28.42, 31.27 18.36, 46.58 0.74 M20.73 36.57 C30.86 23.82, 39.59 12.92, 52.22 0.35 M20.73 36.57 C26.86 28.34, 34.82 20.93, 52.22 0.35 M26.38 36.18 C37.15 22.61, 48.26 11.76, 57.21 0.71 M26.38 36.18 C34.96 27.06, 43.07 18.26, 57.21 0.71 M31.36 36.54 C40.27 26.36, 48.21 17.62, 62.85 0.31 M31.36 36.54 C43.03 23.51, 54.24 10.1, 62.85 0.31 M37.01 36.14 C46.34 27.68, 51.6 17.42, 67.84 0.67 M37.01 36.14 C43.61 28.18, 50.32 20.71, 67.84 0.67 M41.99 36.5 C52.86 25.15, 59.57 14.25, 72.83 1.03 M41.99 36.5 C50.85 26.76, 58.98 16.59, 72.83 1.03 M47.64 36.11 C55.5 25.81, 64.14 17.03, 78.47 0.64 M47.64 36.11 C57.77 23.87, 67.53 12.96, 78.47 0.64 M52.62 36.47 C60.73 28.3, 68.39 19.01, 83.46 1 M52.62 36.47 C60.66 27.85, 67.65 17.89, 83.46 1 M58.27 36.08 C70.4 22.9, 81.26 8.4, 89.1 0.6 M58.27 36.08 C69.28 23.35, 80.05 11.28, 89.1 0.6 M63.25 36.44 C72.14 26.16, 78.07 19.63, 94.09 0.96 M63.25 36.44 C70.85 25.85, 79.92 16.99, 94.09 0.96 M68.9 36.04 C78.88 21.78, 91.74 7.9, 99.73 0.57 M68.9 36.04 C76.47 27.16, 82.91 18.89, 99.73 0.57 M73.88 36.4 C81.55 24.62, 90.62 16.39, 104.72 0.93 M73.88 36.4 C84.54 24.87, 94.34 13.87, 104.72 0.93 M79.53 36.01 C85.31 25.55, 96.6 19.64, 110.36 0.53 M79.53 36.01 C86.76 28.4, 93.42 21.13, 110.36 0.53 M84.51 36.37 C93.11 25.53, 102.37 16.53, 115.35 0.89 M84.51 36.37 C96.76 23.81, 107.34 9.55, 115.35 0.89 M89.5 36.73 C102.24 23.59, 111.08 14.13, 120.99 0.5 M89.5 36.73 C96.23 28.34, 102.39 22.2, 120.99 0.5 M95.14 36.33 C105.36 23.65, 116.64 11.22, 125.98 0.86 M95.14 36.33 C104.31 25.34, 115.02 13.03, 125.98 0.86 M100.13 36.69 C113.25 21.63, 123.85 6.77, 131.62 0.47 M100.13 36.69 C113.15 22.74, 123.69 8.72, 131.62 0.47 M105.77 36.3 C110.21 27.88, 118.33 22.98, 136.61 0.83 M105.77 36.3 C114.78 26.49, 122.42 18.77, 136.61 0.83 M110.76 36.66 C119.6 25.2, 129.49 11.65, 142.25 0.43 M110.76 36.66 C123.58 21.39, 135.6 7.24, 142.25 0.43 M116.4 36.26 C124.42 24.6, 136.38 13.5, 147.24 0.79 M116.4 36.26 C124.09 28.32, 130.82 21.51, 147.24 0.79 M121.39 36.62 C127.75 26.76, 135.39 21.27, 152.88 0.4 M121.39 36.62 C130.93 25.42, 141.23 11.91, 152.88 0.4 M127.03 36.23 C140.38 22.07, 151.22 9.75, 157.87 0.76 M127.03 36.23 C134.1 27.81, 141.39 20.12, 157.87 0.76 M132.02 36.59 C138.19 28, 144.5 19.95, 163.51 0.36 M132.02 36.59 C142.32 22.95, 154.5 10.52, 163.51 0.36 M137.66 36.19 C146.28 29.14, 151.72 18.31, 168.5 0.72 M137.66 36.19 C145.83 27.24, 152.41 18.97, 168.5 0.72 M142.65 36.55 C155.28 22.61, 165.13 10.56, 174.14 0.33 M142.65 36.55 C151.95 25.73, 162.86 13.59, 174.14 0.33 M148.29 36.16 C157.76 22.27, 173.32 11.08, 179.13 0.69 M148.29 36.16 C154.81 28.32, 162.59 20.1, 179.13 0.69 M153.28 36.52 C161.33 26.36, 172.26 15.34, 184.12 1.05 M153.28 36.52 C162.92 26.12, 171.84 15.87, 184.12 1.05 M158.92 36.12 C170.05 24.76, 180.76 9.28, 189.76 0.65 M158.92 36.12 C166.49 26.18, 174.68 16.09, 189.76 0.65 M163.91 36.48 C171.8 26.46, 183.04 16.11, 194.75 1.01 M163.91 36.48 C171.77 26.19, 181.77 14.97, 194.75 1.01 M169.55 36.09 C176.38 29.08, 185.76 20.1, 200.39 0.62 M169.55 36.09 C177.5 27.11, 186.38 18, 200.39 0.62 M174.54 36.45 C181.31 27.96, 186.14 22.18, 205.38 0.98 M174.54 36.45 C184.64 25.73, 195.02 13.57, 205.38 0.98 M180.18 36.06 C193.12 22.09, 201.92 9.09, 211.02 0.58 M180.18 36.06 C188.98 28.37, 196.01 18.98, 211.02 0.58 M185.17 36.42 C196.11 24.18, 210.14 8.15, 216.01 0.94 M185.17 36.42 C192.5 27.19, 201.86 18.59, 216.01 0.94 M190.81 36.02 C203.06 23.04, 213.25 9.51, 221.65 0.55 M190.81 36.02 C196.54 29.73, 204.29 20.9, 221.65 0.55 M195.8 36.38 C204.62 26.05, 212.45 16.25, 226.64 0.91 M195.8 36.38 C204.98 26.4, 214.4 15.84, 226.64 0.91 M201.44 35.99 C205.58 29.57, 215.03 20.95, 232.28 0.52 M201.44 35.99 C212.02 23.31, 222.29 13.11, 232.28 0.52 M206.43 36.35 C212.44 28.11, 220.01 23.38, 237.27 0.88 M206.43 36.35 C213.45 28.39, 221.17 19.23, 237.27 0.88 M211.42 36.71 C216.53 28.81, 223.88 21.48, 241.6 1.99 M211.42 36.71 C222.95 24.35, 232.13 12.78, 241.6 1.99 M217.06 36.31 C227.61 21.77, 240.83 9.89, 245.93 3.11 M217.06 36.31 C222.63 28.81, 228.85 21.36, 245.93 3.11 M222.05 36.67 C231.61 27.63, 237.69 17.92, 248.95 5.73 M222.05 36.67 C231.93 24.9, 242.76 14.48, 248.95 5.73 M227.69 36.28 C234.97 27.49, 242.11 17.61, 248.69 12.13 M227.69 36.28 C235.03 28.49, 243.05 18.78, 248.69 12.13 M232.68 36.64 C235.2 31.23, 241.92 29.05, 249.08 17.77 M232.68 36.64 C237.47 31.56, 241.57 27.82, 249.08 17.77 M239.63 34.73 C242.88 32.7, 243.54 28.24, 249.48 23.41 M239.63 34.73 C243.2 31.99, 245.46 27.91, 249.48 23.41" stroke="#b2f2bb" stroke-width="0.5" fill="none"></path><path d="M8.75 0 M8.75 0 C73.74 2.82, 140.65 1.94, 239.25 0 M8.75 0 C63.66 1.61, 118.55 1.61, 239.25 0 M239.25 0 C243.44 1.47, 249.91 3.78, 248 8.75 M239.25 0 C243.79 -2.08, 249.38 3.81, 248 8.75 M248 8.75 C248.67 12.4, 246.88 20.06, 248 26.25 M248 8.75 C247.72 15.55, 248.71 22.53, 248 26.25 M248 26.25 C249.18 31.16, 245.57 36.54, 239.25 35 M248 26.25 C246.45 34.18, 245.28 34.73, 239.25 35 M239.25 35 C176.87 36.09, 110.68 36.81, 8.75 35 M239.25 35 C190.51 33.16, 141.89 33.11, 8.75 35 M8.75 35 C1.45 33.22, 1.45 31.17, 0 26.25 M8.75 35 C3.72 34.22, 1.07 34.02, 0 26.25 M0 26.25 C0.77 20.13, 0.26 16.22, 0 8.75 M0 26.25 C-0.69 20.02, -0.67 12.87, 0 8.75 M0 8.75 C-0.28 2.49, 4.54 -0.77, 8.75 0 M0 8.75 C1.39 2.47, 1.68 0.87, 8.75 0" stroke="#1e1e1e" stroke-width="1" fill="none"></path></g><g transform="translate(151.1999969482422 209.5) rotate(0 66.80000305175781 12.5)"><text x="66.80000305175781" y="0" font-family="Virgil, Segoe UI Emoji" font-size="20px" fill="#1e1e1e" text-anchor="middle" style="white-space: pre;" direction="ltr" dominant-baseline="text-before-edge">[Test] Test1</text></g><g stroke-linecap="round" transform="translate(92 118.5) rotate(0 124 17.5)"><path d="M0.78 4.65 C0.78 4.65, 0.78 4.65, 0.78 4.65 M0.78 4.65 C0.78 4.65, 0.78 4.65, 0.78 4.65 M0.52 11.05 C3.6 8.92, 4.95 3.23, 9.7 0.49 M0.52 11.05 C3.02 9.01, 4.79 5.29, 9.7 0.49 M0.26 17.45 C2.22 14.04, 6.11 7.98, 14.69 0.85 M0.26 17.45 C5.07 11.62, 11.13 5.55, 14.69 0.85 M0 23.85 C5.11 17.57, 14.97 7.98, 20.33 0.45 M0 23.85 C8.04 15.34, 14.28 6.63, 20.33 0.45 M1.7 27.98 C6.44 19.81, 14.8 14.89, 25.32 0.81 M1.7 27.98 C9.23 18.82, 18.46 8.58, 25.32 0.81 M2.75 32.87 C10.58 26.59, 17.65 17.61, 30.96 0.42 M2.75 32.87 C13.48 19.64, 25.94 6.77, 30.96 0.42 M6.43 34.74 C15.07 24.81, 22.22 15.07, 35.95 0.78 M6.43 34.74 C17.2 24.3, 26.14 12.59, 35.95 0.78 M10.1 36.61 C18.7 29.43, 24.54 20.86, 41.59 0.38 M10.1 36.61 C17.51 26.4, 26.97 16.05, 41.59 0.38 M15.75 36.21 C21.06 28.72, 27.76 20.73, 46.58 0.74 M15.75 36.21 C23.84 28.13, 29.36 20.61, 46.58 0.74 M20.73 36.57 C26.01 28.66, 32.09 23.31, 52.22 0.35 M20.73 36.57 C32.14 23.01, 45.89 8.05, 52.22 0.35 M26.38 36.18 C33.54 24.11, 45.64 16.48, 57.21 0.71 M26.38 36.18 C35.89 26.27, 45.49 15.25, 57.21 0.71 M31.36 36.54 C37.93 28.92, 47.45 17.66, 62.85 0.31 M31.36 36.54 C41.06 25.89, 48.22 16.31, 62.85 0.31 M37.01 36.14 C42.96 27.94, 49.36 20.37, 67.84 0.67 M37.01 36.14 C43.86 28.22, 50.97 20.3, 67.84 0.67 M41.99 36.5 C53.78 23.8, 64.42 9.58, 72.83 1.03 M41.99 36.5 C51.59 25.4, 60.44 15.03, 72.83 1.03 M47.64 36.11 C59.66 23.49, 69.6 11.96, 78.47 0.64 M47.64 36.11 C55.17 28.43, 61.73 19.28, 78.47 0.64 M52.62 36.47 C59.51 28.95, 67.74 19.96, 83.46 1 M52.62 36.47 C62.36 25.11, 71.68 14.57, 83.46 1 M58.27 36.08 C63.68 27.93, 74.96 20.38, 89.1 0.6 M58.27 36.08 C71.52 22.08, 82.34 7.12, 89.1 0.6 M63.25 36.44 C73.68 21.86, 86.92 7.41, 94.09 0.96 M63.25 36.44 C72.74 26.72, 80.91 16.02, 94.09 0.96 M68.9 36.04 C75.46 27.02, 84.07 18.15, 99.73 0.57 M68.9 36.04 C77.72 25.18, 86.64 15.28, 99.73 0.57 M73.88 36.4 C87.25 24.49, 97.21 10.01, 104.72 0.93 M73.88 36.4 C82.39 25.93, 89.22 18.25, 104.72 0.93 M79.53 36.01 C89.43 23.81, 98.16 12.48, 110.36 0.53 M79.53 36.01 C90.99 22.86, 102.09 11.57, 110.36 0.53 M84.51 36.37 C95.25 27.74, 102.33 16.21, 115.35 0.89 M84.51 36.37 C94.32 24.03, 104.62 11.73, 115.35 0.89 M89.5 36.73 C97.13 27.49, 104.66 19.79, 120.99 0.5 M89.5 36.73 C99.88 23.56, 111.72 11.61, 120.99 0.5 M95.14 36.33 C101.94 26.2, 111.19 17.87, 125.98 0.86 M95.14 36.33 C105.93 24.71, 116.8 11.53, 125.98 0.86 M100.13 36.69 C107.75 27, 117.46 17.76, 131.62 0.47 M100.13 36.69 C107.95 27.19, 117.5 17.89, 131.62 0.47 M105.77 36.3 C111.02 28.65, 118.04 19.77, 136.61 0.83 M105.77 36.3 C116.09 24.29, 126.68 12.26, 136.61 0.83 M110.76 36.66 C125.1 21.65, 136.39 8.22, 142.25 0.43 M110.76 36.66 C118.09 28.03, 126.28 18.69, 142.25 0.43 M116.4 36.26 C122.66 26.34, 133.63 16.85, 147.24 0.79 M116.4 36.26 C127.69 24.72, 136.61 13.26, 147.24 0.79 M121.39 36.62 C126.48 28.47, 134.82 20.66, 152.88 0.4 M121.39 36.62 C128.88 27.97, 136.57 19, 152.88 0.4 M127.03 36.23 C135.37 24.09, 144.87 12.39, 157.87 0.76 M127.03 36.23 C137.48 22.62, 148.44 10.53, 157.87 0.76 M132.02 36.59 C137.12 29.21, 146.49 20.34, 163.51 0.36 M132.02 36.59 C142.93 23.7, 155.71 10.94, 163.51 0.36 M137.66 36.19 C146.69 23.05, 157.75 9.66, 168.5 0.72 M137.66 36.19 C148.22 23.59, 159.46 10.2, 168.5 0.72 M142.65 36.55 C152.93 27.74, 161.86 15.59, 174.14 0.33 M142.65 36.55 C153.84 23.92, 163.96 10.68, 174.14 0.33 M148.29 36.16 C155.06 29.31, 161.02 19.64, 179.13 0.69 M148.29 36.16 C159.98 23.75, 169.83 10.87, 179.13 0.69 M153.28 36.52 C164.64 24.52, 174.88 14.86, 184.12 1.05 M153.28 36.52 C162.44 28.43, 169.74 18.75, 184.12 1.05 M158.92 36.12 C164.44 25.88, 173.29 19.71, 189.76 0.65 M158.92 36.12 C167.39 25.6, 177.76 14.65, 189.76 0.65 M163.91 36.48 C174.78 25.61, 183.17 11.42, 194.75 1.01 M163.91 36.48 C175.35 22.19, 188.46 8.72, 194.75 1.01 M169.55 36.09 C180.8 21.64, 194.88 7.01, 200.39 0.62 M169.55 36.09 C179.27 23.82, 189.4 12.76, 200.39 0.62 M174.54 36.45 C183.14 24.9, 193.92 14.36, 205.38 0.98 M174.54 36.45 C180.82 29.3, 186.39 21.95, 205.38 0.98 M180.18 36.06 C190.26 22.77, 201.94 13.79, 211.02 0.58 M180.18 36.06 C192.16 23.03, 203.85 8.52, 211.02 0.58 M185.17 36.42 C195.36 22.53, 207.48 10.89, 216.01 0.94 M185.17 36.42 C195.95 23.95, 206.37 12.63, 216.01 0.94 M190.81 36.02 C200.48 23.41, 210.71 10.69, 221.65 0.55 M190.81 36.02 C201.3 21.92, 212.57 9.33, 221.65 0.55 M195.8 36.38 C204.49 24.55, 216.18 15.56, 226.64 0.91 M195.8 36.38 C203.09 26.86, 210.02 19.61, 226.64 0.91 M201.44 35.99 C209.84 28.52, 217.63 20.11, 232.28 0.52 M201.44 35.99 C211.97 22.27, 224.63 9.73, 232.28 0.52 M206.43 36.35 C217.83 25.27, 226.06 13.1, 237.27 0.88 M206.43 36.35 C216.34 24.2, 226.05 13.26, 237.27 0.88 M211.42 36.71 C217.82 25.85, 224.48 16.91, 241.6 1.99 M211.42 36.71 C220.44 26.03, 229.33 15.71, 241.6 1.99 M217.06 36.31 C226.55 25.72, 238.95 13.2, 245.93 3.11 M217.06 36.31 C226.31 23.63, 236.99 11.1, 245.93 3.11 M222.05 36.67 C230.97 25.77, 239.28 17, 248.95 5.73 M222.05 36.67 C232.44 25.01, 242.42 12.93, 248.95 5.73 M227.69 36.28 C235.49 25.2, 244.6 16.89, 248.69 12.13 M227.69 36.28 C235.25 26.71, 242.93 17.94, 248.69 12.13 M232.68 36.64 C238.26 30.89, 243.33 25.54, 249.08 17.77 M232.68 36.64 C239.11 30.03, 244.19 23.36, 249.08 17.77 M239.63 34.73 C242.41 31.69, 245.6 26.26, 249.48 23.41 M239.63 34.73 C242.09 31.22, 246.49 27.83, 249.48 23.41" stroke="#a5d8ff" stroke-width="0.5" fill="none"></path><path d="M8.75 0 M8.75 0 C56.71 -1.73, 106.7 1.15, 239.25 0 M8.75 0 C88.67 2.11, 168.71 1.94, 239.25 0 M239.25 0 C244.53 -0.13, 248.91 3.76, 248 8.75 M239.25 0 C245.22 -0.66, 248.84 3.45, 248 8.75 M248 8.75 C247.86 13.34, 248.37 18.62, 248 26.25 M248 8.75 C248.76 14.73, 248.48 20.84, 248 26.25 M248 26.25 C248.17 32.18, 246.15 34.43, 239.25 35 M248 26.25 C247.28 34.34, 243.37 35.83, 239.25 35 M239.25 35 C183.38 35.48, 128.66 35.78, 8.75 35 M239.25 35 C151.49 34.88, 64.77 36.46, 8.75 35 M8.75 35 C1.16 36.25, -1.84 31.76, 0 26.25 M8.75 35 C3.58 33.62, -1.09 31.4, 0 26.25 M0 26.25 C-0.15 21.66, -1.56 17.65, 0 8.75 M0 26.25 C-0.81 20.69, 0.47 13.9, 0 8.75 M0 8.75 C-0.57 2.32, 3.19 -0.19, 8.75 0 M0 8.75 C0.28 0.79, 4.56 -1.57, 8.75 0" stroke="#1e1e1e" stroke-width="1" fill="none"></path></g><g transform="translate(137.39167022705078 123.5) rotate(0 78.60832977294922 12.5)"><text x="78.60832977294922" y="0" font-family="Virgil, Segoe UI Emoji" font-size="20px" fill="#1e1e1e" text-anchor="middle" style="white-space: pre;" direction="ltr" dominant-baseline="text-before-edge">[OneTimeSetUp]</text></g><g stroke-linecap="round" transform="translate(94 167.5) rotate(0 124 17.5)"><path d="M0.78 4.65 C0.78 4.65, 0.78 4.65, 0.78 4.65 M0.78 4.65 C0.78 4.65, 0.78 4.65, 0.78 4.65 M0.52 11.05 C2.15 7.13, 6.09 5.79, 9.7 0.49 M0.52 11.05 C2.26 8.86, 5.61 5.27, 9.7 0.49 M0.26 17.45 C5.79 14.22, 7.93 7.53, 14.69 0.85 M0.26 17.45 C2.54 14.72, 6.07 11.46, 14.69 0.85 M0 23.85 C4 17.84, 11.66 11.85, 20.33 0.45 M0 23.85 C7.34 15.64, 14.12 6.54, 20.33 0.45 M1.7 27.98 C7.3 18.09, 17.84 9.24, 25.32 0.81 M1.7 27.98 C8.32 20.46, 16.23 11.67, 25.32 0.81 M2.75 32.87 C13.83 22.39, 21.15 12.01, 30.96 0.42 M2.75 32.87 C13.63 20.89, 21.73 9.07, 30.96 0.42 M6.43 34.74 C18.26 20.41, 29 8.53, 35.95 0.78 M6.43 34.74 C13.08 27.88, 19.02 20.41, 35.95 0.78 M10.1 36.61 C16.54 27.95, 27.59 18.32, 41.59 0.38 M10.1 36.61 C20.01 25.34, 31.65 11.91, 41.59 0.38 M15.75 36.21 C23.39 29.14, 30.97 20.24, 46.58 0.74 M15.75 36.21 C23.17 27.38, 31.62 18.74, 46.58 0.74 M20.73 36.57 C29.83 28.18, 34.81 19.6, 52.22 0.35 M20.73 36.57 C28.6 26.25, 37.95 17.39, 52.22 0.35 M26.38 36.18 C36.26 24.89, 46.45 12.19, 57.21 0.71 M26.38 36.18 C36.26 26, 45.44 15.25, 57.21 0.71 M31.36 36.54 C40.61 24.87, 52.21 9.25, 62.85 0.31 M31.36 36.54 C38.59 29.9, 45.12 22.56, 62.85 0.31 M37.01 36.14 C49.31 24.5, 60.2 12.74, 67.84 0.67 M37.01 36.14 C44.84 27.71, 53.17 18.75, 67.84 0.67 M41.99 36.5 C48.19 28.76, 56.62 20.84, 72.83 1.03 M41.99 36.5 C50.9 26, 58.56 17.01, 72.83 1.03 M47.64 36.11 C57.07 25.71, 64.67 16.29, 78.47 0.64 M47.64 36.11 C58.76 24.21, 68.37 11.04, 78.47 0.64 M52.62 36.47 C58.41 29.67, 65.99 20.77, 83.46 1 M52.62 36.47 C63.45 24.84, 73.36 13.13, 83.46 1 M58.27 36.08 C67.24 23.78, 79.75 15.38, 89.1 0.6 M58.27 36.08 C65.38 27.48, 73.21 19.45, 89.1 0.6 M63.25 36.44 C71.74 28.58, 80.69 16.92, 94.09 0.96 M63.25 36.44 C71.54 27.52, 80.17 18.12, 94.09 0.96 M68.9 36.04 C73.54 28.84, 80.81 22.35, 99.73 0.57 M68.9 36.04 C79.17 24.41, 91.08 10.97, 99.73 0.57 M73.88 36.4 C83.94 28.04, 89.55 17.67, 104.72 0.93 M73.88 36.4 C82.52 26.67, 92.64 15.9, 104.72 0.93 M79.53 36.01 C87.93 26.34, 96.01 15.24, 110.36 0.53 M79.53 36.01 C89.38 25.88, 97.07 14.95, 110.36 0.53 M84.51 36.37 C95.25 25.09, 105 10.04, 115.35 0.89 M84.51 36.37 C91.57 27.98, 98.46 19.23, 115.35 0.89 M89.5 36.73 C96.25 27.02, 102.9 21.28, 120.99 0.5 M89.5 36.73 C98.56 27.95, 105.68 17.54, 120.99 0.5 M95.14 36.33 C105.35 24.8, 113.7 15.37, 125.98 0.86 M95.14 36.33 C106.05 24.51, 116.34 11.55, 125.98 0.86 M100.13 36.69 C108.9 26.25, 117.7 19.19, 131.62 0.47 M100.13 36.69 C107.7 27.83, 114.78 19.77, 131.62 0.47 M105.77 36.3 C118.73 22.37, 128.38 10.18, 136.61 0.83 M105.77 36.3 C118.44 23.46, 130.3 10.23, 136.61 0.83 M110.76 36.66 C115.16 31.21, 125.34 20.07, 142.25 0.43 M110.76 36.66 C122.79 22.98, 133.43 10.16, 142.25 0.43 M116.4 36.26 C124.45 26.93, 130.92 18.3, 147.24 0.79 M116.4 36.26 C125.69 24.48, 137.52 11.53, 147.24 0.79 M121.39 36.62 C129.87 26.98, 136.77 18.32, 152.88 0.4 M121.39 36.62 C129.11 28.51, 136.6 18.83, 152.88 0.4 M127.03 36.23 C137.11 23.86, 148.22 9.78, 157.87 0.76 M127.03 36.23 C139.34 23.5, 150.44 8.44, 157.87 0.76 M132.02 36.59 C141.67 23.54, 156.2 11.34, 163.51 0.36 M132.02 36.59 C141.57 24.37, 151.67 13.69, 163.51 0.36 M137.66 36.19 C147.85 24.17, 162.13 8.79, 168.5 0.72 M137.66 36.19 C146.06 27.51, 154.81 18.8, 168.5 0.72 M142.65 36.55 C150.15 28.53, 156.57 21.07, 174.14 0.33 M142.65 36.55 C149.48 27.97, 156.63 20.26, 174.14 0.33 M148.29 36.16 C159.16 24.39, 171.17 10.04, 179.13 0.69 M148.29 36.16 C158.01 25.02, 166.93 14.17, 179.13 0.69 M153.28 36.52 C161.41 28.36, 172.11 18.29, 184.12 1.05 M153.28 36.52 C163.91 24.45, 173.86 11.06, 184.12 1.05 M158.92 36.12 C167.89 22.61, 181.09 13.03, 189.76 0.65 M158.92 36.12 C166.57 27.77, 174.3 18.23, 189.76 0.65 M163.91 36.48 C170.59 26.94, 177.55 19.24, 194.75 1.01 M163.91 36.48 C171.98 27.54, 180.68 18.46, 194.75 1.01 M169.55 36.09 C180.49 24.63, 188.23 12.19, 200.39 0.62 M169.55 36.09 C181.81 22.52, 194.12 7.95, 200.39 0.62 M174.54 36.45 C182.75 26.08, 189.55 19.91, 205.38 0.98 M174.54 36.45 C187.17 22.9, 198.67 8.84, 205.38 0.98 M180.18 36.06 C186.44 25.83, 196.9 18.73, 211.02 0.58 M180.18 36.06 C186.12 28.41, 193.79 22.56, 211.02 0.58 M185.17 36.42 C195.99 26.22, 203.79 13.55, 216.01 0.94 M185.17 36.42 C191.55 30.01, 196.95 21.69, 216.01 0.94 M190.81 36.02 C201.87 25.56, 209.14 16, 221.65 0.55 M190.81 36.02 C202.46 22.9, 212.81 10.67, 221.65 0.55 M195.8 36.38 C205.29 25.38, 218.71 9.74, 226.64 0.91 M195.8 36.38 C206.21 24.16, 216.06 12.85, 226.64 0.91 M201.44 35.99 C212.21 24.49, 223.09 10.93, 232.28 0.52 M201.44 35.99 C212.55 24, 222.9 11.51, 232.28 0.52 M206.43 36.35 C214.09 24.06, 225.26 12.21, 237.27 0.88 M206.43 36.35 C212.52 29.11, 219.44 21.21, 237.27 0.88 M211.42 36.71 C219.97 27.27, 226.72 21.86, 241.6 1.99 M211.42 36.71 C222.71 23.3, 233.38 11.37, 241.6 1.99 M217.06 36.31 C221.9 30.31, 230 24.39, 245.93 3.11 M217.06 36.31 C222.72 28.64, 229.23 21.81, 245.93 3.11 M222.05 36.67 C225.91 31.89, 235.38 25.72, 248.95 5.73 M222.05 36.67 C229.11 28.42, 237.46 20.43, 248.95 5.73 M227.69 36.28 C233.89 30.53, 241.9 22.38, 248.69 12.13 M227.69 36.28 C231.8 32.02, 237.15 26.77, 248.69 12.13 M232.68 36.64 C236.56 30.57, 239.59 25.52, 249.08 17.77 M232.68 36.64 C237.61 31.44, 242.01 27.72, 249.08 17.77 M239.63 34.73 C240.69 33.39, 244.15 30.11, 249.48 23.41 M239.63 34.73 C243.24 32.13, 244.99 27.74, 249.48 23.41" stroke="#a5d8ff" stroke-width="0.5" fill="none"></path><path d="M8.75 0 M8.75 0 C85.1 2.27, 162.27 2.09, 239.25 0 M8.75 0 C83.22 -1.44, 159.93 -2.21, 239.25 0 M239.25 0 C244.46 -1.06, 249.19 2.92, 248 8.75 M239.25 0 C244.32 1.17, 247.07 2.25, 248 8.75 M248 8.75 C248.74 14.42, 247.35 21.04, 248 26.25 M248 8.75 C247.39 13.59, 247.83 17.23, 248 26.25 M248 26.25 C248.33 32.41, 244.5 36.3, 239.25 35 M248 26.25 C245.98 31.52, 242.88 33.19, 239.25 35 M239.25 35 C153.41 37.51, 64.61 37.47, 8.75 35 M239.25 35 C184.28 33.53, 129.63 33.69, 8.75 35 M8.75 35 C4.48 35.07, 1.61 33.51, 0 26.25 M8.75 35 C2.44 37.08, -1.09 30.21, 0 26.25 M0 26.25 C-0.16 21.93, 0.35 15.58, 0 8.75 M0 26.25 C0.51 18.93, -0.74 13.19, 0 8.75 M0 8.75 C1.39 4.6, 2.4 0.89, 8.75 0 M0 8.75 C-1.56 4.44, 1.86 1.62, 8.75 0" stroke="#1e1e1e" stroke-width="1" fill="none"></path></g><g transform="translate(173.81666564941406 172.5) rotate(0 44.18333435058594 12.5)"><text x="44.18333435058594" y="0" font-family="Virgil, Segoe UI Emoji" font-size="20px" fill="#1e1e1e" text-anchor="middle" style="white-space: pre;" direction="ltr" dominant-baseline="text-before-edge">[SetUp] </text></g><g stroke-linecap="round" transform="translate(96 240.5) rotate(0 124 17.5)"><path d="M0.78 4.65 C0.78 4.65, 0.78 4.65, 0.78 4.65 M0.78 4.65 C0.78 4.65, 0.78 4.65, 0.78 4.65 M0.52 11.05 C3.74 7.13, 5.4 2.87, 9.7 0.49 M0.52 11.05 C3.35 7.76, 7.2 4.27, 9.7 0.49 M0.26 17.45 C4.91 9.84, 8.68 6.82, 14.69 0.85 M0.26 17.45 C3.5 13.74, 7.85 8.44, 14.69 0.85 M0 23.85 C8.13 15.92, 12.77 7.59, 20.33 0.45 M0 23.85 C6.03 17.52, 9.11 11.34, 20.33 0.45 M1.7 27.98 C8.34 21.86, 11.51 15.86, 25.32 0.81 M1.7 27.98 C8.58 18.69, 17.4 10.91, 25.32 0.81 M2.75 32.87 C13.23 19.77, 20.67 9.22, 30.96 0.42 M2.75 32.87 C8.97 26.68, 13.68 20.13, 30.96 0.42 M6.43 34.74 C12.36 26.85, 20.2 18.03, 35.95 0.78 M6.43 34.74 C17.84 22.12, 27.38 10.01, 35.95 0.78 M10.1 36.61 C17.69 27.73, 23.55 18.97, 41.59 0.38 M10.1 36.61 C18.14 27.4, 26.7 17.76, 41.59 0.38 M15.75 36.21 C27.31 24.55, 38.2 10.27, 46.58 0.74 M15.75 36.21 C23.91 25.43, 34.29 14.78, 46.58 0.74 M20.73 36.57 C29.28 25.21, 37.74 19.05, 52.22 0.35 M20.73 36.57 C30.7 25.06, 39.28 14.76, 52.22 0.35 M26.38 36.18 C36.23 23.04, 50.75 10.14, 57.21 0.71 M26.38 36.18 C37.69 24.24, 48.07 11.14, 57.21 0.71 M31.36 36.54 C40.71 23.53, 52.44 11.15, 62.85 0.31 M31.36 36.54 C42.5 23.87, 52.9 12.39, 62.85 0.31 M37.01 36.14 C47.81 25.04, 57.7 11.21, 67.84 0.67 M37.01 36.14 C48.97 22.7, 61.37 7.74, 67.84 0.67 M41.99 36.5 C55.15 20.77, 66.02 8.9, 72.83 1.03 M41.99 36.5 C47.03 29.65, 53.26 21.66, 72.83 1.03 M47.64 36.11 C57.4 23.82, 66.19 13.15, 78.47 0.64 M47.64 36.11 C56.64 26.79, 65.97 17.16, 78.47 0.64 M52.62 36.47 C58.14 27.66, 65.84 20.48, 83.46 1 M52.62 36.47 C62.26 25.76, 71.08 16.18, 83.46 1 M58.27 36.08 C67.39 24.36, 79.36 10.58, 89.1 0.6 M58.27 36.08 C64.96 29.19, 71.86 20.03, 89.1 0.6 M63.25 36.44 C72.07 24.92, 85.94 11.26, 94.09 0.96 M63.25 36.44 C70.69 28.17, 77.92 19.31, 94.09 0.96 M68.9 36.04 C77.75 29.5, 84.71 18.28, 99.73 0.57 M68.9 36.04 C75.58 27.04, 82.79 18.13, 99.73 0.57 M73.88 36.4 C85.19 23, 95.61 15.21, 104.72 0.93 M73.88 36.4 C84.99 22.9, 95.83 10.91, 104.72 0.93 M79.53 36.01 C87.86 26.1, 100.56 12.98, 110.36 0.53 M79.53 36.01 C88.47 24.87, 99.34 14.14, 110.36 0.53 M84.51 36.37 C95.32 23.98, 104.24 12.34, 115.35 0.89 M84.51 36.37 C93.19 27.17, 101.15 16.47, 115.35 0.89 M89.5 36.73 C97.18 26.81, 107.99 13.5, 120.99 0.5 M89.5 36.73 C97.23 27.78, 104.21 19.81, 120.99 0.5 M95.14 36.33 C103.7 24.76, 112.34 15.33, 125.98 0.86 M95.14 36.33 C103.28 26.64, 112.26 16.62, 125.98 0.86 M100.13 36.69 C110.63 25.76, 118.18 13.82, 131.62 0.47 M100.13 36.69 C110.38 25.13, 121.69 11.85, 131.62 0.47 M105.77 36.3 C114.22 23.47, 125.25 14.68, 136.61 0.83 M105.77 36.3 C116.78 25.24, 126.37 12.46, 136.61 0.83 M110.76 36.66 C121.41 22.06, 136.18 7.42, 142.25 0.43 M110.76 36.66 C118.44 27.65, 124.03 20.11, 142.25 0.43 M116.4 36.26 C125.48 27.52, 130.73 20.01, 147.24 0.79 M116.4 36.26 C126.52 23.72, 137.4 13.01, 147.24 0.79 M121.39 36.62 C131.18 24.66, 141.92 12.31, 152.88 0.4 M121.39 36.62 C133.96 23.98, 145.31 9.93, 152.88 0.4 M127.03 36.23 C139.48 25.21, 148.27 11.34, 157.87 0.76 M127.03 36.23 C132.75 28.91, 140.33 21.36, 157.87 0.76 M132.02 36.59 C142.64 23.7, 157.89 8.49, 163.51 0.36 M132.02 36.59 C141.75 25.24, 152.88 12.95, 163.51 0.36 M137.66 36.19 C148.91 23.39, 161.58 8.17, 168.5 0.72 M137.66 36.19 C143.22 28.26, 149.38 22.17, 168.5 0.72 M142.65 36.55 C149.32 26.72, 157.73 19.05, 174.14 0.33 M142.65 36.55 C155.36 23.63, 166.57 10.41, 174.14 0.33 M148.29 36.16 C159.69 23.36, 165.8 13.04, 179.13 0.69 M148.29 36.16 C155.94 27.47, 162.32 20.52, 179.13 0.69 M153.28 36.52 C161.41 26.15, 167.36 17.69, 184.12 1.05 M153.28 36.52 C160.19 28.71, 165.48 22.44, 184.12 1.05 M158.92 36.12 C168.76 27.03, 175.11 16.77, 189.76 0.65 M158.92 36.12 C167.78 25.39, 175.36 16.64, 189.76 0.65 M163.91 36.48 C173.08 25.38, 181.5 18.28, 194.75 1.01 M163.91 36.48 C172.31 26.09, 181.46 15.35, 194.75 1.01 M169.55 36.09 C182.29 21.26, 192.95 10.81, 200.39 0.62 M169.55 36.09 C176.78 27.21, 183.33 18.24, 200.39 0.62 M174.54 36.45 C184.76 23.32, 199.85 6.77, 205.38 0.98 M174.54 36.45 C183.1 26.9, 190.75 17.8, 205.38 0.98 M180.18 36.06 C185.57 28.06, 191.37 22.71, 211.02 0.58 M180.18 36.06 C189.15 24.96, 198.98 14.74, 211.02 0.58 M185.17 36.42 C196.51 23.66, 208.64 7.98, 216.01 0.94 M185.17 36.42 C191.65 28.4, 198.4 21.7, 216.01 0.94 M190.81 36.02 C198.44 24.77, 205.71 18.63, 221.65 0.55 M190.81 36.02 C200.1 24.74, 209.35 13.83, 221.65 0.55 M195.8 36.38 C205.56 25.78, 214.42 18.62, 226.64 0.91 M195.8 36.38 C204.67 26.29, 213.78 13.8, 226.64 0.91 M201.44 35.99 C210.44 26.33, 220.33 14.39, 232.28 0.52 M201.44 35.99 C213.85 21.46, 224.25 8.96, 232.28 0.52 M206.43 36.35 C218.42 21.96, 230.25 9.29, 237.27 0.88 M206.43 36.35 C217.7 23.23, 229.22 9.58, 237.27 0.88 M211.42 36.71 C220.88 27.13, 231.38 14.09, 241.6 1.99 M211.42 36.71 C223.28 23.15, 233.18 11.14, 241.6 1.99 M217.06 36.31 C228.18 24.24, 241.49 11.72, 245.93 3.11 M217.06 36.31 C229.76 23.17, 240.51 9.18, 245.93 3.11 M222.05 36.67 C228.93 25.11, 238.33 17.61, 248.95 5.73 M222.05 36.67 C231.67 24.91, 243.29 13.95, 248.95 5.73 M227.69 36.28 C231.24 31.74, 236.73 23.89, 248.69 12.13 M227.69 36.28 C235.16 27.89, 242.73 18.64, 248.69 12.13 M232.68 36.64 C238.54 31.63, 242.59 25.91, 249.08 17.77 M232.68 36.64 C239.85 29.37, 245.63 22.86, 249.08 17.77 M239.63 34.73 C241.41 30.17, 246.54 26.79, 249.48 23.41 M239.63 34.73 C242.44 31.9, 244.64 30.32, 249.48 23.41" stroke="#a5d8ff" stroke-width="0.5" fill="none"></path><path d="M8.75 0 M8.75 0 C78.87 0.76, 148.15 -0.59, 239.25 0 M8.75 0 C72.18 0.89, 135.47 1.43, 239.25 0 M239.25 0 C244.06 -1.26, 247.29 4.85, 248 8.75 M239.25 0 C244.7 2.22, 246.17 3.56, 248 8.75 M248 8.75 C249.49 13.32, 246.8 16.73, 248 26.25 M248 8.75 C248.18 14.08, 249.01 18.78, 248 26.25 M248 26.25 C249.06 30.73, 243.55 33.55, 239.25 35 M248 26.25 C248.16 32.27, 243.27 34.13, 239.25 35 M239.25 35 C154.55 33.08, 71.7 32.02, 8.75 35 M239.25 35 C172.62 37.53, 106.34 36.51, 8.75 35 M8.75 35 C3.37 35.68, 0.39 30.89, 0 26.25 M8.75 35 C1.75 33.51, 1.11 33.98, 0 26.25 M0 26.25 C-0.76 20.48, -0.18 13.68, 0 8.75 M0 26.25 C-0.25 20.69, 0.34 13.41, 0 8.75 M0 8.75 C0.54 3.11, 1.92 -0.06, 8.75 0 M0 8.75 C-1.37 3.52, 2.31 0.45, 8.75 0" stroke="#1e1e1e" stroke-width="1" fill="none"></path></g><g transform="translate(161.51666641235352 245.5) rotate(0 58.483333587646484 12.5)"><text x="58.483333587646484" y="0" font-family="Virgil, Segoe UI Emoji" font-size="20px" fill="#1e1e1e" text-anchor="middle" style="white-space: pre;" direction="ltr" dominant-baseline="text-before-edge">[TearDown]</text></g><g stroke-linecap="round" transform="translate(93.5 330) rotate(0 124 17.5)"><path d="M0.78 4.65 C0.78 4.65, 0.78 4.65, 0.78 4.65 M0.78 4.65 C0.78 4.65, 0.78 4.65, 0.78 4.65 M0.52 11.05 C2.08 9.08, 6.83 3.54, 9.7 0.49 M0.52 11.05 C4.5 7.31, 8.09 2.62, 9.7 0.49 M0.26 17.45 C3.81 11.23, 9.72 5.07, 14.69 0.85 M0.26 17.45 C3.9 13.16, 9.07 7.58, 14.69 0.85 M0 23.85 C7.99 15.97, 12.16 9.9, 20.33 0.45 M0 23.85 C7.48 15.88, 13.4 8.29, 20.33 0.45 M1.7 27.98 C8.08 17.29, 17.03 8.2, 25.32 0.81 M1.7 27.98 C8.49 19.94, 15.83 11.78, 25.32 0.81 M2.75 32.87 C10.39 24.83, 19.95 12.16, 30.96 0.42 M2.75 32.87 C10.77 23.65, 18.51 16.39, 30.96 0.42 M6.43 34.74 C15.57 23.55, 28.97 8.44, 35.95 0.78 M6.43 34.74 C14.52 24.95, 22.22 17.14, 35.95 0.78 M10.1 36.61 C16.46 28.56, 26.51 19.42, 41.59 0.38 M10.1 36.61 C23.23 23.07, 33.9 7.76, 41.59 0.38 M15.75 36.21 C29.04 23.75, 38.97 10.48, 46.58 0.74 M15.75 36.21 C25 24.53, 34.83 15.06, 46.58 0.74 M20.73 36.57 C30.65 26.3, 39.25 16.77, 52.22 0.35 M20.73 36.57 C29.63 26.1, 37.88 15.96, 52.22 0.35 M26.38 36.18 C38.04 24.51, 46.72 12.25, 57.21 0.71 M26.38 36.18 C35.24 25.59, 43.32 15.99, 57.21 0.71 M31.36 36.54 C39.95 29.61, 44.36 22.84, 62.85 0.31 M31.36 36.54 C40.11 26.23, 48.99 15.57, 62.85 0.31 M37.01 36.14 C42.56 29.04, 51.2 19.52, 67.84 0.67 M37.01 36.14 C44.85 26.42, 53.98 16.27, 67.84 0.67 M41.99 36.5 C53.23 26.51, 62.01 14.56, 72.83 1.03 M41.99 36.5 C50.34 27.52, 59.61 17.72, 72.83 1.03 M47.64 36.11 C55.24 30.3, 59.28 19.84, 78.47 0.64 M47.64 36.11 C56.33 25.68, 62.54 16.79, 78.47 0.64 M52.62 36.47 C62.8 24.84, 74.15 12.64, 83.46 1 M52.62 36.47 C63.12 24.32, 73.92 12.23, 83.46 1 M58.27 36.08 C65.34 28.33, 69.81 21.48, 89.1 0.6 M58.27 36.08 C65.94 28.35, 73.51 19.41, 89.1 0.6 M63.25 36.44 C77.13 25.06, 85.33 10.8, 94.09 0.96 M63.25 36.44 C72.57 24.6, 82.69 14.47, 94.09 0.96 M68.9 36.04 C78.01 24.07, 89.17 13.06, 99.73 0.57 M68.9 36.04 C78.75 24.75, 89.21 14.01, 99.73 0.57 M73.88 36.4 C82.97 24.73, 92.88 13.77, 104.72 0.93 M73.88 36.4 C79.52 29.07, 85.68 21.51, 104.72 0.93 M79.53 36.01 C87.68 24.61, 98.26 14.11, 110.36 0.53 M79.53 36.01 C87.11 26.28, 95.96 18.41, 110.36 0.53 M84.51 36.37 C90.83 29.39, 98.57 21.24, 115.35 0.89 M84.51 36.37 C94.32 24.17, 106.43 12.13, 115.35 0.89 M89.5 36.73 C96.87 28.03, 104.05 19.35, 120.99 0.5 M89.5 36.73 C98.14 26.68, 106.37 17.05, 120.99 0.5 M95.14 36.33 C100.23 28.82, 109.73 20.21, 125.98 0.86 M95.14 36.33 C104.57 26.17, 113 15.56, 125.98 0.86 M100.13 36.69 C112.09 24.13, 120.78 11.07, 131.62 0.47 M100.13 36.69 C107.02 29.15, 115.24 19.32, 131.62 0.47 M105.77 36.3 C110.18 28.52, 119.63 23.45, 136.61 0.83 M105.77 36.3 C116.3 23.45, 126.52 10.98, 136.61 0.83 M110.76 36.66 C120.56 25.32, 130.66 13.81, 142.25 0.43 M110.76 36.66 C121.92 25.26, 132.22 13.82, 142.25 0.43 M116.4 36.26 C126.8 24.11, 137.27 12.89, 147.24 0.79 M116.4 36.26 C128.39 24.06, 138.55 11.64, 147.24 0.79 M121.39 36.62 C131.21 22.39, 141.8 11.54, 152.88 0.4 M121.39 36.62 C132.6 24.16, 144.84 10.05, 152.88 0.4 M127.03 36.23 C136.15 24.75, 147.81 13.17, 157.87 0.76 M127.03 36.23 C137.7 24.83, 148.72 12.72, 157.87 0.76 M132.02 36.59 C143.87 25.24, 154.13 12.4, 163.51 0.36 M132.02 36.59 C139.81 29.39, 144.66 20.51, 163.51 0.36 M137.66 36.19 C145.53 30.02, 152.48 19.29, 168.5 0.72 M137.66 36.19 C147.65 24.66, 157.21 13.65, 168.5 0.72 M142.65 36.55 C148.92 29.14, 157.89 17.22, 174.14 0.33 M142.65 36.55 C150.39 27.12, 157.04 20.45, 174.14 0.33 M148.29 36.16 C158.12 23.76, 171.11 10.39, 179.13 0.69 M148.29 36.16 C154.78 27.75, 161.21 21.41, 179.13 0.69 M153.28 36.52 C161.21 25.06, 171.48 18.07, 184.12 1.05 M153.28 36.52 C161.28 27.1, 169.4 19.28, 184.12 1.05 M158.92 36.12 C170.08 20.94, 184.47 8.14, 189.76 0.65 M158.92 36.12 C169.82 23.37, 180.42 10.09, 189.76 0.65 M163.91 36.48 C171.1 27.04, 178.26 22.45, 194.75 1.01 M163.91 36.48 C173.64 24.45, 185.23 12.62, 194.75 1.01 M169.55 36.09 C180.33 24.45, 193.01 10.98, 200.39 0.62 M169.55 36.09 C178.06 27.26, 186.33 16.8, 200.39 0.62 M174.54 36.45 C181.82 27.99, 187.92 21.6, 205.38 0.98 M174.54 36.45 C182.79 28.1, 190.33 19.35, 205.38 0.98 M180.18 36.06 C186.56 27.66, 194.4 17.87, 211.02 0.58 M180.18 36.06 C191.96 22.34, 204.4 8.61, 211.02 0.58 M185.17 36.42 C192.99 27.1, 202.03 18.49, 216.01 0.94 M185.17 36.42 C197.59 23.34, 209.77 9.89, 216.01 0.94 M190.81 36.02 C199.05 24.19, 209.65 15.97, 221.65 0.55 M190.81 36.02 C200.66 24.43, 210.02 12.1, 221.65 0.55 M195.8 36.38 C203.01 28.78, 210.47 19.87, 226.64 0.91 M195.8 36.38 C202.29 28.6, 210.19 19.95, 226.64 0.91 M201.44 35.99 C211.95 25.2, 221.76 14.28, 232.28 0.52 M201.44 35.99 C209.53 25.53, 217.29 16.93, 232.28 0.52 M206.43 36.35 C214.14 29.72, 222.67 20.23, 237.27 0.88 M206.43 36.35 C217.04 24.78, 225.97 12.93, 237.27 0.88 M211.42 36.71 C223.1 25.01, 231.96 13.08, 241.6 1.99 M211.42 36.71 C222.28 23.33, 234.29 9, 241.6 1.99 M217.06 36.31 C223 30.18, 229.32 19.8, 245.93 3.11 M217.06 36.31 C225.34 25.25, 234.45 15.52, 245.93 3.11 M222.05 36.67 C229.71 31.64, 235.31 24.48, 248.95 5.73 M222.05 36.67 C232.15 23.97, 243.75 11.64, 248.95 5.73 M227.69 36.28 C233.13 30.56, 238.97 23.23, 248.69 12.13 M227.69 36.28 C232.91 30.63, 236.83 25.75, 248.69 12.13 M232.68 36.64 C240.13 29.91, 247.3 22.37, 249.08 17.77 M232.68 36.64 C238.23 30.84, 243.99 24.06, 249.08 17.77 M239.63 34.73 C241.2 30.95, 243.66 28.84, 249.48 23.41 M239.63 34.73 C241.68 33.09, 243.97 29.73, 249.48 23.41" stroke="#b2f2bb" stroke-width="0.5" fill="none"></path><path d="M8.75 0 M8.75 0 C92.71 -1.8, 173.99 -0.35, 239.25 0 M8.75 0 C85.82 0.67, 163.04 0.7, 239.25 0 M239.25 0 C245.36 -1.32, 249.8 1.46, 248 8.75 M239.25 0 C243.51 -1.69, 249.99 2.46, 248 8.75 M248 8.75 C246.87 15.21, 248.9 22.07, 248 26.25 M248 8.75 C248.15 13.63, 248.01 18.88, 248 26.25 M248 26.25 C248.99 30.11, 243.94 34.89, 239.25 35 M248 26.25 C247.43 30.51, 243.52 34.43, 239.25 35 M239.25 35 C183.26 37.33, 130.59 35.89, 8.75 35 M239.25 35 C170.36 36.1, 101.42 35.35, 8.75 35 M8.75 35 C4.67 33.39, -0.5 33.62, 0 26.25 M8.75 35 C0.9 36.44, -2.17 33.75, 0 26.25 M0 26.25 C0.13 21.63, -0.15 14.88, 0 8.75 M0 26.25 C0.64 19.72, -0.7 14.7, 0 8.75 M0 8.75 C-0.57 3.68, 1.27 -0.7, 8.75 0 M0 8.75 C-1.02 1.93, 5.08 1.42, 8.75 0" stroke="#1e1e1e" stroke-width="1" fill="none"></path></g><g transform="translate(146.29166412353516 335) rotate(0 71.20833587646484 12.5)"><text x="71.20833587646484" y="0" font-family="Virgil, Segoe UI Emoji" font-size="20px" fill="#1e1e1e" text-anchor="middle" style="white-space: pre;" direction="ltr" dominant-baseline="text-before-edge">[Test] Test2</text></g><g stroke-linecap="round" transform="translate(93.5 293) rotate(0 124 17.5)"><path d="M0.78 4.65 C0.78 4.65, 0.78 4.65, 0.78 4.65 M0.78 4.65 C0.78 4.65, 0.78 4.65, 0.78 4.65 M0.52 11.05 C5.21 6.72, 6.75 3.81, 9.7 0.49 M0.52 11.05 C3.74 8.12, 6.17 3.57, 9.7 0.49 M0.26 17.45 C3.48 14.78, 8.79 8.61, 14.69 0.85 M0.26 17.45 C5.35 10.97, 9.98 6.65, 14.69 0.85 M0 23.85 C6.55 15.97, 11.83 11.68, 20.33 0.45 M0 23.85 C6.06 18.16, 10.89 10.26, 20.33 0.45 M1.7 27.98 C7.39 20.6, 11.75 14.4, 25.32 0.81 M1.7 27.98 C8.81 20.28, 16.07 11.4, 25.32 0.81 M2.75 32.87 C12.54 20.58, 24.58 9.74, 30.96 0.42 M2.75 32.87 C9.7 24.37, 15.29 16.53, 30.96 0.42 M6.43 34.74 C15.55 23.72, 27.87 12.82, 35.95 0.78 M6.43 34.74 C11.73 28.3, 18.33 20.11, 35.95 0.78 M10.1 36.61 C22.06 24.75, 30 14.39, 41.59 0.38 M10.1 36.61 C21.69 23.52, 32.42 13.03, 41.59 0.38 M15.75 36.21 C25.67 24.37, 36.77 12.83, 46.58 0.74 M15.75 36.21 C22.96 26.85, 31.37 19.29, 46.58 0.74 M20.73 36.57 C29.72 25.7, 39.62 14.75, 52.22 0.35 M20.73 36.57 C29.74 26.55, 37.59 17.72, 52.22 0.35 M26.38 36.18 C34.83 27.73, 43.24 16.8, 57.21 0.71 M26.38 36.18 C32.91 27.25, 41.38 20.24, 57.21 0.71 M31.36 36.54 C41.22 25.7, 52.23 13.16, 62.85 0.31 M31.36 36.54 C38.99 27.98, 48.42 16.65, 62.85 0.31 M37.01 36.14 C47.13 23.34, 56.68 9.9, 67.84 0.67 M37.01 36.14 C46.59 25.26, 55.32 15.54, 67.84 0.67 M41.99 36.5 C51.54 23.47, 60.77 12.27, 72.83 1.03 M41.99 36.5 C51.79 23.8, 64.35 11.93, 72.83 1.03 M47.64 36.11 C58.98 24.07, 73.75 10.76, 78.47 0.64 M47.64 36.11 C54.67 29.32, 60.2 21.61, 78.47 0.64 M52.62 36.47 C63.49 26.41, 71.33 13.56, 83.46 1 M52.62 36.47 C60.63 25.61, 71.31 15.95, 83.46 1 M58.27 36.08 C66.36 26.13, 76.17 15.92, 89.1 0.6 M58.27 36.08 C70.52 21.78, 81.24 10.15, 89.1 0.6 M63.25 36.44 C76.18 22.63, 86.25 7.05, 94.09 0.96 M63.25 36.44 C71.03 28.2, 78 18.95, 94.09 0.96 M68.9 36.04 C79.23 24.76, 89.48 13.34, 99.73 0.57 M68.9 36.04 C79.03 24.13, 89.4 12.16, 99.73 0.57 M73.88 36.4 C82.27 24.35, 93.91 11.78, 104.72 0.93 M73.88 36.4 C83.17 26.73, 91.88 15.53, 104.72 0.93 M79.53 36.01 C88.17 25.37, 97.07 13.87, 110.36 0.53 M79.53 36.01 C85.08 28.39, 91.14 20.58, 110.36 0.53 M84.51 36.37 C97.18 24.31, 106.35 8.12, 115.35 0.89 M84.51 36.37 C93.52 24.25, 104.51 13.5, 115.35 0.89 M89.5 36.73 C97.71 26.83, 108.09 17.06, 120.99 0.5 M89.5 36.73 C96.7 26.97, 105.26 17.18, 120.99 0.5 M95.14 36.33 C103.46 27.91, 112.9 17.42, 125.98 0.86 M95.14 36.33 C107.36 21.86, 118.33 9.86, 125.98 0.86 M100.13 36.69 C107.43 26.33, 115.73 16, 131.62 0.47 M100.13 36.69 C111.35 23.13, 124.25 7.94, 131.62 0.47 M105.77 36.3 C115.15 26.64, 123.25 15.92, 136.61 0.83 M105.77 36.3 C114.14 27.81, 121.77 18.05, 136.61 0.83 M110.76 36.66 C119.05 27.28, 125.42 19.89, 142.25 0.43 M110.76 36.66 C121.5 23.63, 132.71 11.87, 142.25 0.43 M116.4 36.26 C126.18 24.61, 135.28 17.67, 147.24 0.79 M116.4 36.26 C127.73 24.52, 138.06 10.63, 147.24 0.79 M121.39 36.62 C129.86 28.57, 135.45 20.19, 152.88 0.4 M121.39 36.62 C132.43 23.79, 143.57 10.78, 152.88 0.4 M127.03 36.23 C136.87 25.59, 145.88 15.42, 157.87 0.76 M127.03 36.23 C138.69 22.81, 150.59 10.08, 157.87 0.76 M132.02 36.59 C140.77 23.05, 151.55 13.66, 163.51 0.36 M132.02 36.59 C141.78 25.31, 152.62 14, 163.51 0.36 M137.66 36.19 C149.96 21.33, 162.92 8.86, 168.5 0.72 M137.66 36.19 C144.21 28.48, 151.51 18.95, 168.5 0.72 M142.65 36.55 C152.65 25.46, 164.31 12, 174.14 0.33 M142.65 36.55 C150.01 28.88, 155.49 20.47, 174.14 0.33 M148.29 36.16 C157.51 23.91, 171.9 11.23, 179.13 0.69 M148.29 36.16 C154.33 28.58, 160.06 21.08, 179.13 0.69 M153.28 36.52 C158.6 30.79, 164.22 22.63, 184.12 1.05 M153.28 36.52 C160.86 28.41, 166.34 19.89, 184.12 1.05 M158.92 36.12 C166.74 30.25, 172.21 20.54, 189.76 0.65 M158.92 36.12 C168.09 24.39, 178.26 13.88, 189.76 0.65 M163.91 36.48 C171.1 29.58, 175.68 20.13, 194.75 1.01 M163.91 36.48 C172.82 25.7, 180.95 16.48, 194.75 1.01 M169.55 36.09 C178.82 23.12, 187.99 12.53, 200.39 0.62 M169.55 36.09 C180.15 23.72, 191.54 10.57, 200.39 0.62 M174.54 36.45 C181.82 26.09, 190.73 18.37, 205.38 0.98 M174.54 36.45 C183.58 23.96, 195 12.96, 205.38 0.98 M180.18 36.06 C191.25 25.61, 199.62 14.66, 211.02 0.58 M180.18 36.06 C189.25 24.58, 199.5 13.71, 211.02 0.58 M185.17 36.42 C194.9 24.93, 203.64 17.85, 216.01 0.94 M185.17 36.42 C196.58 22.73, 207.07 8.85, 216.01 0.94 M190.81 36.02 C198.82 28.13, 205.73 18.54, 221.65 0.55 M190.81 36.02 C199.48 25.18, 209.19 15.19, 221.65 0.55 M195.8 36.38 C203.03 27.6, 212.92 15.42, 226.64 0.91 M195.8 36.38 C206.02 25.65, 215.38 13.56, 226.64 0.91 M201.44 35.99 C211.43 25.7, 220.64 11.38, 232.28 0.52 M201.44 35.99 C207.82 28.26, 214.35 20.74, 232.28 0.52 M206.43 36.35 C218.43 23.55, 230.11 10.45, 237.27 0.88 M206.43 36.35 C217.2 23.89, 226.41 13.58, 237.27 0.88 M211.42 36.71 C221.33 29.08, 226.94 16.61, 241.6 1.99 M211.42 36.71 C220.64 26.51, 232.14 14.29, 241.6 1.99 M217.06 36.31 C228.07 24.04, 240.12 10.59, 245.93 3.11 M217.06 36.31 C222.17 29.51, 229.69 23.68, 245.93 3.11 M222.05 36.67 C234.11 23.98, 242.88 11.32, 248.95 5.73 M222.05 36.67 C228.14 28.58, 234.89 21.44, 248.95 5.73 M227.69 36.28 C232.51 27.53, 240.99 22.36, 248.69 12.13 M227.69 36.28 C233.65 29.84, 238.05 25.17, 248.69 12.13 M232.68 36.64 C239.27 31.72, 242.64 23.4, 249.08 17.77 M232.68 36.64 C238.06 29.9, 246.14 21.72, 249.08 17.77 M239.63 34.73 C240.14 32.41, 243.44 30.34, 249.48 23.41 M239.63 34.73 C243.77 29.85, 247.44 26.65, 249.48 23.41" stroke="#a5d8ff" stroke-width="0.5" fill="none"></path><path d="M8.75 0 M8.75 0 C67.14 -1.52, 123.67 -1.55, 239.25 0 M8.75 0 C76.4 -0.49, 144.58 -0.55, 239.25 0 M239.25 0 C243.72 -1.47, 249.73 2.52, 248 8.75 M239.25 0 C247.24 -2.24, 246.09 1.65, 248 8.75 M248 8.75 C247.72 12.41, 249.25 18.91, 248 26.25 M248 8.75 C248.46 13.16, 247.53 19.24, 248 26.25 M248 26.25 C247.5 30.71, 243.73 34.5, 239.25 35 M248 26.25 C246.54 30.02, 246.89 33, 239.25 35 M239.25 35 C159.25 34.34, 79.49 35.09, 8.75 35 M239.25 35 C148.94 34.44, 56.94 35.78, 8.75 35 M8.75 35 C1.16 36.25, -1.89 33.53, 0 26.25 M8.75 35 C3.87 34.52, -1.88 32.21, 0 26.25 M0 26.25 C0.97 18.02, 1.39 14, 0 8.75 M0 26.25 C-0.08 22, -0.55 16.76, 0 8.75 M0 8.75 C-0.89 2.06, 4.8 1.23, 8.75 0 M0 8.75 C-0.8 1.99, 4.21 0.84, 8.75 0" stroke="#1e1e1e" stroke-width="1" fill="none"></path></g><g transform="translate(178.31666564941406 298) rotate(0 39.18333435058594 12.5)"><text x="39.18333435058594" y="0" font-family="Virgil, Segoe UI Emoji" font-size="20px" fill="#1e1e1e" text-anchor="middle" style="white-space: pre;" direction="ltr" dominant-baseline="text-before-edge">[SetUp]</text></g><g stroke-linecap="round" transform="translate(93.5 366) rotate(0 124 17.5)"><path d="M0.78 4.65 C0.78 4.65, 0.78 4.65, 0.78 4.65 M0.78 4.65 C0.78 4.65, 0.78 4.65, 0.78 4.65 M0.52 11.05 C3.67 8.99, 4.99 5.49, 9.7 0.49 M0.52 11.05 C3.83 7.09, 7.12 2.76, 9.7 0.49 M0.26 17.45 C6.4 13.04, 9.87 5.71, 14.69 0.85 M0.26 17.45 C3.28 13.1, 7.21 10.41, 14.69 0.85 M0 23.85 C4.5 17.7, 9.75 13.07, 20.33 0.45 M0 23.85 C6.89 14.95, 14.55 6.8, 20.33 0.45 M1.7 27.98 C7.63 20.96, 13.43 14.71, 25.32 0.81 M1.7 27.98 C10.62 18.99, 17.24 8.85, 25.32 0.81 M2.75 32.87 C9.51 25.25, 20.11 15.18, 30.96 0.42 M2.75 32.87 C9.91 26.09, 15.03 17.58, 30.96 0.42 M6.43 34.74 C13.84 25.2, 25.04 11.61, 35.95 0.78 M6.43 34.74 C17.48 23.32, 27.96 11.19, 35.95 0.78 M10.1 36.61 C20.84 23.8, 28.15 15.03, 41.59 0.38 M10.1 36.61 C16.57 29.27, 22.75 21.54, 41.59 0.38 M15.75 36.21 C22.88 26.6, 34.27 16.24, 46.58 0.74 M15.75 36.21 C23.14 27.68, 31.05 18.31, 46.58 0.74 M20.73 36.57 C29.85 24.34, 39.63 14.76, 52.22 0.35 M20.73 36.57 C29.42 26.47, 37.71 16.24, 52.22 0.35 M26.38 36.18 C36.88 22.08, 49.45 7.49, 57.21 0.71 M26.38 36.18 C34.33 26.93, 42.39 17.85, 57.21 0.71 M31.36 36.54 C42.13 24.32, 52.17 8.78, 62.85 0.31 M31.36 36.54 C44.31 22.62, 56.08 7.64, 62.85 0.31 M37.01 36.14 C45.51 26.01, 53.37 17.72, 67.84 0.67 M37.01 36.14 C46.3 26.37, 54.49 15.47, 67.84 0.67 M41.99 36.5 C50.55 29.16, 57.68 18.11, 72.83 1.03 M41.99 36.5 C51.73 25.25, 59.3 14.91, 72.83 1.03 M47.64 36.11 C56.97 20.93, 69.14 10.03, 78.47 0.64 M47.64 36.11 C58.08 24.76, 68.17 13.45, 78.47 0.64 M52.62 36.47 C64.31 23.55, 76.28 7.85, 83.46 1 M52.62 36.47 C60.12 26.67, 68.21 17.78, 83.46 1 M58.27 36.08 C69.87 25.39, 79.09 14.54, 89.1 0.6 M58.27 36.08 C66.16 27.15, 72.58 20.18, 89.1 0.6 M63.25 36.44 C72.11 24.49, 84.63 14.75, 94.09 0.96 M63.25 36.44 C73.37 24.67, 84.01 13.8, 94.09 0.96 M68.9 36.04 C78.72 26.21, 89.52 14.86, 99.73 0.57 M68.9 36.04 C77.58 25.33, 86.77 15.24, 99.73 0.57 M73.88 36.4 C82.37 24.92, 90.44 16.94, 104.72 0.93 M73.88 36.4 C83.95 24.55, 94.49 13.01, 104.72 0.93 M79.53 36.01 C87.65 26.5, 99.67 12.56, 110.36 0.53 M79.53 36.01 C89.22 25.69, 98.15 16.77, 110.36 0.53 M84.51 36.37 C96.42 24.24, 108.78 9.13, 115.35 0.89 M84.51 36.37 C91.69 27.77, 98.95 18.78, 115.35 0.89 M89.5 36.73 C98.47 25.87, 108.18 12.03, 120.99 0.5 M89.5 36.73 C97.73 28.4, 105.27 18.08, 120.99 0.5 M95.14 36.33 C107.55 22.18, 118.93 11.54, 125.98 0.86 M95.14 36.33 C101.79 28, 108.11 19.78, 125.98 0.86 M100.13 36.69 C110.09 27.65, 115.68 16.67, 131.62 0.47 M100.13 36.69 C110.29 25.68, 121.76 13.75, 131.62 0.47 M105.77 36.3 C115.01 23.32, 124.91 13.15, 136.61 0.83 M105.77 36.3 C117.22 23.59, 128.45 9.59, 136.61 0.83 M110.76 36.66 C120.47 27.58, 130.24 16.89, 142.25 0.43 M110.76 36.66 C118.34 27.67, 126.54 18.73, 142.25 0.43 M116.4 36.26 C124.14 28.26, 131.26 21.08, 147.24 0.79 M116.4 36.26 C127.8 21.75, 140.88 9.04, 147.24 0.79 M121.39 36.62 C132.07 27.25, 139.5 15.04, 152.88 0.4 M121.39 36.62 C130.08 27.11, 138.76 16.94, 152.88 0.4 M127.03 36.23 C137.56 27.08, 146.57 15.83, 157.87 0.76 M127.03 36.23 C136.89 25.54, 146.13 12.88, 157.87 0.76 M132.02 36.59 C140.34 25.72, 145.52 17.47, 163.51 0.36 M132.02 36.59 C142.63 25.72, 150.96 14.38, 163.51 0.36 M137.66 36.19 C144.36 28.04, 152 16.36, 168.5 0.72 M137.66 36.19 C149.22 24.1, 158.39 11.02, 168.5 0.72 M142.65 36.55 C152.8 22.09, 168.58 10.64, 174.14 0.33 M142.65 36.55 C152.8 25.51, 162.44 13.96, 174.14 0.33 M148.29 36.16 C156.35 25.19, 168.36 12.25, 179.13 0.69 M148.29 36.16 C156.22 26.92, 166.2 16.17, 179.13 0.69 M153.28 36.52 C164.2 24.2, 178.54 10.36, 184.12 1.05 M153.28 36.52 C162.17 26.56, 172.13 15.53, 184.12 1.05 M158.92 36.12 C171.39 20.89, 182.8 6.59, 189.76 0.65 M158.92 36.12 C165.59 27.86, 174.6 19.42, 189.76 0.65 M163.91 36.48 C174.23 25.71, 185.11 13.41, 194.75 1.01 M163.91 36.48 C170.92 29.75, 177 20.83, 194.75 1.01 M169.55 36.09 C178.16 27.34, 183.69 18.42, 200.39 0.62 M169.55 36.09 C180.2 23.45, 191.77 10.72, 200.39 0.62 M174.54 36.45 C183.38 27.99, 191.46 15.81, 205.38 0.98 M174.54 36.45 C180.46 29.33, 185.84 23.24, 205.38 0.98 M180.18 36.06 C189.51 26.2, 198.71 13.92, 211.02 0.58 M180.18 36.06 C188.38 27.06, 196.93 17.34, 211.02 0.58 M185.17 36.42 C192.63 30.58, 199.07 22, 216.01 0.94 M185.17 36.42 C193.85 26.23, 204.14 16.37, 216.01 0.94 M190.81 36.02 C201.45 22.25, 210.59 9.84, 221.65 0.55 M190.81 36.02 C198.86 27.47, 206.16 16.83, 221.65 0.55 M195.8 36.38 C207.54 24.67, 217.61 11.52, 226.64 0.91 M195.8 36.38 C208.07 22.93, 220.18 9.1, 226.64 0.91 M201.44 35.99 C212.39 19.91, 227.28 6.42, 232.28 0.52 M201.44 35.99 C211.96 25.84, 220.89 14.46, 232.28 0.52 M206.43 36.35 C217.23 22.71, 227.4 13.03, 237.27 0.88 M206.43 36.35 C213.69 28.03, 220.68 20.25, 237.27 0.88 M211.42 36.71 C223.37 22.48, 233.51 9.22, 241.6 1.99 M211.42 36.71 C223.6 23.05, 233.87 9.74, 241.6 1.99 M217.06 36.31 C223.85 26.39, 233.16 14.39, 245.93 3.11 M217.06 36.31 C226.03 27.34, 234.07 17.88, 245.93 3.11 M222.05 36.67 C228.42 29.24, 235.51 18.85, 248.95 5.73 M222.05 36.67 C228.85 29.41, 234.77 20.81, 248.95 5.73 M227.69 36.28 C231.59 30.71, 237.03 26.36, 248.69 12.13 M227.69 36.28 C232.79 31.44, 237.53 25.79, 248.69 12.13 M232.68 36.64 C240.7 29.01, 246.82 20.4, 249.08 17.77 M232.68 36.64 C237.61 29.84, 243.75 21.81, 249.08 17.77 M239.63 34.73 C243.75 32.19, 244.47 28.97, 249.48 23.41 M239.63 34.73 C241.33 31.98, 244.09 30.07, 249.48 23.41" stroke="#a5d8ff" stroke-width="0.5" fill="none"></path><path d="M8.75 0 M8.75 0 C66.83 -0.41, 125.09 1.2, 239.25 0 M8.75 0 C62.14 0.8, 117.43 1.25, 239.25 0 M239.25 0 C246.96 -1.94, 246.34 1.82, 248 8.75 M239.25 0 C244.51 1.4, 247.38 2.41, 248 8.75 M248 8.75 C248.13 13.1, 248.89 17.81, 248 26.25 M248 8.75 C247.68 11.67, 247.31 15.58, 248 26.25 M248 26.25 C246.73 30.29, 246.65 33.26, 239.25 35 M248 26.25 C249.08 32.58, 244.21 35.02, 239.25 35 M239.25 35 C170.6 37.52, 98.83 37.44, 8.75 35 M239.25 35 C187.93 37.03, 137.29 37.11, 8.75 35 M8.75 35 C3.75 34.59, -1.63 32.19, 0 26.25 M8.75 35 C4.7 34.76, 0.77 33.33, 0 26.25 M0 26.25 C-0.8 20.91, 1.58 18.5, 0 8.75 M0 26.25 C-0.24 19.96, 0.97 14.95, 0 8.75 M0 8.75 C-0.7 2.11, 4.04 0.73, 8.75 0 M0 8.75 C-1.35 4.1, 0.9 0.08, 8.75 0" stroke="#1e1e1e" stroke-width="1" fill="none"></path></g><g transform="translate(159.01666641235352 371) rotate(0 58.483333587646484 12.5)"><text x="58.483333587646484" y="0" font-family="Virgil, Segoe UI Emoji" font-size="20px" fill="#1e1e1e" text-anchor="middle" style="white-space: pre;" direction="ltr" dominant-baseline="text-before-edge">[TearDown]</text></g><g stroke-linecap="round" transform="translate(96 430.5) rotate(0 124 17.5)"><path d="M0.78 4.65 C0.78 4.65, 0.78 4.65, 0.78 4.65 M0.78 4.65 C0.78 4.65, 0.78 4.65, 0.78 4.65 M0.52 11.05 C3.42 8.59, 5.69 4.68, 9.7 0.49 M0.52 11.05 C3.23 8.55, 4.68 5.76, 9.7 0.49 M0.26 17.45 C3.9 9.38, 11.99 3.55, 14.69 0.85 M0.26 17.45 C6.15 10.44, 11.75 4.47, 14.69 0.85 M0 23.85 C7.18 14.85, 13.62 10.23, 20.33 0.45 M0 23.85 C6.63 16.41, 12.34 9.16, 20.33 0.45 M1.7 27.98 C8.94 19.04, 19.49 8.02, 25.32 0.81 M1.7 27.98 C6.51 22.76, 12.81 15.8, 25.32 0.81 M2.75 32.87 C9.88 24.82, 18.48 18.27, 30.96 0.42 M2.75 32.87 C8.52 25.86, 14.86 18.88, 30.96 0.42 M6.43 34.74 C17.14 22.68, 26.74 12.74, 35.95 0.78 M6.43 34.74 C12.13 27.78, 18.96 20.5, 35.95 0.78 M10.1 36.61 C22.28 22.41, 32.34 11.15, 41.59 0.38 M10.1 36.61 C17.21 29.31, 24.59 19.22, 41.59 0.38 M15.75 36.21 C27.02 22.56, 36.7 12.44, 46.58 0.74 M15.75 36.21 C24.61 24.54, 34.48 15.93, 46.58 0.74 M20.73 36.57 C27.58 29.66, 35.82 21.13, 52.22 0.35 M20.73 36.57 C29.79 26.01, 39.75 15.56, 52.22 0.35 M26.38 36.18 C36.61 23.27, 46.38 14.81, 57.21 0.71 M26.38 36.18 C33.7 26.54, 42.29 18.67, 57.21 0.71 M31.36 36.54 C38.46 28.73, 47.8 19.17, 62.85 0.31 M31.36 36.54 C37.81 28.63, 45.12 19.45, 62.85 0.31 M37.01 36.14 C44.72 25.86, 55.19 17.14, 67.84 0.67 M37.01 36.14 C48.3 22.6, 60.34 8.26, 67.84 0.67 M41.99 36.5 C53.31 24.95, 66.37 9, 72.83 1.03 M41.99 36.5 C51.5 25.8, 60.83 15.54, 72.83 1.03 M47.64 36.11 C58.54 26.37, 68.99 14.32, 78.47 0.64 M47.64 36.11 C53.5 27.85, 59.71 21.46, 78.47 0.64 M52.62 36.47 C59.83 28.73, 70.96 16.27, 83.46 1 M52.62 36.47 C61.77 26.14, 70.52 18.13, 83.46 1 M58.27 36.08 C66.2 27.27, 77 17.77, 89.1 0.6 M58.27 36.08 C67.82 24.92, 79.92 12.16, 89.1 0.6 M63.25 36.44 C72.97 25.14, 85.93 8.06, 94.09 0.96 M63.25 36.44 C73.66 23.76, 82.94 11.99, 94.09 0.96 M68.9 36.04 C78.27 23.3, 89.62 11.09, 99.73 0.57 M68.9 36.04 C80.9 21.97, 92.66 7.48, 99.73 0.57 M73.88 36.4 C85.99 25.57, 94.96 12.53, 104.72 0.93 M73.88 36.4 C83.68 23.71, 95.1 11.45, 104.72 0.93 M79.53 36.01 C91.36 24.9, 99.58 10.77, 110.36 0.53 M79.53 36.01 C90.45 22.86, 102 10.3, 110.36 0.53 M84.51 36.37 C97.01 22.58, 106.61 12.27, 115.35 0.89 M84.51 36.37 C93.25 25.73, 101.96 16.27, 115.35 0.89 M89.5 36.73 C97.42 27.06, 103.72 16.68, 120.99 0.5 M89.5 36.73 C95.57 28.75, 101.45 22.81, 120.99 0.5 M95.14 36.33 C103.39 25.05, 113.86 14.92, 125.98 0.86 M95.14 36.33 C104.16 26.03, 114.07 14.21, 125.98 0.86 M100.13 36.69 C106.86 26.09, 115.63 18.46, 131.62 0.47 M100.13 36.69 C107.77 30.09, 112.83 23.03, 131.62 0.47 M105.77 36.3 C115.72 24.89, 120.8 15.53, 136.61 0.83 M105.77 36.3 C114.82 26.17, 125.24 15.27, 136.61 0.83 M110.76 36.66 C120.13 27.67, 127.66 15.79, 142.25 0.43 M110.76 36.66 C119.72 26.7, 127.12 18.22, 142.25 0.43 M116.4 36.26 C124.85 25.68, 135.07 14.48, 147.24 0.79 M116.4 36.26 C123.23 28.95, 129.95 21.34, 147.24 0.79 M121.39 36.62 C131.81 22.21, 142.77 12.24, 152.88 0.4 M121.39 36.62 C134.13 21.26, 147.34 7.85, 152.88 0.4 M127.03 36.23 C137.12 23, 149.39 14.7, 157.87 0.76 M127.03 36.23 C133.81 27.7, 142.23 18.46, 157.87 0.76 M132.02 36.59 C140.66 26.86, 150.41 16.34, 163.51 0.36 M132.02 36.59 C140.13 29.02, 146.24 18.61, 163.51 0.36 M137.66 36.19 C147.15 24.43, 158.21 13.64, 168.5 0.72 M137.66 36.19 C145.54 26.4, 153.41 18.12, 168.5 0.72 M142.65 36.55 C152.01 25.38, 161.58 14.92, 174.14 0.33 M142.65 36.55 C154.24 23.7, 165.38 11.73, 174.14 0.33 M148.29 36.16 C158.06 21.78, 172.23 8.48, 179.13 0.69 M148.29 36.16 C160.52 23.15, 171.08 9.55, 179.13 0.69 M153.28 36.52 C163.81 21.23, 178.02 9, 184.12 1.05 M153.28 36.52 C162.33 26.76, 169.91 16.87, 184.12 1.05 M158.92 36.12 C164.92 28.14, 175.24 18.41, 189.76 0.65 M158.92 36.12 C171.39 21.25, 184.13 8.03, 189.76 0.65 M163.91 36.48 C172.01 27.34, 184.3 13.56, 194.75 1.01 M163.91 36.48 C173.31 25.42, 183.63 14.08, 194.75 1.01 M169.55 36.09 C179.68 21.11, 194.1 9.32, 200.39 0.62 M169.55 36.09 C181.94 21.37, 193.72 7.78, 200.39 0.62 M174.54 36.45 C182.65 25.25, 191.47 17.66, 205.38 0.98 M174.54 36.45 C186.04 24.01, 197.14 11.84, 205.38 0.98 M180.18 36.06 C188.41 24.22, 196.51 15.01, 211.02 0.58 M180.18 36.06 C187.96 25.7, 197.9 16.33, 211.02 0.58 M185.17 36.42 C196.79 22.12, 208.24 9.87, 216.01 0.94 M185.17 36.42 C192.08 29.27, 197.93 20.99, 216.01 0.94 M190.81 36.02 C196.25 27.99, 203.36 18.5, 221.65 0.55 M190.81 36.02 C197.76 27.16, 206.45 17.49, 221.65 0.55 M195.8 36.38 C204.1 29.12, 210 19.06, 226.64 0.91 M195.8 36.38 C205.42 25.19, 214.33 14.53, 226.64 0.91 M201.44 35.99 C208.24 25.99, 218.87 15.49, 232.28 0.52 M201.44 35.99 C207.55 29.28, 213.68 20.55, 232.28 0.52 M206.43 36.35 C215.88 28.4, 223.05 19.72, 237.27 0.88 M206.43 36.35 C217.32 23.25, 229.39 8.49, 237.27 0.88 M211.42 36.71 C217.59 29.66, 222.57 21.34, 241.6 1.99 M211.42 36.71 C217.67 28.47, 225.15 21.44, 241.6 1.99 M217.06 36.31 C224.69 29.15, 230.48 21.24, 245.93 3.11 M217.06 36.31 C228.33 22.46, 238.81 10.41, 245.93 3.11 M222.05 36.67 C231.4 28.82, 237.16 18.9, 248.95 5.73 M222.05 36.67 C230.15 27.29, 238.26 16.72, 248.95 5.73 M227.69 36.28 C234.57 26.63, 241.83 18.11, 248.69 12.13 M227.69 36.28 C232.27 29.76, 238.29 25.07, 248.69 12.13 M232.68 36.64 C237.94 32.46, 242.82 23.9, 249.08 17.77 M232.68 36.64 C238.87 30.71, 242.49 23.9, 249.08 17.77 M239.63 34.73 C240.98 33.52, 244.85 29.62, 249.48 23.41 M239.63 34.73 C243.39 30.74, 247.18 26.48, 249.48 23.41" stroke="#a5d8ff" stroke-width="0.5" fill="none"></path><path d="M8.75 0 M8.75 0 C73.03 -0.53, 140.28 -2.37, 239.25 0 M8.75 0 C98.45 0.56, 188.75 -0.79, 239.25 0 M239.25 0 C246.53 1.61, 248.74 2.14, 248 8.75 M239.25 0 C245.58 -0.45, 250.07 0.98, 248 8.75 M248 8.75 C247.39 12.45, 247.41 18.47, 248 26.25 M248 8.75 C247.64 13.16, 248.46 18.9, 248 26.25 M248 26.25 C246.18 31.15, 245.06 34.02, 239.25 35 M248 26.25 C249.41 31.17, 245.53 36.25, 239.25 35 M239.25 35 C174.76 32.37, 108.69 33.72, 8.75 35 M239.25 35 C165.78 36.08, 91.95 36.06, 8.75 35 M8.75 35 C2.09 34.92, -0.64 30.66, 0 26.25 M8.75 35 C4.03 34.68, -0.9 33.35, 0 26.25 M0 26.25 C1.16 19.8, 1.16 15.35, 0 8.75 M0 26.25 C0.6 21.59, -0.73 17.21, 0 8.75 M0 8.75 C0.23 2.94, 4.77 1.17, 8.75 0 M0 8.75 C1.85 5.21, 1.91 -1.26, 8.75 0" stroke="#1e1e1e" stroke-width="1" fill="none"></path></g><g transform="translate(122.08333587646484 435.5) rotate(0 97.91666412353516 12.5)"><text x="97.91666412353516" y="0" font-family="Virgil, Segoe UI Emoji" font-size="20px" fill="#1e1e1e" text-anchor="middle" style="white-space: pre;" direction="ltr" dominant-baseline="text-before-edge">[OneTimeTearDown]</text></g><g stroke-linecap="round" transform="translate(99 474.5) rotate(0 124 17.5)"><path d="M0.78 4.65 C0.78 4.65, 0.78 4.65, 0.78 4.65 M0.78 4.65 C0.78 4.65, 0.78 4.65, 0.78 4.65 M0.52 11.05 C2.38 9.17, 5.49 7.35, 9.7 0.49 M0.52 11.05 C3.56 7.53, 6.99 3.88, 9.7 0.49 M0.26 17.45 C4.56 12, 8.1 9.27, 14.69 0.85 M0.26 17.45 C2.56 14.28, 6.39 10.4, 14.69 0.85 M0 23.85 C7.87 14.71, 15.18 5.18, 20.33 0.45 M0 23.85 C6.36 17.86, 11.79 10.74, 20.33 0.45 M1.7 27.98 C6.69 21.72, 15.05 12.66, 25.32 0.81 M1.7 27.98 C9.19 21.22, 14.3 13.67, 25.32 0.81 M2.75 32.87 C13.06 22.1, 22.73 12.4, 30.96 0.42 M2.75 32.87 C9.63 24.98, 18 16.4, 30.96 0.42 M6.43 34.74 C12.27 26.09, 20.23 16.83, 35.95 0.78 M6.43 34.74 C14.16 25.13, 23.55 16.64, 35.95 0.78 M10.1 36.61 C17.8 28.93, 26.13 18.77, 41.59 0.38 M10.1 36.61 C20.72 23.13, 32.48 10.42, 41.59 0.38 M15.75 36.21 C26.52 24.62, 39.14 11.79, 46.58 0.74 M15.75 36.21 C27.13 22.58, 39.46 9.01, 46.58 0.74 M20.73 36.57 C29.44 26.49, 35.75 17.12, 52.22 0.35 M20.73 36.57 C28.07 27.78, 34.48 20.25, 52.22 0.35 M26.38 36.18 C39.26 22.15, 50.44 8.04, 57.21 0.71 M26.38 36.18 C38.09 22.97, 48.56 9.59, 57.21 0.71 M31.36 36.54 C37.1 27.96, 44.13 19.18, 62.85 0.31 M31.36 36.54 C39.94 26.99, 48.36 14.94, 62.85 0.31 M37.01 36.14 C44.64 27.59, 48.1 20.44, 67.84 0.67 M37.01 36.14 C48.26 23.91, 59.32 11.59, 67.84 0.67 M41.99 36.5 C52.97 24.33, 60.53 11.67, 72.83 1.03 M41.99 36.5 C52.48 23.95, 62.28 11.98, 72.83 1.03 M47.64 36.11 C57.94 24.04, 70.92 7.71, 78.47 0.64 M47.64 36.11 C55.86 26.84, 63.7 18.21, 78.47 0.64 M52.62 36.47 C62.64 21.78, 76.25 9.32, 83.46 1 M52.62 36.47 C63.1 24.55, 72.55 13.79, 83.46 1 M58.27 36.08 C70.47 22.07, 80.35 10.05, 89.1 0.6 M58.27 36.08 C67.49 24.54, 77.24 13.59, 89.1 0.6 M63.25 36.44 C70.74 27.64, 81.84 15.45, 94.09 0.96 M63.25 36.44 C75.4 23.58, 85.17 11.47, 94.09 0.96 M68.9 36.04 C79.07 22.93, 87.47 11.63, 99.73 0.57 M68.9 36.04 C81.04 23.79, 91.44 10.71, 99.73 0.57 M73.88 36.4 C83.35 26.83, 92.18 14.73, 104.72 0.93 M73.88 36.4 C84.07 24.75, 93.17 14.16, 104.72 0.93 M79.53 36.01 C88.16 29.09, 92.4 20.37, 110.36 0.53 M79.53 36.01 C91.35 22.43, 103.77 8.28, 110.36 0.53 M84.51 36.37 C91.91 26.44, 99.78 19.2, 115.35 0.89 M84.51 36.37 C92.56 25.35, 102.5 15.72, 115.35 0.89 M89.5 36.73 C95.28 30.39, 102.04 21.97, 120.99 0.5 M89.5 36.73 C99.72 24.58, 111.45 11.72, 120.99 0.5 M95.14 36.33 C106.96 24.61, 115.06 11.85, 125.98 0.86 M95.14 36.33 C102.84 26.58, 111.51 18.11, 125.98 0.86 M100.13 36.69 C107.07 28.01, 117.58 16.46, 131.62 0.47 M100.13 36.69 C110.97 24.61, 123.51 10.16, 131.62 0.47 M105.77 36.3 C112.39 30.87, 119.83 23.37, 136.61 0.83 M105.77 36.3 C118.07 23.22, 129.88 8.02, 136.61 0.83 M110.76 36.66 C117.47 28.18, 123.07 22.24, 142.25 0.43 M110.76 36.66 C122.07 25.38, 132.68 12.2, 142.25 0.43 M116.4 36.26 C128.27 22.34, 141.4 6.68, 147.24 0.79 M116.4 36.26 C125.56 27.38, 132.88 16.97, 147.24 0.79 M121.39 36.62 C130.82 26.67, 138.96 15.52, 152.88 0.4 M121.39 36.62 C130.66 25.58, 139.18 15.18, 152.88 0.4 M127.03 36.23 C138.24 24.87, 146.21 12.94, 157.87 0.76 M127.03 36.23 C139.21 23.62, 151.13 9.66, 157.87 0.76 M132.02 36.59 C139.43 25.1, 146.57 19.39, 163.51 0.36 M132.02 36.59 C141.32 25, 151.22 16.2, 163.51 0.36 M137.66 36.19 C146.1 25.4, 158.18 13.1, 168.5 0.72 M137.66 36.19 C143.28 28.02, 150.72 22.01, 168.5 0.72 M142.65 36.55 C150.97 24.49, 160.68 16.43, 174.14 0.33 M142.65 36.55 C150.06 26.35, 159.22 17.1, 174.14 0.33 M148.29 36.16 C158.46 22.3, 168.25 10.7, 179.13 0.69 M148.29 36.16 C160.23 22.77, 172.89 7.71, 179.13 0.69 M153.28 36.52 C167.52 23.46, 177.41 8.96, 184.12 1.05 M153.28 36.52 C159.68 28.99, 167.29 21.2, 184.12 1.05 M158.92 36.12 C170.14 25.29, 178.04 14.75, 189.76 0.65 M158.92 36.12 C169.3 23.14, 180.59 10.31, 189.76 0.65 M163.91 36.48 C169.96 28.82, 179.79 20.24, 194.75 1.01 M163.91 36.48 C170.23 29.42, 178.34 21.04, 194.75 1.01 M169.55 36.09 C182.39 21.6, 190.37 11.65, 200.39 0.62 M169.55 36.09 C176.28 27.48, 183.93 18.28, 200.39 0.62 M174.54 36.45 C180.08 26.15, 187.12 18.36, 205.38 0.98 M174.54 36.45 C180.89 29.02, 188.71 20.42, 205.38 0.98 M180.18 36.06 C192.65 25.53, 200.49 12.11, 211.02 0.58 M180.18 36.06 C187.46 27.41, 193.47 19.59, 211.02 0.58 M185.17 36.42 C190.41 28.19, 198.84 19.08, 216.01 0.94 M185.17 36.42 C197.94 24.15, 209.22 9.51, 216.01 0.94 M190.81 36.02 C202.64 24.27, 214.74 11.62, 221.65 0.55 M190.81 36.02 C202.2 22.61, 214.76 8.48, 221.65 0.55 M195.8 36.38 C204.57 23.98, 217.13 9.88, 226.64 0.91 M195.8 36.38 C206.81 23.82, 218.38 9.04, 226.64 0.91 M201.44 35.99 C211.72 25.33, 217.33 15.17, 232.28 0.52 M201.44 35.99 C207.38 27.98, 214.32 19.89, 232.28 0.52 M206.43 36.35 C215.51 25.33, 222.74 17.79, 237.27 0.88 M206.43 36.35 C217.47 24.35, 226.58 13.58, 237.27 0.88 M211.42 36.71 C222.21 25.79, 232.15 10.44, 241.6 1.99 M211.42 36.71 C221.66 25.5, 231.18 13.79, 241.6 1.99 M217.06 36.31 C223.15 27.32, 230.88 18.92, 245.93 3.11 M217.06 36.31 C224.26 27.71, 232.91 19.68, 245.93 3.11 M222.05 36.67 C233.02 26.4, 245.14 13.77, 248.95 5.73 M222.05 36.67 C230.95 26.19, 240.23 15.43, 248.95 5.73 M227.69 36.28 C235.28 26.41, 242.54 18.1, 248.69 12.13 M227.69 36.28 C230.98 31.01, 236.94 25.75, 248.69 12.13 M232.68 36.64 C237.93 32.81, 242.87 28.11, 249.08 17.77 M232.68 36.64 C236.87 31.7, 239.27 27.6, 249.08 17.77 M239.63 34.73 C243.13 30.18, 247.67 26.04, 249.48 23.41 M239.63 34.73 C243.32 31.95, 246.02 27.27, 249.48 23.41" stroke="#ffc9c9" stroke-width="0.5" fill="none"></path><path d="M8.75 0 M8.75 0 C74.5 0.67, 144.91 1.97, 239.25 0 M8.75 0 C76.75 -0.71, 144.89 -0.96, 239.25 0 M239.25 0 C243.32 -1.07, 249.64 3.11, 248 8.75 M239.25 0 C247.33 1.17, 246.72 4.01, 248 8.75 M248 8.75 C246.45 14.03, 248.55 18.59, 248 26.25 M248 8.75 C247.51 13.83, 247.81 17.29, 248 26.25 M248 26.25 C247.03 31.4, 244.09 34.19, 239.25 35 M248 26.25 C246.4 33.52, 242.87 36.83, 239.25 35 M239.25 35 C173.47 34.69, 110.92 36.67, 8.75 35 M239.25 35 C161.8 32.6, 82.89 33.29, 8.75 35 M8.75 35 C3.2 34.42, -1.54 31.57, 0 26.25 M8.75 35 C1.75 32.74, -2.01 29.88, 0 26.25 M0 26.25 C-0.36 20.65, 0.25 14.74, 0 8.75 M0 26.25 C0.19 21.6, 0.35 16.47, 0 8.75 M0 8.75 C-1.43 3.58, 2.98 -0.45, 8.75 0 M0 8.75 C-1.71 4.12, 0.73 1.63, 8.75 0" stroke="#1e1e1e" stroke-width="1" fill="none"></path></g><g transform="translate(186.20000076293945 479.5) rotate(0 36.79999923706055 12.5)"><text x="36.79999923706055" y="0" font-family="Virgil, Segoe UI Emoji" font-size="20px" fill="#1e1e1e" text-anchor="middle" style="white-space: pre;" direction="ltr" dominant-baseline="text-before-edge">Dispose</text></g></svg>