<svg version="1.1" xmlns="http://www.w3.org/2000/svg" viewBox="0 0 820 753.9567099567112" width="820" height="753.9567099567112">
  <!-- svg-source:excalidraw -->
  
  <defs>
    <style class="style-fonts">
      @font-face {
        font-family: "Virgil";
        src: url("https://excalidraw.com/Virgil.woff2");
      }
      @font-face {
        font-family: "Cascadia";
        src: url("https://excalidraw.com/Cascadia.woff2");
      }
      @font-face {
        font-family: "Assistant";
        src: url("https://excalidraw.com/Assistant-Regular.woff2");
      }
    </style>
    
  </defs>
  <rect x="0" y="0" width="820" height="753.9567099567112" fill="#ffffff"></rect><g stroke-linecap="round" transform="translate(10 73.4112554112562) rotate(0 400 335.2727272727275)"><path d="M32 0 C262.83 -2.76, 491.78 -2.5, 768 0 C787.87 -0.41, 802.7 14.23, 800 32 C802.32 261.61, 803.03 488.44, 800 638.55 C796.96 661.46, 787.06 670.63, 768 670.55 C592.12 668.87, 416.92 668.77, 32 670.55 C10.02 669.62, -3.38 662.56, 0 638.55 C4.01 413.28, 4.17 190.12, 0 32 C-2.56 12.76, 12.71 -0.62, 32 0" stroke="none" stroke-width="0" fill="#ffffff"></path><path d="M32 0 C234.94 -0.6, 437.21 -1, 768 0 M32 0 C252.56 2.26, 473.05 2.44, 768 0 M768 0 C790.35 0.33, 801.97 12.42, 800 32 M768 0 C790.79 0.38, 801.72 8.46, 800 32 M800 32 C797.27 244.61, 798.14 457.51, 800 638.55 M800 32 C800.46 270.32, 800.32 509.32, 800 638.55 M800 638.55 C799.76 660.94, 787.6 672.08, 768 670.55 M800 638.55 C801.15 661.8, 787.18 670.82, 768 670.55 M768 670.55 C517.27 671.72, 266.68 672.04, 32 670.55 M768 670.55 C540.66 673.4, 313.25 673.25, 32 670.55 M32 670.55 C9.51 668.67, -1.01 658.09, 0 638.55 M32 670.55 C12.31 670.97, 1.91 658.08, 0 638.55 M0 638.55 C-1.26 412.85, -1.79 186.89, 0 32 M0 638.55 C-1.02 458.13, -0.79 277.89, 0 32 M0 32 C-1.43 11.62, 9.49 0.18, 32 0 M0 32 C-1.29 11.32, 12.19 1.44, 32 0" stroke="#1e1e1e" stroke-width="1" fill="none"></path></g><g transform="translate(62.90909090909008 91.32034632034629) rotate(0 50.75833511352539 17.5)"><text x="0" y="24.528" font-family="Virgil, Segoe UI Emoji" font-size="28px" fill="#1e1e1e" text-anchor="start" style="white-space: pre;" direction="ltr" dominant-baseline="alphabetic">Overlay</text></g><g transform="translate(66.9256854256846 134.31818181818198) rotate(0 312.7083435058594 10)"><text x="0" y="14.016" font-family="Virgil, Segoe UI Emoji" font-size="16px" fill="#1e1e1e" text-anchor="start" style="white-space: pre;" direction="ltr" dominant-baseline="alphabetic">a layer or graphical element that is displayed on top of the interface/content</text></g><g stroke-linecap="round" transform="translate(60.56204906204766 180.9090909090919) rotate(0 372.272727272727 277.2727272727275)"><path d="M32 0 C262.69 0.63, 489.93 -0.21, 712.55 0 C731.31 -0.45, 747.23 7.93, 744.55 32 C742.82 137.41, 743.24 244.15, 744.55 522.55 C745.15 541.71, 733.37 554.29, 712.55 554.55 C495.28 557.39, 277.14 558.31, 32 554.55 C8.29 557.79, 2.64 540.31, 0 522.55 C2.63 368.29, 1.35 213.06, 0 32 C1.03 12.24, 11.35 -2.67, 32 0" stroke="none" stroke-width="0" fill="#ffffff"></path><path d="M32 0 C234.96 -1.83, 437.73 -3.13, 712.55 0 M32 0 C170.9 1.9, 309.35 1.79, 712.55 0 M712.55 0 C731.9 -0.92, 743.34 9.32, 744.55 32 M712.55 0 C732.98 -1.91, 742.41 8.65, 744.55 32 M744.55 32 C746.15 192.43, 746 352.79, 744.55 522.55 M744.55 32 C744.7 223.37, 745.07 414.72, 744.55 522.55 M744.55 522.55 C745.06 542.25, 732.2 552.69, 712.55 554.55 M744.55 522.55 C745.55 545.87, 733.96 556.68, 712.55 554.55 M712.55 554.55 C484.21 554.98, 256.85 555.72, 32 554.55 M712.55 554.55 C483.27 556.41, 254.25 556.54, 32 554.55 M32 554.55 C8.83 555.9, 0.08 544.55, 0 522.55 M32 554.55 C8.98 553.08, 0.82 542.21, 0 522.55 M0 522.55 C0.26 341.09, -0.27 157.89, 0 32 M0 522.55 C2.21 395.23, 1.54 267.81, 0 32 M0 32 C-0.43 12.07, 12.57 -0.98, 32 0 M0 32 C0 11.5, 9.04 1.9, 32 0" stroke="#1e1e1e" stroke-width="1" fill="none"></path></g><g transform="translate(94.19841269841254 180.00000000000182) rotate(0 44.50833511352539 17.5)"><text x="0" y="24.528" font-family="Virgil, Segoe UI Emoji" font-size="28px" fill="#1e1e1e" text-anchor="start" style="white-space: pre;" direction="ltr" dominant-baseline="alphabetic">Pop-up</text></g><g transform="translate(95.10750360750262 221.13636363636397) rotate(0 67.91666412353516 10)"><text x="0" y="14.016" font-family="Virgil, Segoe UI Emoji" font-size="16px" fill="#1e1e1e" text-anchor="start" style="white-space: pre;" direction="ltr" dominant-baseline="alphabetic">interaction/inform</text></g><g stroke-linecap="round"><g transform="translate(96.9256854256846 321.81818181818016) rotate(0 334.090909090909 0.45454545454504114)"><path d="M0.27 -0.09 C111.56 0.46, 557.1 1.99, 668.51 2.09 M-1.05 -1.18 C110.04 -0.83, 556.19 0.12, 667.74 0.59" stroke="#1e1e1e" stroke-width="1" fill="none"></path></g></g><mask></mask><g stroke-linecap="round"><g transform="translate(101.3795129413993 399.540738382796) rotate(0 334.090909090909 0.45454545454504114)"><path d="M-0.79 -0.17 C110.25 0.09, 555.81 0.67, 667.41 1.04 M0.99 -1.3 C112.33 -0.79, 558.49 2.38, 669.71 2.64" stroke="#1e1e1e" stroke-width="1" fill="none"></path></g></g><mask></mask><g stroke-linecap="round"><g transform="translate(96.83405839594707 483.17710201915816) rotate(0 334.090909090909 0.45454545454504114)"><path d="M0.44 -0.92 C111.82 -0.78, 557.63 1.28, 668.91 1.4 M-0.79 1.21 C110.44 0.94, 557 -0.35, 668.34 -0.46" stroke="#1e1e1e" stroke-width="1" fill="none"></path></g></g><mask></mask><g stroke-linecap="round"><g transform="translate(94.10678566867227 561.3589202009771) rotate(0 334.090909090909 0.45454545454504114)"><path d="M-0.18 -0.61 C111.12 -0.38, 555.94 0.43, 667.39 0.87 M-1.74 1.69 C109.98 2.15, 558.07 2.62, 669.68 2.38" stroke="#1e1e1e" stroke-width="1" fill="none"></path></g></g><mask></mask><g stroke-linecap="round"><g transform="translate(182.9535944518111 712.7159704306359) rotate(0 2.7272727272725206 -221.36363636363785)"><path d="M-0.87 0.95 C-0.16 -73.05, 4.32 -369.76, 5.25 -443.73 M0.87 0.41 C1.33 -73.51, 3.13 -369.04, 4.19 -442.72" stroke="#1e1e1e" stroke-width="1" fill="none"></path></g></g><mask></mask><g transform="translate(97.8347763347756 436.36363636363603) rotate(0 35.43333435058594 10)"><text x="0" y="14.016" font-family="Virgil, Segoe UI Emoji" font-size="16px" fill="#1e1e1e" text-anchor="start" style="white-space: pre;" direction="ltr" dominant-baseline="alphabetic">Backdrop</text></g><g transform="translate(103.92720159445162 512.954545454545) rotate(0 34.81666564941406 12.5)"><text x="0" y="17.52" font-family="Virgil, Segoe UI Emoji" font-size="20px" fill="#1e1e1e" text-anchor="start" style="white-space: pre;" direction="ltr" dominant-baseline="alphabetic">Dismiss</text></g><g transform="translate(100.29083795808765 344.7727272727261) rotate(0 27.41666603088379 12.5)"><text x="0" y="17.52" font-family="Virgil, Segoe UI Emoji" font-size="20px" fill="#1e1e1e" text-anchor="start" style="white-space: pre;" direction="ltr" dominant-baseline="alphabetic">Focus</text></g><g transform="translate(235.74538341263542 277.49999999999636) rotate(0 29.84166717529297 12.5)"><text x="0" y="17.52" font-family="Virgil, Segoe UI Emoji" font-size="20px" fill="#1e1e1e" text-anchor="start" style="white-space: pre;" direction="ltr" dominant-baseline="alphabetic">Dialog</text></g><g stroke-linecap="round"><g transform="translate(367.0101722113495 720.9343581807871) rotate(0 3.1818181818180165 -225.4545454545464)"><path d="M-0.77 -0.04 C0.1 -75.12, 4.91 -376.02, 6.21 -451.03 M1.03 -1.11 C1.64 -75.95, 4.25 -374.4, 5.18 -449.56" stroke="#1e1e1e" stroke-width="1" fill="none"></path></g></g><mask></mask><g transform="translate(216.92568542568551 347.2727272727243) rotate(0 38.09166717529297 20)"><text x="0" y="14.016" font-family="Virgil, Segoe UI Emoji" font-size="16px" fill="#1e1e1e" text-anchor="start" style="white-space: pre;" direction="ltr" dominant-baseline="alphabetic">Modal</text><text x="0" y="34.016" font-family="Virgil, Segoe UI Emoji" font-size="16px" fill="#1e1e1e" text-anchor="start" style="white-space: pre;" direction="ltr" dominant-baseline="alphabetic">Non-modal</text></g><g transform="translate(226.92568542568551 430.9090909090892) rotate(0 39.00833511352539 10)"><text x="0" y="14.016" font-family="Virgil, Segoe UI Emoji" font-size="16px" fill="#1e1e1e" text-anchor="start" style="white-space: pre;" direction="ltr" dominant-baseline="alphabetic">For Modal</text></g><g transform="translate(231.55371394852318 521.8181818181802) rotate(0 27.96666717529297 10)"><text x="0" y="14.016" font-family="Virgil, Segoe UI Emoji" font-size="16px" fill="#1e1e1e" text-anchor="start" style="white-space: pre;" direction="ltr" dominant-baseline="alphabetic">Explicit</text></g><g transform="translate(417.99310915948354 282.04545454545587) rotate(0 37.625 12.5)"><text x="0" y="17.52" font-family="Virgil, Segoe UI Emoji" font-size="20px" fill="#1e1e1e" text-anchor="start" style="white-space: pre;" direction="ltr" dominant-baseline="alphabetic">Popover</text></g><g transform="translate(191.47113997114138 659.9999999999991) rotate(0 80.55833435058594 30)"><text x="0" y="14.016" font-family="Virgil, Segoe UI Emoji" font-size="16px" fill="#1e1e1e" text-anchor="start" style="white-space: pre;" direction="ltr" dominant-baseline="alphabetic">Expects an action</text><text x="0" y="34.016" font-family="Virgil, Segoe UI Emoji" font-size="16px" fill="#1e1e1e" text-anchor="start" style="white-space: pre;" direction="ltr" dominant-baseline="alphabetic"> from the user, like </text><text x="0" y="54.016" font-family="Virgil, Segoe UI Emoji" font-size="16px" fill="#1e1e1e" text-anchor="start" style="white-space: pre;" direction="ltr" dominant-baseline="alphabetic">confirmation</text></g><g transform="translate(204.19841269841254 600.9090909090901) rotate(0 77.94166564941406 10)"><text x="0" y="14.016" font-family="Virgil, Segoe UI Emoji" font-size="16px" fill="#1e1e1e" text-anchor="start" style="white-space: pre;" direction="ltr" dominant-baseline="alphabetic">Saving, Deleting etc</text></g><g transform="translate(400.56204906204766 599.0909090909081) rotate(0 35.650001525878906 10)"><text x="0" y="14.016" font-family="Virgil, Segoe UI Emoji" font-size="16px" fill="#1e1e1e" text-anchor="start" style="white-space: pre;" direction="ltr" dominant-baseline="alphabetic">Dropdown</text></g><g transform="translate(103.28932178932155 601.1363636363631) rotate(0 38.391666412353516 12.5)"><text x="0" y="17.52" font-family="Virgil, Segoe UI Emoji" font-size="20px" fill="#1e1e1e" text-anchor="start" style="white-space: pre;" direction="ltr" dominant-baseline="alphabetic">Example</text></g><g stroke-linecap="round"><g transform="translate(97.49904899726516 569.988697703362) rotate(0 334.090909090909 0.45454545454504114)"><path d="M1.05 1.12 C112.5 1.36, 557.32 1.33, 668.49 1.21 M0.15 0.66 C111.48 0.54, 556.51 -0.88, 667.7 -0.75" stroke="#1e1e1e" stroke-width="1" fill="none"></path></g></g><mask></mask><g stroke-linecap="round"><g transform="translate(554.6585415824302 727.8086331344475) rotate(0 1.363636363636033 -230.0000000000009)"><path d="M-0.59 0.61 C-0.29 -75.89, 1.93 -383.38, 2.54 -459.95 M1.3 -0.11 C1.36 -76.33, 1.3 -381.65, 1.49 -458.39" stroke="#1e1e1e" stroke-width="1" fill="none"></path></g></g><mask></mask><g transform="translate(375.10750360750353 675.2272727272721) rotate(0 75.15833282470703 10)"><text x="0" y="14.016" font-family="Virgil, Segoe UI Emoji" font-size="16px" fill="#1e1e1e" text-anchor="start" style="white-space: pre;" direction="ltr" dominant-baseline="alphabetic">Element interaction</text></g><g transform="translate(425.1075036075026 353.63636363636215) rotate(0 38.09166717529297 10)"><text x="0" y="14.016" font-family="Virgil, Segoe UI Emoji" font-size="16px" fill="#1e1e1e" text-anchor="start" style="white-space: pre;" direction="ltr" dominant-baseline="alphabetic">Non-modal</text></g><g transform="translate(442.4628048576142 434.54545454545405) rotate(0 9.583333015441895 10)"><text x="0" y="14.016" font-family="Virgil, Segoe UI Emoji" font-size="16px" fill="#1e1e1e" text-anchor="start" style="white-space: pre;" direction="ltr" dominant-baseline="alphabetic">No</text></g><g transform="translate(424.4135637049394 523.636363636364) rotate(0 19.016666412353516 10)"><text x="0" y="14.016" font-family="Virgil, Segoe UI Emoji" font-size="16px" fill="#1e1e1e" text-anchor="start" style="white-space: pre;" direction="ltr" dominant-baseline="alphabetic">Light</text></g><g stroke-linecap="round"><g transform="translate(93.51804959257788 644.2744677507199) rotate(0 334.090909090909 0.45454545454504114)"><path d="M0.33 0.6 C111.68 0.92, 556.09 1.46, 667.54 1.37 M-0.95 -0.13 C110.85 -0.13, 558.31 -0.69, 669.91 -0.52" stroke="#1e1e1e" stroke-width="1" fill="none"></path></g></g><mask></mask><g transform="translate(617.6287147114626 282.38636363636397) rotate(0 34.53333282470703 12.5)"><text x="0" y="17.52" font-family="Virgil, Segoe UI Emoji" font-size="20px" fill="#1e1e1e" text-anchor="start" style="white-space: pre;" direction="ltr" dominant-baseline="alphabetic">Tooltip</text></g><g transform="translate(600.1976546140277 599.4318181818162) rotate(0 27.608333587646484 10)"><text x="0" y="14.016" font-family="Virgil, Segoe UI Emoji" font-size="16px" fill="#1e1e1e" text-anchor="start" style="white-space: pre;" direction="ltr" dominant-baseline="alphabetic">Tooltip</text></g><g transform="translate(624.7431091594835 353.97727272727207) rotate(0 38.09166717529297 10)"><text x="0" y="14.016" font-family="Virgil, Segoe UI Emoji" font-size="16px" fill="#1e1e1e" text-anchor="start" style="white-space: pre;" direction="ltr" dominant-baseline="alphabetic">Non-modal</text></g><g transform="translate(642.0984104095942 434.88636363636033) rotate(0 9.583333015441895 10)"><text x="0" y="14.016" font-family="Virgil, Segoe UI Emoji" font-size="16px" fill="#1e1e1e" text-anchor="start" style="white-space: pre;" direction="ltr" dominant-baseline="alphabetic">No</text></g><g transform="translate(624.0491692569185 523.9772727272721) rotate(0 19.016666412353516 10)"><text x="0" y="14.016" font-family="Virgil, Segoe UI Emoji" font-size="16px" fill="#1e1e1e" text-anchor="start" style="white-space: pre;" direction="ltr" dominant-baseline="alphabetic">Light</text></g><g transform="translate(18.74386724386659 10) rotate(0 50.04166793823242 10)"><text x="0" y="14.016" font-family="Virgil, Segoe UI Emoji" font-size="16px" fill="#1e1e1e" text-anchor="start" style="white-space: pre;" direction="ltr" dominant-baseline="alphabetic">UX Patterns</text></g></svg>